<?xml version="1.0" encoding="UTF-8"?>
<svg id="Layer_2" data-name="Layer 2" xmlns="http://www.w3.org/2000/svg" xmlns:xlink="http://www.w3.org/1999/xlink" viewBox="0 0 200 100">
  <defs>
    <style>
      .cls-1 {
        fill: #ffcef0;
      }

      .cls-2, .cls-3, .cls-4, .cls-5 {
        fill: none;
      }

      .cls-3 {
        stroke: rgba(255, 206, 240, .6);
        stroke-linecap: round;
        stroke-width: 8px;
      }

      .cls-4, .cls-6 {
        fill-rule: evenodd;
      }

      .cls-6 {
        fill: #ffb6e9;
      }

      .cls-5 {
        clip-rule: evenodd;
      }

      .cls-7 {
        clip-path: url(#clippath);
      }
    </style>
    <clipPath id="clippath">
      <path class="cls-5" d="M200,12v76c-6.63,0-12,5.37-12,12H12c0-6.63-5.37-12-12-12V12c6.63,0,12-5.37,12-12h176c0,6.63,5.37,12,12,12Z"/>
    </clipPath>
  </defs>
  <g id="Layer_1-2" data-name="Layer 1">
    <path class="cls-6" d="M200,12v76c-6.63,0-12,5.37-12,12H12c0-6.63-5.37-12-12-12V12c6.63,0,12-5.37,12-12h176c0,6.63,5.37,12,12,12Z"/>
    <path class="cls-2" d="M200,0v88c-6.63,0-12,5.37-12,12H12c0-6.63-5.37-12-12-12V0h200Z"/>
    <path class="cls-4" d="M200,12v76c-6.63,0-12,5.37-12,12H12c0-6.63-5.37-12-12-12V12c6.63,0,12-5.37,12-12h176c0,6.63,5.37,12,12,12Z"/>
    <g class="cls-7">
      <path class="cls-3" d="M-13.27,103.14C11.87,67.79,36.06,24.51,75.44-1.34c8.4-5.51,22.6-11.06,26.2,1.14,4.18,14.17.26,30.02,7.76,43.69,9.51,17.34,37.15-15.23,43.75-21.41,17.71-16.6,31.52-38.47,51.64-52.9,12.74-9.14,27.7-3.83,30.76,9.93,3.02,13.59-1.7,27.45-2.54,41.02-.78,12.56.98,22.62,7.19,33.77"/>
    </g>
    <rect class="cls-1" x="26.96" y="62.16" width="146.09" height="25.57" rx="12" ry="12"/>
    <g>
      <path d="M39.31,71.54v-3.63h10.89v3.63h-3.54v11.87h-3.81v-11.87h-3.54Z"/>
      <path d="M51.54,83.4v-15.5h3.83v15.5h-3.83Z"/>
      <path d="M66.69,67.91v3.41h-5.31v2.63h4.8v3.32h-4.8v2.68h5.45v3.45h-9.28v-15.5h9.14Z"/>
      <path d="M80.24,75.66c0,4.34-1.75,7.75-6.6,7.75h-5.07v-15.5h5.07c4.85,0,6.6,3.41,6.6,7.75ZM72.4,79.77h1.24c1.86,0,2.77-1.13,2.77-4.12s-.91-4.12-2.77-4.12h-1.24v8.24Z"/>
      <path d="M92.73,71.87c0,1.86-.89,2.86-1.7,3.34,1.04.49,2.26,1.71,2.26,3.81,0,3.17-2.66,4.38-5.18,4.38h-6.22v-15.5h6.35c2.7,0,4.49,1.48,4.49,3.96ZM85.71,74.06h1.84c.86,0,1.44-.55,1.44-1.48,0-1.04-.58-1.5-1.53-1.5h-1.75v2.99ZM85.71,80.19h1.9c.91,0,1.77-.35,1.77-1.59s-.84-1.59-1.7-1.59h-1.97v3.19Z"/>
      <path d="M92.87,67.91h4.16l2.37,5.82,2.35-5.82h4.18l-4.63,9.63v5.87h-3.81v-5.87l-4.63-9.63Z"/>
      <path d="M112.73,67.91c2.99,0,5.47,1.7,5.47,5.22,0,2.21-.89,3.76-2.39,4.56l2.9,5.71h-4.14l-2.46-5.05h-1.31v5.05h-3.83v-15.5h5.76ZM114.37,73.2c0-1.13-.71-1.75-1.79-1.75h-1.77v3.5h1.77c1.08,0,1.79-.62,1.79-1.75Z"/>
      <path d="M127.57,67.91l4.92,15.5h-3.99l-.64-2.33h-4.41l-.64,2.33h-4.01l4.92-15.5h3.85ZM126.33,75.28c-.27-1.02-.51-2.1-.69-3.34-.18,1.24-.4,2.33-.66,3.34l-.75,2.66h2.83l-.73-2.66Z"/>
      <path d="M137.32,67.91v6.07h.95l2.55-6.07h4.43l-3.65,7.75,3.79,7.75h-4.43l-2.66-6.04h-.97v6.04h-3.83v-15.5h3.83Z"/>
      <path d="M153.75,83.4v-5.93h-3.56v5.93h-3.83v-15.5h3.83v5.93h3.56v-5.93h3.81v15.5h-3.81Z"/>
      <path d="M159.75,83.4v-15.5h3.83v15.5h-3.83Z"/>
    </g>
    <g>
      <path d="M36.05,18.27h6.51c1.18,0,2.02.25,2.51.75.49.5.74,1.17.74,1.99v1.81c0,.58-.07,1.08-.21,1.5-.14.43-.42.76-.85,1,.43.19.71.48.85.86.14.38.21.86.21,1.42v2.12c0,.83-.25,1.49-.74,1.99-.49.5-1.33.75-2.51.75h-6.51v-14.21ZM42,23.6v-2.3c0-.16-.04-.28-.13-.37s-.23-.12-.42-.12h-1.59v3.28h1.59c.19,0,.33-.04.42-.12.09-.08.13-.2.13-.37ZM42,29.45v-2.32c0-.16-.04-.28-.13-.37s-.23-.12-.42-.12h-1.59v3.3h1.59c.19,0,.33-.04.42-.12s.13-.2.13-.37Z"/>
      <path d="M51.34,18.27v10.95c0,.16.04.28.13.37.09.08.23.12.42.12h.73v2.77h-1.9c-1.18,0-2.02-.25-2.51-.75-.49-.5-.74-1.17-.74-1.99v-11.46h3.87ZM53.38,29.23v-10.95h3.87v11.46c0,.83-.25,1.49-.74,1.99-.49.5-1.33.75-2.51.75h-1.9v-2.77h.73c.19,0,.33-.04.42-.12.09-.08.13-.2.13-.37Z"/>
      <path d="M65.66,28.52h-3.34l-4.18-10.25h3.96l1.86,6,1.73-6h3.94l-3.96,10.25ZM62.05,26.46h3.87v6.02h-3.87v-6.02Z"/>
      <path d="M78.43,21.52v1.62h-3.87v-2.12c0-.83.25-1.49.74-1.99.49-.5,1.33-.75,2.51-.75h2.68c1.18,0,2.02.25,2.53.75.51.5.76,1.17.76,1.99v2.04c0,.77-.13,1.42-.39,1.95-.26.53-.65,1.08-1.16,1.64l-2.74,3.08h4.29v2.77h-9.12v-2.52l4.2-4.51c.44-.47.74-.87.89-1.19.15-.32.22-.73.22-1.22v-1.5c0-.16-.04-.28-.13-.37-.09-.08-.23-.12-.42-.12h-.44c-.19,0-.33.04-.42.12-.09.08-.13.2-.13.37Z"/>
      <path d="M94.32,25.31c0-.75.21-1.36.63-1.81.42-.46,1.1-.69,2.05-.69h.35c.52,0,.93.11,1.23.34.3.23.5.54.61.94v-1.28h2.99v5.6h.97c.19,0,.33-.04.42-.12.09-.08.13-.2.13-.37v-6.09c0-.16-.04-.28-.13-.37-.09-.08-.23-.12-.42-.12h-9.54c-.19,0-.33.04-.42.12-.09.08-.13.2-.13.37v9.91c0,.16.04.28.13.37.09.08.23.12.42.12h8.59v2.55h-9.52c-1.05,0-1.8-.25-2.26-.75-.46-.5-.69-1.17-.69-1.99v-10.49c0-.83.23-1.49.69-1.99.46-.5,1.21-.75,2.26-.75h11.35c1.05,0,1.79.25,2.24.75.44.5.66,1.17.66,1.99v6.42c0,.83-.23,1.49-.69,1.99-.46.5-1.21.75-2.26.75h-4.78v-1.35c-.09.41-.28.74-.59.98-.3.24-.73.37-1.27.37h-.35c-.94,0-1.63-.23-2.05-.69-.42-.46-.63-1.06-.63-1.81v-2.9ZM97.55,25.57v2.37c0,.15.04.26.12.33s.2.11.37.11h.55c.18,0,.31-.05.4-.14.09-.1.13-.25.13-.45v-2.06c0-.21-.04-.36-.13-.45-.09-.1-.22-.14-.4-.14h-.55c-.16,0-.28.03-.37.1s-.12.18-.12.34Z"/>
      <path d="M121.58,18.27v2.19h-8.32v-2.19h8.32ZM118.51,20.04c.43,0,.74.04.95.11.21.07.34.23.41.45.07.23.1.59.1,1.07v3.28c0,1.05-.27,1.78-.82,2.2-.55.42-1.52.62-2.92.61h-.46l.89-.86,3.76,5.58h-3.98l-3.16-4.71v-2.5h2.43c.16,0,.29-.04.38-.11.09-.07.13-.21.13-.42v-3.78c0-.16-.04-.28-.13-.37-.09-.08-.23-.12-.42-.12l2.86-.42ZM121.58,21.77v2.19h-8.32v-2.19h8.32Z"/>
      <path d="M127.42,18.27v2.77h-4.56v-2.77h4.56ZM124.86,18.27h3.87v14.21h-3.87v-14.21Z"/>
      <path d="M129.84,29.93v-3.43l5.33-8.23h3.9l-7.52,11.66h-1.7ZM130.88,29.93v-2.81h9.96v2.81h-9.96ZM135.7,24.31h3.63v8.17h-3.63v-8.17Z"/>
      <path d="M145.26,21.52v2.46c0,.16.04.28.13.37.09.08.23.12.42.12h2.32v2.54h-3.39c-1.18,0-2.02-.25-2.51-.75-.49-.5-.74-1.17-.74-1.99v-3.25c0-.83.25-1.49.74-1.99.49-.5,1.33-.75,2.51-.75h1.57v2.77h-.51c-.19,0-.33.04-.42.12-.09.08-.13.2-.13.37ZM145.44,28.25v.97c0,.16.04.28.13.37.09.08.23.12.42.12h.46v2.77h-1.53c-1.18,0-2.02-.25-2.51-.75-.49-.5-.74-1.17-.74-1.99v-1.48h3.76ZM147.19,29.23v-7.7c0-.16-.04-.28-.13-.37-.09-.08-.23-.12-.42-.12h-.51v-2.77h1.57c1.18,0,2.02.25,2.51.75.49.5.74,1.17.74,1.99v8.72c0,.83-.25,1.49-.74,1.99-.49.5-1.33.75-2.51.75h-1.57v-2.77h.51c.19,0,.33-.04.42-.12.09-.08.13-.2.13-.37Z"/>
      <path d="M156.19,21.52v2.46c0,.16.04.28.13.37.09.08.23.12.42.12h2.32v2.54h-3.39c-1.18,0-2.02-.25-2.51-.75-.49-.5-.74-1.17-.74-1.99v-3.25c0-.83.25-1.49.74-1.99.49-.5,1.33-.75,2.51-.75h1.57v2.77h-.51c-.19,0-.33.04-.42.12-.09.08-.13.2-.13.37ZM156.37,28.25v.97c0,.16.04.28.13.37.09.08.23.12.42.12h.46v2.77h-1.53c-1.18,0-2.02-.25-2.51-.75-.49-.5-.74-1.17-.74-1.99v-1.48h3.76ZM158.12,29.23v-7.7c0-.16-.04-.28-.13-.37-.09-.08-.23-.12-.42-.12h-.51v-2.77h1.57c1.18,0,2.02.25,2.51.75.49.5.74,1.17.74,1.99v8.72c0,.83-.25,1.49-.74,1.99-.49.5-1.33.75-2.51.75h-1.57v-2.77h.51c.19,0,.33-.04.42-.12.09-.08.13-.2.13-.37Z"/>
    </g>
    <g>
      <path d="M76.9,43.94v7.33c0,.12.03.22.09.28.06.06.15.09.29.09h.48v1.52h-1.1c-.66,0-1.12-.14-1.41-.43-.28-.28-.42-.68-.42-1.18v-7.6h2.07ZM78.36,51.27v-7.33h2.07v7.6c0,.5-.14.9-.42,1.18-.28.29-.75.43-1.4.43h-1.14v-1.52h.51c.15,0,.25-.03.3-.09.06-.06.09-.15.09-.28Z"/>
      <path d="M84.92,51.27v-1.67c0-.12-.03-.21-.09-.27-.06-.05-.16-.08-.3-.08h-1.27c-.64,0-1.08-.15-1.33-.44s-.38-.69-.38-1.18v-2.09c0-.5.14-.9.42-1.18.28-.28.75-.43,1.41-.43h1.77c.66,0,1.12.14,1.4.43.28.29.42.68.42,1.18v1.19h-2.07v-.91c0-.13-.03-.23-.09-.28-.06-.05-.16-.08-.3-.08h-.49c-.15,0-.25.03-.3.08-.06.05-.09.15-.09.28v1.62c0,.13.03.21.09.27.06.05.16.08.3.08h1.25c.65,0,1.1.14,1.35.42.26.28.38.67.38,1.17v2.16c0,.5-.14.9-.42,1.18-.28.29-.75.43-1.4.43h-1.75c-.66,0-1.13-.14-1.41-.43-.28-.28-.43-.68-.43-1.18v-1.19h2.07v.91c0,.12.03.22.09.28.06.06.16.09.3.09h.49c.14,0,.25-.03.3-.09.06-.06.09-.15.09-.28Z"/>
      <path d="M88.11,43.94h2.09v9.21h-2.09v-9.21ZM93.03,43.94v1.52h-4.1v-1.52h4.1ZM93.15,51.63v1.52h-4.21v-1.52h4.21ZM92.61,47.71v1.52h-3.55v-1.52h3.55Z"/>
      <path d="M98.64,45.72v5.65c0,.13.03.23.09.28.06.05.16.08.3.08h.38v1.42h-1.01c-.66,0-1.13-.14-1.41-.43-.29-.28-.43-.67-.43-1.17v-6.01c0-.5.14-.9.43-1.18.29-.28.76-.43,1.41-.43h1.06v1.42h-.42c-.14,0-.25.03-.3.08-.06.05-.09.15-.09.28ZM100,47.17v-1.45c0-.13-.03-.23-.08-.28s-.15-.08-.3-.08h-.42v-1.42h1.04c.66,0,1.13.14,1.41.43.29.29.43.68.43,1.18v1.62h-2.09ZM100,51.37v-1.41h2.09v1.59c0,.49-.14.88-.43,1.17-.29.29-.76.43-1.41.43h-1.04v-1.42h.42c.14,0,.24-.03.3-.08s.08-.15.08-.28Z"/>
      <path d="M105.17,45.82v2.93h-2.07v-3.2c0-.5.14-.9.43-1.18.28-.28.75-.43,1.41-.43h1.1v1.52h-.48c-.15,0-.25.03-.3.08-.06.05-.09.15-.09.28ZM105.17,48.36v2.91c0,.12.03.22.09.28.06.06.16.09.3.09h.46v1.52h-1.09c-.66,0-1.13-.14-1.41-.43-.29-.28-.43-.68-.43-1.18v-3.19h2.07ZM106.63,51.27v-2.87h2.07v3.14c0,.5-.14.9-.42,1.18-.28.29-.75.43-1.41.43h-1.14v-1.52h.52c.14,0,.24-.03.3-.09.05-.06.08-.15.08-.28ZM106.63,48.75v-2.93c0-.13-.03-.23-.08-.28-.05-.05-.15-.08-.3-.08h-.49v-1.52h1.12c.66,0,1.12.14,1.41.43.28.29.42.68.42,1.18v3.2h-2.07Z"/>
      <path d="M110.04,43.94h2.09v9.21h-2.09v-9.21ZM113.66,47.63v-1.91c0-.13-.03-.23-.09-.28-.06-.05-.16-.08-.3-.08h-2.46v-1.42h3.08c.66,0,1.13.14,1.41.43.28.29.43.68.43,1.18v2.09h-2.07ZM113.66,51.37v-3.97h2.07v4.14c0,.5-.14.9-.43,1.18s-.76.43-1.41.43h-3.08v-1.42h2.46c.14,0,.25-.03.3-.09.06-.06.09-.15.09-.27Z"/>
      <path d="M116.96,43.94h2.08v9.21h-2.08v-9.21ZM121.89,43.94v1.52h-4.1v-1.52h4.1ZM122,51.63v1.52h-4.21v-1.52h4.21ZM121.46,47.71v1.52h-3.55v-1.52h3.55Z"/>
    </g>
  </g>
</svg>