<?xml version="1.0" encoding="UTF-8"?>
<svg id="Layer_2" data-name="Layer 2" xmlns="http://www.w3.org/2000/svg" viewBox="0 0 321.15 132.93">
  <defs>
    <style>
      .cls-1 {
        stroke: #1198b8;
        stroke-dasharray: 5 5;
      }

      .cls-1, .cls-2 {
        fill: none;
        stroke-miterlimit: 10;
      }

      .cls-2 {
        stroke: #2b617c;
        stroke-width: 5px;
      }

      .cls-3 {
        fill: #fceebf;
      }

      .cls-4 {
        fill: #1198b8;
      }

      .cls-5 {
        fill: #2b617c;
      }

      .cls-6 {
        fill: #bbe5f2;
      }
    </style>
  </defs>
  <g id="Layer_1-2" data-name="Layer 1">
    <g>
      <path class="cls-6" d="M321.15,6.21v-3.93h-6.5c0,2.69-2.17,4.86-4.86,4.86s-4.85-2.17-4.85-4.86h-3.28c0,2.69-2.17,4.86-4.86,4.86s-4.86-2.17-4.86-4.86h-4.56c0,2.69-2.18,4.86-4.86,4.86s-4.86-2.17-4.86-4.86h-4.56c0,2.69-2.18,4.86-4.86,4.86s-4.86-2.17-4.86-4.86h-4.57c0,2.69-2.17,4.86-4.85,4.86s-4.86-2.17-4.86-4.86h-3.39c0,2.69-2.18,4.86-4.86,4.86s-4.86-2.17-4.86-4.86h-4.57c0,2.69-2.17,4.86-4.86,4.86s-4.85-2.17-4.85-4.86h-4.57c0,2.69-2.18,4.86-4.86,4.86s-4.86-2.17-4.86-4.86h-4.56c0,2.69-2.18,4.86-4.86,4.86s-4.86-2.17-4.86-4.86h-4.57c0,2.69-2.17,4.86-4.85,4.86s-4.86-2.17-4.86-4.86h-5.17c0,2.69-2.17,4.86-4.86,4.86s-4.85-2.17-4.85-4.86h-4.57c0,2.69-2.17,4.86-4.86,4.86s-4.86-2.17-4.86-4.86h-4.57c0,2.69-2.18,4.86-4.86,4.86s-4.86-2.17-4.86-4.86h-5.1c0,2.69-2.18,4.86-4.86,4.86s-4.86-2.17-4.86-4.86h-4.57c0,2.69-2.17,4.86-4.86,4.86s-4.85-2.17-4.85-4.86h-4.57c0,2.69-2.17,4.86-4.86,4.86s-4.86-2.17-4.86-4.86h-4.56c0,2.69-2.18,4.86-4.86,4.86s-4.86-2.17-4.86-4.86h-3.39c0,2.69-2.18,4.86-4.86,4.86s-4.86-2.17-4.86-4.86h-4.56c0,2.69-2.18,4.86-4.86,4.86s-4.86-2.17-4.86-4.86h-4.57c0,2.69-2.17,4.86-4.85,4.86s-4.86-2.17-4.86-4.86h-4.57c0,2.69-2.17,4.86-4.86,4.86s-4.86-2.17-4.86-4.86h-4.56c0,2.69-2.18,4.86-4.86,4.86s-4.86-2.17-4.86-4.86H1v3.93c2.68,0,4.86,2.17,4.86,4.85s-2.18,4.86-4.86,4.86v4.57c2.68,0,4.86,2.17,4.86,4.86s-2.18,4.86-4.86,4.86v4.56c2.68,0,4.86,2.18,4.86,4.86s-2.18,4.86-4.86,4.86v4.56c2.68,0,4.86,2.18,4.86,4.86s-2.18,4.86-4.86,4.86v3.39c2.68,0,4.86,2.18,4.86,4.86s-2.18,4.86-4.86,4.86v4.56c2.68,0,4.86,2.18,4.86,4.86s-2.18,4.86-4.86,4.86v4.57c2.68,0,4.86,2.17,4.86,4.86s-2.18,4.85-4.86,4.85v4.57c2.68,0,4.86,2.17,4.86,4.86s-2.18,4.86-4.86,4.86v4.56c2.68,0,4.86,2.18,4.86,4.86s-2.18,4.86-4.86,4.86v3.92h6.49c0-2.69,2.18-4.87,4.86-4.87s4.86,2.18,4.86,4.86h0s4.56.01,4.56.01h0c0-2.69,2.18-4.87,4.86-4.87s4.86,2.18,4.86,4.86h0s4.57.01,4.57.01h0c0-2.69,2.17-4.87,4.86-4.87s4.85,2.18,4.85,4.86h0s4.57.01,4.57.01h0c0-2.69,2.17-4.87,4.86-4.87s4.86,2.18,4.86,4.86h0s4.56.01,4.56.01h0c0-2.69,2.18-4.87,4.86-4.87s4.86,2.18,4.86,4.86h0s3.39.01,3.39.01h0c0-2.69,2.18-4.87,4.86-4.87s4.86,2.18,4.86,4.86h0s4.56.01,4.56.01h0c0-2.69,2.18-4.87,4.86-4.87s4.86,2.18,4.86,4.86h0s4.57.01,4.57.01h0c0-2.69,2.17-4.87,4.85-4.87s4.86,2.18,4.86,4.86h0s4.57.01,4.57.01h0c0-2.69,2.17-4.87,4.86-4.87s4.86,2.18,4.86,4.86h0s5.1.01,5.1.01h0c0-2.69,2.17-4.87,4.86-4.87s4.86,2.18,4.86,4.86h0s4.55.01,4.55.01h.02c0-2.69,2.18-4.87,4.86-4.87s4.86,2.18,4.86,4.86h0s4.57.01,4.57.01h0c0-2.69,2.17-4.87,4.85-4.87s4.86,2.18,4.86,4.86h0s5.17.01,5.17.01h0c0-2.69,2.17-4.87,4.86-4.87s4.85,2.18,4.85,4.86h0s4.57.01,4.57.01h0c0-2.69,2.18-4.87,4.86-4.87s4.86,2.18,4.86,4.86h0s4.56.01,4.56.01h0c0-2.69,2.18-4.87,4.86-4.87s4.86,2.18,4.86,4.86h0s4.57.01,4.57.01h0c0-2.69,2.17-4.87,4.85-4.87s4.86,2.18,4.86,4.86h0s4.57.01,4.57.01h0c0-2.69,2.17-4.87,4.86-4.87s4.86,2.18,4.86,4.86h0s3.39.01,3.39.01h0c0-2.69,2.17-4.87,4.86-4.87s4.85,2.18,4.85,4.86h0s4.57.01,4.57.01h0c0-2.69,2.17-4.87,4.86-4.87s4.86,2.18,4.86,4.86h0s4.56.01,4.56.01h0c0-2.69,2.18-4.87,4.86-4.87s4.86,2.18,4.86,4.86h0s4.56.01,4.56.01h0c0-2.69,2.18-4.87,4.86-4.87s4.86,2.18,4.86,4.86h0s3.28.01,3.28.01h0c0-2.69,2.17-4.87,4.85-4.87s4.86,2.18,4.86,4.86h0s6.5.01,6.5.01v-3.92c-2.69,0-4.86-2.18-4.86-4.86s2.17-4.86,4.86-4.86v-4.56c-2.69,0-4.86-2.18-4.86-4.86s2.17-4.86,4.86-4.86v-4.57c-2.69,0-4.86-2.17-4.86-4.85s2.17-4.86,4.86-4.86v-4.57c-2.69,0-4.86-2.17-4.86-4.86s2.17-4.86,4.86-4.86v-4.56c-2.69,0-4.86-2.18-4.86-4.86s2.17-4.86,4.86-4.86v-3.39c-2.69,0-4.86-2.18-4.86-4.86s2.17-4.86,4.86-4.86v-4.56c-2.69,0-4.86-2.18-4.86-4.86s2.17-4.86,4.86-4.86v-4.56c-2.69,0-4.86-2.18-4.86-4.86s2.17-4.86,4.86-4.86v-4.57c-2.69,0-4.86-2.17-4.86-4.86s2.17-4.85,4.86-4.85Z"/>
      <path class="cls-4" d="M320.15,3.93V0h-6.5c0,2.69-2.17,4.86-4.86,4.86s-4.85-2.17-4.85-4.86h-3.28c0,2.69-2.17,4.86-4.86,4.86s-4.86-2.17-4.86-4.86h-4.56c0,2.69-2.18,4.86-4.86,4.86s-4.86-2.17-4.86-4.86h-4.56c0,2.69-2.18,4.86-4.86,4.86s-4.86-2.17-4.86-4.86h-4.57c0,2.69-2.17,4.86-4.85,4.86s-4.86-2.17-4.86-4.86h-3.39c0,2.69-2.18,4.86-4.86,4.86s-4.86-2.17-4.86-4.86h-4.57c0,2.69-2.17,4.86-4.86,4.86s-4.85-2.17-4.85-4.86h-4.57c0,2.69-2.18,4.86-4.86,4.86s-4.86-2.17-4.86-4.86h-4.56c0,2.69-2.18,4.86-4.86,4.86s-4.86-2.17-4.86-4.86h-4.57c0,2.69-2.17,4.86-4.85,4.86s-4.86-2.17-4.86-4.86h-5.17c0,2.69-2.17,4.86-4.86,4.86s-4.85-2.17-4.85-4.86h-4.57c0,2.69-2.17,4.86-4.86,4.86s-4.86-2.17-4.86-4.86h-4.57c0,2.69-2.18,4.86-4.86,4.86s-4.86-2.17-4.86-4.86h-5.1c0,2.69-2.18,4.86-4.86,4.86s-4.86-2.17-4.86-4.86h-4.57c0,2.69-2.17,4.86-4.86,4.86s-4.85-2.17-4.85-4.86h-4.57c0,2.69-2.17,4.86-4.86,4.86s-4.86-2.17-4.86-4.86h-4.56c0,2.69-2.18,4.86-4.86,4.86s-4.86-2.17-4.86-4.86h-3.39c0,2.69-2.18,4.86-4.86,4.86s-4.86-2.17-4.86-4.86h-4.56c0,2.69-2.18,4.86-4.86,4.86s-4.86-2.17-4.86-4.86h-4.57c0,2.69-2.17,4.86-4.85,4.86s-4.86-2.17-4.86-4.86h-4.57c0,2.69-2.17,4.86-4.86,4.86s-4.86-2.17-4.86-4.86h-4.56c0,2.69-2.18,4.86-4.86,4.86S6.49,2.69,6.49,0H0v3.93c2.68,0,4.86,2.17,4.86,4.85S2.68,13.64,0,13.64v4.57c2.68,0,4.86,2.17,4.86,4.86s-2.18,4.86-4.86,4.86v4.56c2.68,0,4.86,2.18,4.86,4.86s-2.18,4.86-4.86,4.86v4.56c2.68,0,4.86,2.18,4.86,4.86s-2.18,4.86-4.86,4.86v3.39c2.68,0,4.86,2.18,4.86,4.86s-2.18,4.86-4.86,4.86v4.56c2.68,0,4.86,2.18,4.86,4.86s-2.18,4.86-4.86,4.86v4.57c2.68,0,4.86,2.17,4.86,4.86s-2.18,4.85-4.86,4.85v4.57c2.68,0,4.86,2.17,4.86,4.86s-2.18,4.86-4.86,4.86v4.56c2.68,0,4.86,2.18,4.86,4.86s-2.18,4.86-4.86,4.86v3.92h6.49c0-2.69,2.18-4.87,4.86-4.87s4.86,2.18,4.86,4.86h0s4.56.01,4.56.01h0c0-2.69,2.18-4.87,4.86-4.87s4.86,2.18,4.86,4.86h0s4.57.01,4.57.01h0c0-2.69,2.17-4.87,4.86-4.87s4.85,2.18,4.85,4.86h0s4.57.01,4.57.01h0c0-2.69,2.17-4.87,4.86-4.87s4.86,2.18,4.86,4.86h0s4.56.01,4.56.01h0c0-2.69,2.18-4.87,4.86-4.87s4.86,2.18,4.86,4.86h0s3.39.01,3.39.01h0c0-2.69,2.18-4.87,4.86-4.87s4.86,2.18,4.86,4.86h0s4.56.01,4.56.01h0c0-2.69,2.18-4.87,4.86-4.87s4.86,2.18,4.86,4.86h0s4.57.01,4.57.01h0c0-2.69,2.17-4.87,4.85-4.87s4.86,2.18,4.86,4.86h0s4.57.01,4.57.01h0c0-2.69,2.17-4.87,4.86-4.87s4.86,2.18,4.86,4.86h0s5.1.01,5.1.01h0c0-2.69,2.17-4.87,4.86-4.87s4.86,2.18,4.86,4.86h0s4.55.01,4.55.01h.02c0-2.69,2.18-4.87,4.86-4.87s4.86,2.18,4.86,4.86h0s4.57.01,4.57.01h0c0-2.69,2.17-4.87,4.85-4.87s4.86,2.18,4.86,4.86h0s5.17.01,5.17.01h0c0-2.69,2.17-4.87,4.86-4.87s4.85,2.18,4.85,4.86h0s4.57.01,4.57.01h0c0-2.69,2.18-4.87,4.86-4.87s4.86,2.18,4.86,4.86h0s4.56.01,4.56.01h0c0-2.69,2.18-4.87,4.86-4.87s4.86,2.18,4.86,4.86h0s4.57.01,4.57.01h0c0-2.69,2.17-4.87,4.85-4.87s4.86,2.18,4.86,4.86h0s4.57.01,4.57.01h0c0-2.69,2.17-4.87,4.86-4.87s4.86,2.18,4.86,4.86h0s3.39.01,3.39.01h0c0-2.69,2.17-4.87,4.86-4.87s4.85,2.18,4.85,4.86h0s4.57.01,4.57.01h0c0-2.69,2.17-4.87,4.86-4.87s4.86,2.18,4.86,4.86h0s4.56.01,4.56.01h0c0-2.69,2.18-4.87,4.86-4.87s4.86,2.18,4.86,4.86h0s4.56.01,4.56.01h0c0-2.69,2.18-4.87,4.86-4.87s4.86,2.18,4.86,4.86h0s3.28.01,3.28.01h0c0-2.69,2.17-4.87,4.85-4.87s4.86,2.18,4.86,4.86h0s6.5.01,6.5.01v-3.92c-2.69,0-4.86-2.18-4.86-4.86s2.17-4.86,4.86-4.86v-4.56c-2.69,0-4.86-2.18-4.86-4.86s2.17-4.86,4.86-4.86v-4.57c-2.69,0-4.86-2.17-4.86-4.85s2.17-4.86,4.86-4.86v-4.57c-2.69,0-4.86-2.17-4.86-4.86s2.17-4.86,4.86-4.86v-4.56c-2.69,0-4.86-2.18-4.86-4.86s2.17-4.86,4.86-4.86v-3.39c-2.69,0-4.86-2.18-4.86-4.86s2.17-4.86,4.86-4.86v-4.56c-2.69,0-4.86-2.18-4.86-4.86s2.17-4.86,4.86-4.86v-4.56c-2.69,0-4.86-2.18-4.86-4.86s2.17-4.86,4.86-4.86v-4.57c-2.69,0-4.86-2.17-4.86-4.86s2.17-4.85,4.86-4.85Z"/>
      <path class="cls-3" d="M306.36,24.39v81.88c0,6.6-4,12-8.9,12H76.87V12.39h220.58c4.89,0,8.9,5.4,8.9,12Z"/>
      <path class="cls-3" d="M24.98,12.39h45.73v105.88H24.98c-5.77,0-10.48-5.4-10.48-12V24.39c0-6.6,4.72-12,10.48-12Z"/>
      <g>
        <path class="cls-5" d="M34.8,88.44l11.88-6.21c-1.77.3-3.57.48-5.49.48h-6.39v-5.16h21v4.68l-11.88,6.24c1.77-.33,3.54-.51,5.49-.51h6.39v5.19h-21v-4.71Z"/>
        <path class="cls-5" d="M45.3,75.3c-6.51,0-10.92-2.55-10.92-8.49s4.41-8.49,10.92-8.49,10.92,2.55,10.92,8.49-4.44,8.49-10.92,8.49ZM45.3,63.69c-3.9,0-5.79.96-5.79,3.12s1.89,3.09,5.79,3.09,5.79-.96,5.79-3.09-1.89-3.12-5.79-3.12Z"/>
        <path class="cls-5" d="M53.49,57.3c-1.86,0-2.67-1.35-2.67-2.7s.81-2.73,2.67-2.73,2.7,1.35,2.7,2.73-.84,2.7-2.7,2.7Z"/>
        <path class="cls-5" d="M41.25,33.69c2.52,0,4.08,1.14,5.46,2.58,1.83,1.89,3.09,4.17,4.17,4.2v-6.81h4.92v12.81h-3c-4.11,0-5.94-2.46-7.59-4.5-1.35-1.65-2.37-2.88-3.69-2.88-.96,0-1.53.84-1.53,1.89,0,1.41.54,3.06,1.71,4.92h-5.19c-1.05-1.92-1.53-3.69-1.53-5.76,0-3.39,2.07-6.45,6.27-6.45Z"/>
      </g>
      <rect class="cls-2" x="13.79" y="12.38" width="292.57" height="105.88" rx="12" ry="12"/>
      <g>
        <path class="cls-5" d="M129.35,86.34h6.51c1.18,0,2.02.25,2.51.75.49.5.74,1.17.74,1.99v1.81c0,.58-.07,1.08-.21,1.5-.14.43-.42.76-.85,1,.43.19.71.48.85.86.14.38.21.86.21,1.42v2.12c0,.83-.25,1.49-.74,1.99-.49.5-1.33.75-2.51.75h-6.51v-14.21ZM135.3,91.67v-2.3c0-.16-.04-.28-.13-.37s-.23-.12-.42-.12h-1.59v3.28h1.59c.19,0,.33-.04.42-.12s.13-.2.13-.37ZM135.3,97.51v-2.32c0-.16-.04-.28-.13-.37s-.23-.12-.42-.12h-1.59v3.3h1.59c.19,0,.33-.04.42-.12s.13-.2.13-.37Z"/>
        <path class="cls-5" d="M144.64,86.34v10.95c0,.16.04.28.13.37.09.08.23.12.42.12h.73v2.77h-1.9c-1.18,0-2.02-.25-2.51-.75s-.74-1.17-.74-1.99v-11.46h3.87ZM146.67,97.29v-10.95h3.87v11.46c0,.83-.25,1.49-.74,1.99s-1.33.75-2.51.75h-1.9v-2.77h.73c.19,0,.33-.04.42-.12.09-.08.13-.2.13-.37Z"/>
        <path class="cls-5" d="M158.96,96.58h-3.34l-4.18-10.25h3.96l1.86,6,1.73-6h3.94l-3.96,10.25ZM155.35,94.53h3.87v6.02h-3.87v-6.02Z"/>
        <path class="cls-5" d="M171.77,89.59v1.39h-3.87v-1.9c0-.83.25-1.49.74-1.99.49-.5,1.33-.75,2.51-.75h2.72c1.18,0,2.02.25,2.51.75.49.5.74,1.17.74,1.99v1.73c0,.58-.07,1.08-.21,1.5-.14.43-.42.76-.85,1,.43.19.71.48.85.86.14.38.21.86.21,1.42v2.21c0,.83-.25,1.49-.74,1.99-.5.5-1.33.75-2.51.75h-2.72c-1.18,0-2.02-.25-2.51-.75s-.74-1.17-.74-1.99v-1.9h3.87v1.39c0,.16.04.28.13.37.09.08.23.12.42.12h.44c.19,0,.33-.04.42-.12s.13-.2.13-.37v-2.19c0-.16-.04-.28-.13-.36s-.23-.12-.42-.12h-1.79v-2.54h1.79c.19,0,.33-.04.42-.12s.13-.2.13-.37v-1.99c0-.16-.04-.28-.13-.37s-.23-.12-.42-.12h-.44c-.19,0-.33.04-.42.12-.09.08-.13.2-.13.37Z"/>
        <path class="cls-5" d="M187.79,93.37c0-.75.21-1.36.63-1.81s1.1-.69,2.05-.69h.35c.52,0,.93.11,1.23.34.3.23.5.54.61.94v-1.28h2.99v5.6h.97c.19,0,.33-.04.42-.12.09-.08.13-.2.13-.37v-6.09c0-.16-.04-.28-.13-.37-.09-.08-.23-.12-.42-.12h-9.54c-.19,0-.33.04-.42.12-.09.08-.13.2-.13.37v9.91c0,.16.04.28.13.37.09.08.23.12.42.12h8.59v2.54h-9.52c-1.05,0-1.8-.25-2.26-.75-.46-.5-.69-1.17-.69-1.99v-10.49c0-.83.23-1.49.69-1.99.46-.5,1.21-.75,2.26-.75h11.35c1.05,0,1.79.25,2.23.75.44.5.66,1.17.66,1.99v6.42c0,.83-.23,1.49-.69,1.99-.46.5-1.21.75-2.26.75h-4.78v-1.35c-.09.41-.28.74-.59.98-.3.24-.73.37-1.27.37h-.35c-.94,0-1.63-.23-2.05-.69s-.63-1.06-.63-1.81v-2.9ZM191.02,93.64v2.37c0,.15.04.26.12.33.08.07.2.11.37.11h.55c.18,0,.31-.05.4-.14.09-.1.13-.25.13-.45v-2.06c0-.21-.04-.36-.13-.45-.09-.1-.22-.14-.4-.14h-.55c-.16,0-.28.03-.37.1s-.12.18-.12.34Z"/>
        <path class="cls-5" d="M215.06,86.34v2.19h-8.32v-2.19h8.32ZM211.98,88.11c.43,0,.75.04.95.11.21.07.34.22.41.45.07.23.1.59.1,1.07v3.28c0,1.05-.27,1.78-.82,2.2-.55.42-1.52.62-2.92.61h-.46l.88-.86,3.76,5.58h-3.98l-3.17-4.71v-2.5h2.43c.16,0,.29-.04.38-.11.09-.07.13-.21.13-.42v-3.78c0-.16-.04-.28-.13-.37-.09-.08-.23-.12-.42-.12l2.85-.42ZM215.06,89.83v2.19h-8.32v-2.19h8.32Z"/>
        <path class="cls-5" d="M220.32,89.59v1.62h-3.87v-2.12c0-.83.25-1.49.74-1.99.49-.5,1.33-.75,2.51-.75h2.68c1.18,0,2.02.25,2.53.75.51.5.76,1.17.76,1.99v2.04c0,.77-.13,1.42-.39,1.95-.26.53-.65,1.08-1.16,1.64l-2.74,3.08h4.29v2.77h-9.12v-2.52l4.2-4.51c.44-.47.74-.87.89-1.2.15-.32.22-.73.22-1.22v-1.5c0-.16-.04-.28-.13-.37-.09-.08-.23-.12-.42-.12h-.44c-.19,0-.33.04-.42.12-.09.08-.13.2-.13.37Z"/>
        <path class="cls-5" d="M230.7,89.59v1.62h-3.87v-2.12c0-.83.25-1.49.74-1.99.49-.5,1.33-.75,2.51-.75h2.68c1.18,0,2.02.25,2.53.75.51.5.76,1.17.76,1.99v2.04c0,.77-.13,1.42-.39,1.95-.26.53-.65,1.08-1.16,1.64l-2.74,3.08h4.29v2.77h-9.12v-2.52l4.2-4.51c.44-.47.74-.87.89-1.2.15-.32.22-.73.22-1.22v-1.5c0-.16-.04-.28-.13-.37-.09-.08-.23-.12-.42-.12h-.44c-.19,0-.33.04-.42.12s-.13.2-.13.37Z"/>
        <path class="cls-5" d="M241.13,89.59v2.46c0,.16.04.28.13.37.09.08.23.12.42.12h2.32v2.54h-3.39c-1.18,0-2.02-.25-2.51-.75-.49-.5-.74-1.17-.74-1.99v-3.25c0-.83.25-1.49.74-1.99.49-.5,1.33-.75,2.51-.75h1.57v2.77h-.51c-.19,0-.33.04-.42.12-.09.08-.13.2-.13.37ZM241.3,96.32v.97c0,.16.04.28.13.37.09.08.23.12.42.12h.46v2.77h-1.53c-1.18,0-2.02-.25-2.51-.75s-.74-1.17-.74-1.99v-1.48h3.76ZM243.05,97.29v-7.7c0-.16-.04-.28-.13-.37s-.23-.12-.42-.12h-.51v-2.77h1.57c1.18,0,2.02.25,2.51.75.49.5.74,1.17.74,1.99v8.72c0,.83-.25,1.49-.74,1.99s-1.33.75-2.51.75h-1.57v-2.77h.51c.19,0,.33-.04.42-.12s.13-.2.13-.37Z"/>
        <path class="cls-5" d="M252.06,89.59v2.46c0,.16.04.28.13.37.09.08.23.12.42.12h2.32v2.54h-3.39c-1.18,0-2.02-.25-2.51-.75-.49-.5-.74-1.17-.74-1.99v-3.25c0-.83.25-1.49.74-1.99.49-.5,1.33-.75,2.51-.75h1.57v2.77h-.51c-.19,0-.33.04-.42.12-.09.08-.13.2-.13.37ZM252.24,96.32v.97c0,.16.04.28.13.37.09.08.23.12.42.12h.46v2.77h-1.53c-1.18,0-2.02-.25-2.51-.75s-.74-1.17-.74-1.99v-1.48h3.76ZM253.98,97.29v-7.7c0-.16-.04-.28-.13-.37s-.23-.12-.42-.12h-.51v-2.77h1.57c1.18,0,2.02.25,2.51.75.49.5.74,1.17.74,1.99v8.72c0,.83-.25,1.49-.74,1.99s-1.33.75-2.51.75h-1.57v-2.77h.51c.19,0,.33-.04.42-.12s.13-.2.13-.37Z"/>
      </g>
      <g>
        <path class="cls-5" d="M138.69,45.09c0,2.94-1.4,4.52-2.7,5.29,1.65.77,3.57,2.7,3.57,6.02,0,5-4.2,6.93-8.19,6.93h-9.84v-24.5h10.05c4.27,0,7.11,2.35,7.11,6.27ZM127.59,48.55h2.91c1.36,0,2.27-.88,2.27-2.35,0-1.65-.91-2.38-2.42-2.38h-2.77v4.73ZM127.59,58.25h3.01c1.44,0,2.8-.56,2.8-2.52s-1.33-2.52-2.7-2.52h-3.12v5.04Z"/>
        <path class="cls-5" d="M151.04,38.82c4.73,0,8.65,2.7,8.65,8.26,0,3.5-1.4,5.95-3.78,7.21l4.59,9.03h-6.55l-3.89-7.98h-2.06v7.98h-6.06v-24.5h9.1ZM153.63,47.19c0-1.79-1.12-2.77-2.83-2.77h-2.8v5.53h2.8c1.71,0,2.83-.98,2.83-2.77Z"/>
        <path class="cls-5" d="M161.47,51.07c0-7.6,2.98-12.74,9.91-12.74s9.91,5.15,9.91,12.74-2.98,12.74-9.91,12.74-9.91-5.18-9.91-12.74ZM175.02,51.07c0-4.55-1.12-6.76-3.64-6.76s-3.61,2.21-3.61,6.76,1.12,6.76,3.61,6.76,3.64-2.21,3.64-6.76Z"/>
        <path class="cls-5" d="M198.33,57.58v5.74h-14.42v-24.5h6.06v18.76h8.37Z"/>
        <path class="cls-5" d="M198.92,51.07c0-7.6,2.98-12.74,9.91-12.74s9.91,5.15,9.91,12.74-2.97,12.74-9.91,12.74-9.91-5.18-9.91-12.74ZM212.47,51.07c0-4.55-1.12-6.76-3.64-6.76s-3.61,2.21-3.61,6.76,1.12,6.76,3.61,6.76,3.64-2.21,3.64-6.76Z"/>
        <path class="cls-5" d="M225.28,38.82l3.12,12.85c.35,1.58.63,3.25.91,5.25.25-2,.52-3.67.88-5.25l3.12-12.85h6.44l-7.14,24.5h-6.62l-7.14-24.5h6.44Z"/>
        <path class="cls-5" d="M255.9,38.82v5.39h-8.4v4.17h7.6v5.25h-7.6v4.24h8.61v5.46h-14.67v-24.5h14.46Z"/>
      </g>
      <rect class="cls-1" x="90.73" y="29.26" width="196.41" height="43.54" rx="5.88" ry="5.88"/>
      <path class="cls-4" d="M292.14,62.33c-.36-.63-.93-1.06-1.52-1.23-.47-.13-.96-.09-1.38.15l-1.26-2.2c.78-1.55,2.52-5.03,2.84-5.58.41-.71-.32-1.55-.32-1.55l-3.3,5.76-3.3-5.76s-.73.84-.32,1.55c.31.55,2.06,4.03,2.84,5.58l-1.26,2.2c-.42-.24-.91-.28-1.38-.15-.6.16-1.16.59-1.52,1.23-.65,1.14-.4,2.51.55,3.06.42.24.92.28,1.39.15.6-.16,1.16-.59,1.52-1.22.16-.28.26-.57.32-.86h0s0,0,0,0c0-.02,0-.05,0-.07.27-1.81.78-2.73,1.14-3.18.36.45.87,1.37,1.14,3.18,0,.03,0,.05,0,.07,0,0,0,0,0,0h0c.05.29.16.58.32.86.36.63.93,1.06,1.52,1.22.47.13.97.09,1.39-.15.96-.55,1.21-1.92.55-3.06ZM284.79,63.78c-.21.36-.53.63-.87.72-.15.04-.37.07-.58-.05-.43-.25-.51-.98-.15-1.59.21-.36.53-.63.87-.72.15-.04.37-.07.58.05.43.25.51.98.15,1.59ZM291.05,64.45c-.2.12-.42.09-.58.05-.34-.09-.67-.36-.87-.72-.35-.61-.28-1.34.15-1.59.2-.12.43-.09.58-.05.35.09.66.36.87.72.35.61.28,1.34-.15,1.59Z"/>
    </g>
  </g>
</svg>