<?xml version="1.0" encoding="UTF-8"?>
<svg id="Layer_2" data-name="Layer 2" xmlns="http://www.w3.org/2000/svg" xmlns:xlink="http://www.w3.org/1999/xlink" viewBox="0 0 200 137.48">
  <defs>
    <style>
      .cls-1 {
        fill: #ffd232;
      }

      .cls-1, .cls-2 {
        fill-rule: evenodd;
      }

      .cls-3, .cls-4, .cls-5 {
        fill: none;
      }

      .cls-4 {
        stroke: rgba(255, 206, 240, .6);
        stroke-linecap: round;
        stroke-width: 8px;
      }

      .cls-2 {
        fill: #ffb6e9;
      }

      .cls-5 {
        clip-rule: evenodd;
      }

      .cls-6 {
        clip-path: url(#clippath);
      }
    </style>
    <clipPath id="clippath">
      <path class="cls-5" d="M200,12v76c-6.63,0-12,5.37-12,12H12c0-6.63-5.37-12-12-12V12c6.63,0,12-5.37,12-12h176c0,6.63,5.37,12,12,12Z"/>
    </clipPath>
  </defs>
  <g id="Layer_1-2" data-name="Layer 1">
    <path class="cls-1" d="M188,100H12c0,6.63-5.37,12-12,12v21.5c0,2.2,1.78,3.98,3.98,3.98h17.5c.46-1.71,2.01-2.98,3.87-2.98s3.41,1.27,3.87,2.98h3.8c.46-1.71,2.01-2.98,3.87-2.98s3.41,1.27,3.87,2.98h3.8c.46-1.71,2.01-2.98,3.87-2.98s3.41,1.27,3.87,2.98h3.8c.46-1.71,2.01-2.98,3.87-2.98s3.41,1.27,3.87,2.98h3.8c.46-1.71,2.01-2.98,3.87-2.98s3.41,1.27,3.87,2.98h3.8c.46-1.71,2.01-2.98,3.87-2.98s3.41,1.27,3.87,2.98h3.8c.46-1.71,2.01-2.98,3.87-2.98s3.41,1.27,3.87,2.98h3.8c.46-1.71,2.01-2.98,3.87-2.98s3.41,1.27,3.87,2.98h3.8c.46-1.71,2.01-2.98,3.87-2.98s3.41,1.27,3.87,2.98h3.8c.46-1.71,2.01-2.98,3.87-2.98s3.41,1.27,3.87,2.98h3.8c.46-1.71,2.01-2.98,3.87-2.98s3.41,1.27,3.87,2.98h3.8c.46-1.71,2.01-2.98,3.87-2.98s3.41,1.27,3.87,2.98h3.8c.46-1.71,2.01-2.98,3.87-2.98s3.41,1.27,3.87,2.98h3.8c.46-1.71,2.01-2.98,3.87-2.98s3.41,1.27,3.87,2.98h16.74c2.2,0,3.98-1.78,3.98-3.98v-21.5c-6.63,0-12-5.37-12-12Z"/>
    <path class="cls-2" d="M200,12.09v76c-6.63,0-12,5.37-12,12H12c0-6.63-5.37-12-12-12V12.09C6.63,12.09,12,6.72,12,.09h176c0,6.63,5.37,12,12,12Z"/>
    <path class="cls-3" d="M200,0v88c-6.63,0-12,5.37-12,12H12c0-6.63-5.37-12-12-12V0h200Z"/>
    <g class="cls-6">
      <path class="cls-4" d="M-74.48-98.92c41.97,10.99,91.01,18.29,129.13,45.96,8.13,5.9,18.35,17.22,8.21,24.91-11.77,8.92-27.98,10.87-38.11,22.73-12.85,15.03,27.4,29.35,35.52,33.33,21.79,10.69,47.14,15.86,67.76,29.56,13.06,8.68,13.39,24.55,1.61,32.29-11.64,7.64-26.27,8.13-39.26,12.15-12.02,3.72-20.81,8.93-29.04,18.68"/>
      <path class="cls-4" d="M19.44,101.7C44.58,66.34,68.77,23.06,108.15-2.79c8.4-5.51,22.6-11.06,26.2,1.14,4.18,14.17.26,30.02,7.76,43.69,9.51,17.34,37.15-15.23,43.75-21.41,17.71-16.6,31.52-38.47,51.64-52.9,12.74-9.14,27.7-3.83,30.76,9.93,3.02,13.59-1.7,27.45-2.54,41.02-.78,12.56.98,22.62,7.19,33.77"/>
    </g>
    <g>
      <path d="M37.36,113.78v-3.63h10.89v3.63h-3.54v11.87h-3.81v-11.87h-3.54Z"/>
      <path d="M49.59,125.65v-15.5h3.83v15.5h-3.83Z"/>
      <path d="M64.73,110.15v3.41h-5.31v2.63h4.8v3.32h-4.8v2.68h5.45v3.45h-9.28v-15.5h9.14Z"/>
      <path d="M78.29,117.9c0,4.34-1.75,7.75-6.6,7.75h-5.07v-15.5h5.07c4.85,0,6.6,3.41,6.6,7.75ZM70.45,122.02h1.24c1.86,0,2.77-1.13,2.77-4.12s-.91-4.12-2.77-4.12h-1.24v8.24Z"/>
      <path d="M90.78,114.11c0,1.86-.89,2.86-1.7,3.34,1.04.49,2.26,1.71,2.26,3.81,0,3.17-2.66,4.38-5.18,4.38h-6.22v-15.5h6.35c2.7,0,4.49,1.48,4.49,3.96ZM83.76,116.3h1.84c.86,0,1.44-.55,1.44-1.48,0-1.04-.58-1.5-1.53-1.5h-1.75v2.99ZM83.76,122.44h1.9c.91,0,1.77-.35,1.77-1.59s-.84-1.59-1.7-1.59h-1.97v3.19Z"/>
      <path d="M90.91,110.15h4.16l2.37,5.82,2.35-5.82h4.18l-4.63,9.63v5.87h-3.81v-5.87l-4.63-9.63Z"/>
      <path d="M110.78,110.15c2.99,0,5.47,1.7,5.47,5.22,0,2.21-.89,3.76-2.39,4.56l2.9,5.71h-4.14l-2.46-5.05h-1.31v5.05h-3.83v-15.5h5.76ZM112.42,115.44c0-1.13-.71-1.75-1.79-1.75h-1.77v3.5h1.77c1.08,0,1.79-.62,1.79-1.75Z"/>
      <path d="M125.62,110.15l4.92,15.5h-3.99l-.64-2.33h-4.41l-.64,2.33h-4.01l4.92-15.5h3.85ZM124.38,117.52c-.27-1.02-.51-2.1-.69-3.34-.18,1.24-.4,2.33-.66,3.34l-.75,2.66h2.83l-.73-2.66Z"/>
      <path d="M135.36,110.15v6.07h.95l2.55-6.07h4.43l-3.65,7.75,3.79,7.75h-4.43l-2.66-6.04h-.97v6.04h-3.83v-15.5h3.83Z"/>
      <path d="M151.79,125.65v-5.93h-3.56v5.93h-3.83v-15.5h3.83v5.93h3.56v-5.93h3.81v15.5h-3.81Z"/>
      <path d="M157.8,125.65v-15.5h3.83v15.5h-3.83Z"/>
    </g>
    <g>
      <path d="M37.12,29.91h6.51c1.18,0,2.02.25,2.51.75.49.5.74,1.17.74,1.99v1.81c0,.58-.07,1.08-.21,1.5-.14.43-.42.76-.85,1,.43.19.71.48.85.86.14.38.21.86.21,1.42v2.12c0,.83-.25,1.49-.74,1.99-.49.5-1.33.75-2.51.75h-6.51v-14.21ZM43.07,35.24v-2.3c0-.16-.04-.28-.13-.37s-.23-.12-.42-.12h-1.59v3.28h1.59c.19,0,.33-.04.42-.12.09-.08.13-.2.13-.37ZM43.07,41.08v-2.32c0-.16-.04-.28-.13-.37s-.23-.12-.42-.12h-1.59v3.3h1.59c.19,0,.33-.04.42-.12s.13-.2.13-.37Z"/>
      <path d="M52.41,29.91v10.95c0,.16.04.28.13.37.09.08.23.12.42.12h.73v2.77h-1.9c-1.18,0-2.02-.25-2.51-.75-.49-.5-.74-1.17-.74-1.99v-11.46h3.87ZM54.44,40.86v-10.95h3.87v11.46c0,.83-.25,1.49-.74,1.99-.49.5-1.33.75-2.51.75h-1.9v-2.77h.73c.19,0,.33-.04.42-.12.09-.08.13-.2.13-.37Z"/>
      <path d="M66.73,40.15h-3.34l-4.18-10.25h3.96l1.86,6,1.73-6h3.94l-3.96,10.25ZM63.12,38.09h3.87v6.02h-3.87v-6.02Z"/>
      <path d="M79.5,33.16v1.62h-3.87v-2.12c0-.83.25-1.49.74-1.99.49-.5,1.33-.75,2.51-.75h2.68c1.18,0,2.02.25,2.53.75.51.5.76,1.17.76,1.99v2.04c0,.77-.13,1.42-.39,1.95-.26.53-.65,1.08-1.16,1.64l-2.74,3.08h4.29v2.77h-9.12v-2.52l4.2-4.51c.44-.47.74-.87.89-1.19.15-.32.22-.73.22-1.22v-1.5c0-.16-.04-.28-.13-.37-.09-.08-.23-.12-.42-.12h-.44c-.19,0-.33.04-.42.12-.09.08-.13.2-.13.37Z"/>
      <path d="M95.39,36.94c0-.75.21-1.36.63-1.81.42-.46,1.1-.69,2.05-.69h.35c.52,0,.93.11,1.23.34.3.23.5.54.61.94v-1.28h2.99v5.6h.97c.19,0,.33-.04.42-.12.09-.08.13-.2.13-.37v-6.09c0-.16-.04-.28-.13-.37-.09-.08-.23-.12-.42-.12h-9.54c-.19,0-.33.04-.42.12-.09.08-.13.2-.13.37v9.91c0,.16.04.28.13.37.09.08.23.12.42.12h8.59v2.55h-9.52c-1.05,0-1.8-.25-2.26-.75-.46-.5-.69-1.17-.69-1.99v-10.49c0-.83.23-1.49.69-1.99.46-.5,1.21-.75,2.26-.75h11.35c1.05,0,1.79.25,2.24.75.44.5.66,1.17.66,1.99v6.42c0,.83-.23,1.49-.69,1.99-.46.5-1.21.75-2.26.75h-4.78v-1.35c-.09.41-.28.74-.59.98-.3.24-.73.37-1.27.37h-.35c-.94,0-1.63-.23-2.05-.69-.42-.46-.63-1.06-.63-1.81v-2.9ZM98.62,37.21v2.37c0,.15.04.26.12.33s.2.11.37.11h.55c.18,0,.31-.05.4-.14.09-.1.13-.25.13-.45v-2.06c0-.21-.04-.36-.13-.45-.09-.1-.22-.14-.4-.14h-.55c-.16,0-.28.03-.37.1s-.12.18-.12.34Z"/>
      <path d="M122.65,29.91v2.19h-8.32v-2.19h8.32ZM119.57,31.68c.43,0,.74.04.95.11.21.07.34.23.41.45.07.23.1.59.1,1.07v3.28c0,1.05-.27,1.78-.82,2.2-.55.42-1.52.62-2.92.61h-.46l.89-.86,3.76,5.58h-3.98l-3.16-4.71v-2.5h2.43c.16,0,.29-.04.38-.11.09-.07.13-.21.13-.42v-3.78c0-.16-.04-.28-.13-.37-.09-.08-.23-.12-.42-.12l2.86-.42ZM122.65,33.4v2.19h-8.32v-2.19h8.32Z"/>
      <path d="M128.49,29.91v2.77h-4.56v-2.77h4.56ZM125.93,29.91h3.87v14.21h-3.87v-14.21Z"/>
      <path d="M130.9,41.57v-3.43l5.33-8.23h3.9l-7.52,11.66h-1.7ZM131.94,41.57v-2.81h9.96v2.81h-9.96ZM136.77,35.95h3.63v8.17h-3.63v-8.17Z"/>
      <path d="M146.33,33.16v2.46c0,.16.04.28.13.37.09.08.23.12.42.12h2.32v2.54h-3.39c-1.18,0-2.02-.25-2.51-.75-.49-.5-.74-1.17-.74-1.99v-3.25c0-.83.25-1.49.74-1.99.49-.5,1.33-.75,2.51-.75h1.57v2.77h-.51c-.19,0-.33.04-.42.12-.09.08-.13.2-.13.37ZM146.51,39.89v.97c0,.16.04.28.13.37.09.08.23.12.42.12h.46v2.77h-1.53c-1.18,0-2.02-.25-2.51-.75-.49-.5-.74-1.17-.74-1.99v-1.48h3.76ZM148.25,40.86v-7.7c0-.16-.04-.28-.13-.37-.09-.08-.23-.12-.42-.12h-.51v-2.77h1.57c1.18,0,2.02.25,2.51.75.49.5.74,1.17.74,1.99v8.72c0,.83-.25,1.49-.74,1.99-.49.5-1.33.75-2.51.75h-1.57v-2.77h.51c.19,0,.33-.04.42-.12.09-.08.13-.2.13-.37Z"/>
      <path d="M157.26,33.16v2.46c0,.16.04.28.13.37.09.08.23.12.42.12h2.32v2.54h-3.39c-1.18,0-2.02-.25-2.51-.75-.49-.5-.74-1.17-.74-1.99v-3.25c0-.83.25-1.49.74-1.99.49-.5,1.33-.75,2.51-.75h1.57v2.77h-.51c-.19,0-.33.04-.42.12-.09.08-.13.2-.13.37ZM157.44,39.89v.97c0,.16.04.28.13.37.09.08.23.12.42.12h.46v2.77h-1.53c-1.18,0-2.02-.25-2.51-.75-.49-.5-.74-1.17-.74-1.99v-1.48h3.76ZM159.19,40.86v-7.7c0-.16-.04-.28-.13-.37-.09-.08-.23-.12-.42-.12h-.51v-2.77h1.57c1.18,0,2.02.25,2.51.75.49.5.74,1.17.74,1.99v8.72c0,.83-.25,1.49-.74,1.99-.49.5-1.33.75-2.51.75h-1.57v-2.77h.51c.19,0,.33-.04.42-.12.09-.08.13-.2.13-.37Z"/>
    </g>
    <g>
      <path d="M49.05,57.61l-.83,2.54h-1.08l2.75-8.08h1.26l2.76,8.08h-1.12l-.87-2.54h-2.87ZM51.7,56.8l-.8-2.33c-.18-.53-.3-1.01-.42-1.47h-.03c-.12.47-.24.97-.4,1.46l-.8,2.34h2.44Z"/>
      <path d="M55.08,52.18c.64-.1,1.4-.17,2.22-.17,1.5,0,2.57.35,3.27,1.01.72.66,1.14,1.59,1.14,2.89s-.41,2.4-1.16,3.14c-.76.75-2.01,1.17-3.58,1.17-.75,0-1.37-.03-1.9-.09v-7.95ZM56.13,59.33c.27.04.65.05,1.05.05,2.24,0,3.44-1.24,3.44-3.43.01-1.91-1.07-3.11-3.27-3.11-.54,0-.94.05-1.22.11v6.38Z"/>
      <path d="M63.07,52.18c.64-.1,1.4-.17,2.22-.17,1.5,0,2.57.35,3.27,1.01.72.66,1.14,1.59,1.14,2.89s-.41,2.4-1.16,3.14c-.76.75-2.01,1.17-3.58,1.17-.75,0-1.37-.03-1.9-.09v-7.95ZM64.12,59.33c.27.04.65.05,1.05.05,2.24,0,3.44-1.24,3.44-3.43.01-1.91-1.07-3.11-3.27-3.11-.54,0-.94.05-1.22.11v6.38Z"/>
      <path d="M74.66,52.95h-2.46v-.88h5.99v.88h-2.47v7.2h-1.05v-7.2Z"/>
      <path d="M85.67,56.03c0,2.77-1.69,4.25-3.75,4.25s-3.63-1.66-3.63-4.1,1.59-4.25,3.74-4.25,3.64,1.69,3.64,4.09ZM79.39,56.16c0,1.73.94,3.28,2.59,3.28s2.59-1.52,2.59-3.36c0-1.61-.84-3.29-2.58-3.29s-2.6,1.6-2.6,3.37Z"/>
      <path d="M95.22,59.9c-.38.19-1.15.39-2.14.39-2.28,0-3.98-1.44-3.98-4.09s1.71-4.24,4.22-4.24c1,0,1.64.21,1.92.36l-.26.85c-.39-.19-.95-.33-1.63-.33-1.9,0-3.15,1.21-3.15,3.33,0,1.98,1.14,3.24,3.1,3.24.64,0,1.29-.13,1.71-.33l.21.83Z"/>
      <path d="M97.89,57.61l-.83,2.54h-1.08l2.75-8.08h1.26l2.76,8.08h-1.12l-.87-2.54h-2.87ZM100.54,56.8l-.8-2.33c-.18-.53-.3-1.01-.42-1.47h-.03c-.12.47-.24.97-.4,1.46l-.8,2.34h2.44Z"/>
      <path d="M103.92,52.18c.53-.11,1.29-.17,2.01-.17,1.11,0,1.84.21,2.34.67.4.35.63.9.63,1.54,0,1.06-.68,1.77-1.52,2.06v.03c.62.22.99.8,1.19,1.64.27,1.13.46,1.9.62,2.22h-1.08c-.13-.23-.31-.92-.53-1.94-.24-1.11-.68-1.54-1.62-1.57h-.99v3.5h-1.04v-7.97ZM104.96,55.86h1.07c1.12,0,1.83-.61,1.83-1.54,0-1.05-.76-1.51-1.86-1.51-.51,0-.86.05-1.03.09v2.95Z"/>
      <path d="M112.03,52.95h-2.46v-.88h5.99v.88h-2.47v7.2h-1.05v-7.2Z"/>
      <path d="M120.3,57.61l-.83,2.54h-1.08l2.75-8.08h1.26l2.76,8.08h-1.12l-.87-2.54h-2.87ZM122.96,56.8l-.8-2.33c-.18-.53-.3-1.01-.42-1.47h-.03c-.12.47-.24.97-.4,1.46l-.8,2.34h2.44Z"/>
      <path d="M126.33,60.16v-8.08h1.15l2.59,4.09c.59.95,1.06,1.8,1.44,2.63h.03c-.09-1.09-.11-2.08-.11-3.33v-3.39h.98v8.08h-1.06l-2.57-4.1c-.56-.91-1.1-1.83-1.5-2.71h-.04c.06,1.04.08,2.01.08,3.35v3.46h-.98Z"/>
      <path d="M135.95,60.16v-3.43l-2.56-4.66h1.2l1.13,2.23c.31.61.56,1.1.8,1.67h.02c.22-.53.5-1.06.81-1.67l1.17-2.23h1.18l-2.71,4.64v3.44h-1.05Z"/>
      <path d="M142.81,60.16v-.64l.83-.8c1.99-1.9,2.9-2.91,2.9-4.09,0-.79-.38-1.53-1.54-1.53-.71,0-1.3.37-1.66.66l-.34-.74c.53-.45,1.31-.79,2.21-.79,1.68,0,2.38,1.15,2.38,2.26,0,1.45-1.04,2.61-2.68,4.19l-.62.58v.02h3.49v.87h-4.98Z"/>
      <path d="M57.65,63.17c.5-.09,1.16-.16,2.01-.16,1.02,0,1.78.24,2.27.67.44.39.71.97.71,1.69s-.22,1.31-.63,1.73c-.56.59-1.45.89-2.47.89-.32,0-.6-.01-.84-.08v3.24h-1.04v-7.99ZM58.69,67.06c.23.07.52.09.87.09,1.27,0,2.03-.62,2.03-1.73s-.76-1.59-1.91-1.59c-.46,0-.8.04-.99.08v3.15Z"/>
      <path d="M64.03,63.18c.53-.11,1.29-.17,2.01-.17,1.11,0,1.84.21,2.34.67.4.35.63.9.63,1.54,0,1.06-.68,1.77-1.52,2.06v.03c.62.22.99.8,1.19,1.64.27,1.13.46,1.9.62,2.22h-1.08c-.13-.23-.31-.92-.53-1.94-.24-1.11-.68-1.54-1.62-1.57h-.99v3.5h-1.04v-7.97ZM65.07,66.86h1.07c1.12,0,1.83-.61,1.83-1.54,0-1.05-.76-1.51-1.86-1.51-.51,0-.86.05-1.03.09v2.95Z"/>
      <path d="M77.44,67.03c0,2.77-1.69,4.25-3.75,4.25s-3.63-1.66-3.63-4.1,1.59-4.25,3.74-4.25,3.64,1.69,3.64,4.09ZM71.16,67.16c0,1.73.94,3.28,2.59,3.28s2.59-1.52,2.59-3.36c0-1.61-.84-3.29-2.58-3.29s-2.6,1.6-2.6,3.37Z"/>
      <path d="M78.79,63.18c.64-.1,1.4-.17,2.22-.17,1.5,0,2.57.35,3.27,1.02.72.65,1.14,1.59,1.14,2.89s-.41,2.4-1.16,3.15c-.76.75-2.01,1.17-3.58,1.17-.75,0-1.37-.03-1.9-.09v-7.95ZM79.84,70.33c.27.04.65.05,1.05.05,2.24,0,3.44-1.24,3.44-3.43.01-1.91-1.07-3.11-3.27-3.11-.54,0-.94.05-1.22.11v6.39Z"/>
      <path d="M87.83,63.07v4.79c0,1.8.8,2.57,1.89,2.57,1.19,0,1.97-.79,1.97-2.57v-4.79h1.05v4.72c0,2.49-1.31,3.5-3.06,3.5-1.65,0-2.9-.94-2.9-3.45v-4.76h1.05Z"/>
      <path d="M100.2,70.9c-.38.19-1.15.39-2.14.39-2.28,0-3.98-1.44-3.98-4.09s1.71-4.24,4.22-4.24c1,0,1.64.21,1.92.36l-.26.85c-.39-.19-.95-.33-1.63-.33-1.9,0-3.15,1.21-3.15,3.33,0,1.98,1.14,3.24,3.1,3.24.64,0,1.29-.13,1.71-.33l.21.83Z"/>
      <path d="M103.39,63.95h-2.46v-.88h5.99v.88h-2.47v7.2h-1.05v-7.2Z"/>
      <path d="M107.6,69.88c.47.29,1.15.52,1.87.52,1.07,0,1.7-.56,1.7-1.38,0-.75-.44-1.19-1.53-1.6-1.32-.47-2.14-1.16-2.14-2.29,0-1.26,1.05-2.19,2.62-2.19.82,0,1.43.19,1.78.39l-.29.86c-.26-.15-.8-.38-1.53-.38-1.11,0-1.53.66-1.53,1.21,0,.75.49,1.12,1.61,1.55,1.37.54,2.06,1.2,2.06,2.38s-.91,2.33-2.83,2.33c-.78,0-1.63-.24-2.07-.53l.27-.87Z"/>
      <path d="M117.51,68.61l-.83,2.54h-1.08l2.75-8.08h1.26l2.76,8.08h-1.12l-.87-2.54h-2.87ZM120.16,67.8l-.8-2.33c-.18-.53-.3-1.01-.42-1.48h-.03c-.12.47-.24.97-.4,1.46l-.8,2.34h2.44Z"/>
      <path d="M123.54,71.16v-8.08h1.15l2.59,4.09c.59.95,1.06,1.8,1.44,2.63h.03c-.09-1.09-.11-2.08-.11-3.33v-3.39h.98v8.08h-1.06l-2.57-4.1c-.56-.91-1.1-1.83-1.5-2.71h-.04c.06,1.04.08,2.01.08,3.35v3.46h-.98Z"/>
      <path d="M131.43,63.18c.64-.1,1.4-.17,2.22-.17,1.5,0,2.57.35,3.28,1.02.72.65,1.14,1.59,1.14,2.89s-.41,2.4-1.16,3.15c-.76.75-2.01,1.17-3.58,1.17-.75,0-1.37-.03-1.9-.09v-7.95ZM132.48,70.33c.27.04.65.05,1.05.05,2.24,0,3.44-1.24,3.44-3.43.01-1.91-1.07-3.11-3.27-3.11-.54,0-.94.05-1.22.11v6.39Z"/>
    </g>
    <g>
      <path d="M80.86,85.77v7.33c0,.12.03.22.09.28.06.06.15.09.29.09h.48v1.52h-1.1c-.66,0-1.12-.14-1.41-.43-.28-.28-.42-.68-.42-1.18v-7.6h2.07ZM82.32,93.1v-7.33h2.07v7.6c0,.5-.14.9-.42,1.18-.28.29-.75.43-1.4.43h-1.14v-1.52h.51c.15,0,.25-.03.3-.09.06-.06.09-.15.09-.28Z"/>
      <path d="M88.89,93.1v-1.67c0-.12-.03-.21-.09-.27-.06-.05-.16-.08-.3-.08h-1.27c-.64,0-1.08-.15-1.33-.44s-.38-.69-.38-1.18v-2.09c0-.5.14-.9.42-1.18.28-.28.75-.43,1.41-.43h1.77c.66,0,1.12.14,1.4.43.28.29.42.68.42,1.18v1.19h-2.07v-.91c0-.13-.03-.23-.09-.28-.06-.05-.16-.08-.3-.08h-.49c-.15,0-.25.03-.3.08-.06.05-.09.15-.09.28v1.62c0,.13.03.21.09.27.06.05.16.08.3.08h1.25c.65,0,1.1.14,1.35.42.26.28.38.67.38,1.17v2.16c0,.5-.14.9-.42,1.18-.28.29-.75.43-1.4.43h-1.75c-.66,0-1.13-.14-1.41-.43-.28-.28-.43-.68-.43-1.18v-1.19h2.07v.91c0,.12.03.22.09.28.06.06.16.09.3.09h.49c.14,0,.25-.03.3-.09.06-.06.09-.15.09-.28Z"/>
      <path d="M92.07,85.77h2.09v9.21h-2.09v-9.21ZM97,85.77v1.52h-4.1v-1.52h4.1ZM97.11,93.46v1.52h-4.21v-1.52h4.21ZM96.58,89.54v1.52h-3.55v-1.52h3.55Z"/>
      <path d="M102.6,87.55v5.65c0,.13.03.23.09.28.06.05.16.08.3.08h.38v1.42h-1.01c-.66,0-1.13-.14-1.41-.43-.29-.28-.43-.67-.43-1.17v-6.01c0-.5.14-.9.43-1.18.29-.28.76-.43,1.41-.43h1.06v1.42h-.42c-.14,0-.25.03-.3.08-.06.05-.09.15-.09.28ZM103.96,89v-1.45c0-.13-.03-.23-.08-.28s-.15-.08-.3-.08h-.42v-1.42h1.04c.66,0,1.13.14,1.41.43.29.29.43.68.43,1.18v1.62h-2.09ZM103.96,93.2v-1.41h2.09v1.59c0,.49-.14.88-.43,1.17-.29.29-.76.43-1.41.43h-1.04v-1.42h.42c.14,0,.24-.03.3-.08s.08-.15.08-.28Z"/>
      <path d="M109.13,87.66v2.93h-2.07v-3.2c0-.5.14-.9.43-1.18.28-.28.75-.43,1.41-.43h1.1v1.52h-.48c-.15,0-.25.03-.3.08-.06.05-.09.15-.09.28ZM109.13,90.19v2.91c0,.12.03.22.09.28.06.06.16.09.3.09h.46v1.52h-1.09c-.66,0-1.13-.14-1.41-.43-.29-.28-.43-.68-.43-1.18v-3.19h2.07ZM110.6,93.1v-2.87h2.07v3.14c0,.5-.14.9-.42,1.18-.28.29-.75.43-1.41.43h-1.14v-1.52h.52c.14,0,.24-.03.3-.09.05-.06.08-.15.08-.28ZM110.6,90.58v-2.93c0-.13-.03-.23-.08-.28-.05-.05-.15-.08-.3-.08h-.49v-1.52h1.12c.66,0,1.12.14,1.41.43.28.29.42.68.42,1.18v3.2h-2.07Z"/>
      <path d="M114,85.77h2.09v9.21h-2.09v-9.21ZM117.62,89.47v-1.91c0-.13-.03-.23-.09-.28-.06-.05-.16-.08-.3-.08h-2.46v-1.42h3.08c.66,0,1.13.14,1.41.43.28.29.43.68.43,1.18v2.09h-2.07ZM117.62,93.2v-3.97h2.07v4.14c0,.5-.14.9-.43,1.18s-.76.43-1.41.43h-3.08v-1.42h2.46c.14,0,.25-.03.3-.09.06-.06.09-.15.09-.27Z"/>
      <path d="M120.93,85.77h2.08v9.21h-2.08v-9.21ZM125.85,85.77v1.52h-4.1v-1.52h4.1ZM125.97,93.46v1.52h-4.21v-1.52h4.21ZM125.43,89.54v1.52h-3.55v-1.52h3.55Z"/>
    </g>
  </g>
</svg>