<?xml version="1.0" encoding="UTF-8"?>
<svg id="Layer_2" data-name="Layer 2" xmlns="http://www.w3.org/2000/svg" viewBox="0 0 321.15 132.93">
  <defs>
    <style>
      .cls-1 {
        fill: #8cc755;
      }

      .cls-2 {
        stroke: #0d8040;
        stroke-dasharray: 5 5;
      }

      .cls-2, .cls-3 {
        fill: none;
        stroke-miterlimit: 10;
      }

      .cls-4 {
        fill: #dcedd4;
      }

      .cls-5 {
        fill: #c3e3cc;
      }

      .cls-6 {
        fill: #0d8040;
      }

      .cls-3 {
        stroke: #8cc755;
        stroke-width: 5px;
      }

      .cls-7 {
        fill: #086d38;
      }
    </style>
  </defs>
  <g id="Layer_1-2" data-name="Layer 1">
    <g>
      <path class="cls-5" d="M321.15,6.21v-3.93h-6.5c0,2.69-2.17,4.86-4.86,4.86s-4.85-2.17-4.85-4.86h-3.28c0,2.69-2.17,4.86-4.86,4.86s-4.86-2.17-4.86-4.86h-4.56c0,2.69-2.18,4.86-4.86,4.86s-4.86-2.17-4.86-4.86h-4.56c0,2.69-2.18,4.86-4.86,4.86s-4.86-2.17-4.86-4.86h-4.57c0,2.69-2.17,4.86-4.85,4.86s-4.86-2.17-4.86-4.86h-3.39c0,2.69-2.18,4.86-4.86,4.86s-4.86-2.17-4.86-4.86h-4.57c0,2.69-2.17,4.86-4.86,4.86s-4.85-2.17-4.85-4.86h-4.57c0,2.69-2.18,4.86-4.86,4.86s-4.86-2.17-4.86-4.86h-4.56c0,2.69-2.18,4.86-4.86,4.86s-4.86-2.17-4.86-4.86h-4.57c0,2.69-2.17,4.86-4.85,4.86s-4.86-2.17-4.86-4.86h-5.17c0,2.69-2.17,4.86-4.86,4.86s-4.85-2.17-4.85-4.86h-4.57c0,2.69-2.17,4.86-4.86,4.86s-4.86-2.17-4.86-4.86h-4.57c0,2.69-2.18,4.86-4.86,4.86s-4.86-2.17-4.86-4.86h-5.1c0,2.69-2.18,4.86-4.86,4.86s-4.86-2.17-4.86-4.86h-4.57c0,2.69-2.17,4.86-4.86,4.86s-4.85-2.17-4.85-4.86h-4.57c0,2.69-2.17,4.86-4.86,4.86s-4.86-2.17-4.86-4.86h-4.56c0,2.69-2.18,4.86-4.86,4.86s-4.86-2.17-4.86-4.86h-3.39c0,2.69-2.18,4.86-4.86,4.86s-4.86-2.17-4.86-4.86h-4.56c0,2.69-2.18,4.86-4.86,4.86s-4.86-2.17-4.86-4.86h-4.57c0,2.69-2.17,4.86-4.85,4.86s-4.86-2.17-4.86-4.86h-4.57c0,2.69-2.17,4.86-4.86,4.86s-4.86-2.17-4.86-4.86h-4.56c0,2.69-2.18,4.86-4.86,4.86s-4.86-2.17-4.86-4.86H1v3.93c2.68,0,4.86,2.17,4.86,4.85s-2.18,4.86-4.86,4.86v4.57c2.68,0,4.86,2.17,4.86,4.86s-2.18,4.86-4.86,4.86v4.56c2.68,0,4.86,2.18,4.86,4.86s-2.18,4.86-4.86,4.86v4.56c2.68,0,4.86,2.18,4.86,4.86s-2.18,4.86-4.86,4.86v3.39c2.68,0,4.86,2.18,4.86,4.86s-2.18,4.86-4.86,4.86v4.56c2.68,0,4.86,2.18,4.86,4.86s-2.18,4.86-4.86,4.86v4.57c2.68,0,4.86,2.17,4.86,4.86s-2.18,4.85-4.86,4.85v4.57c2.68,0,4.86,2.17,4.86,4.86s-2.18,4.86-4.86,4.86v4.56c2.68,0,4.86,2.18,4.86,4.86s-2.18,4.86-4.86,4.86v3.92h6.49c0-2.69,2.18-4.87,4.86-4.87s4.86,2.18,4.86,4.86h0s4.56.01,4.56.01h0c0-2.69,2.18-4.87,4.86-4.87s4.86,2.18,4.86,4.86h0s4.57.01,4.57.01h0c0-2.69,2.17-4.87,4.86-4.87s4.85,2.18,4.85,4.86h0s4.57.01,4.57.01h0c0-2.69,2.17-4.87,4.86-4.87s4.86,2.18,4.86,4.86h0s4.56.01,4.56.01h0c0-2.69,2.18-4.87,4.86-4.87s4.86,2.18,4.86,4.86h0s3.39.01,3.39.01h0c0-2.69,2.18-4.87,4.86-4.87s4.86,2.18,4.86,4.86h0s4.56.01,4.56.01h0c0-2.69,2.18-4.87,4.86-4.87s4.86,2.18,4.86,4.86h0s4.57.01,4.57.01h0c0-2.69,2.17-4.87,4.85-4.87s4.86,2.18,4.86,4.86h0s4.57.01,4.57.01h0c0-2.69,2.17-4.87,4.86-4.87s4.86,2.18,4.86,4.86h0s5.1.01,5.1.01h0c0-2.69,2.17-4.87,4.86-4.87s4.86,2.18,4.86,4.86h0s4.55.01,4.55.01h.02c0-2.69,2.18-4.87,4.86-4.87s4.86,2.18,4.86,4.86h0s4.57.01,4.57.01h0c0-2.69,2.17-4.87,4.85-4.87s4.86,2.18,4.86,4.86h0s5.17.01,5.17.01h0c0-2.69,2.17-4.87,4.86-4.87s4.85,2.18,4.85,4.86h0s4.57.01,4.57.01h0c0-2.69,2.18-4.87,4.86-4.87s4.86,2.18,4.86,4.86h0s4.56.01,4.56.01h0c0-2.69,2.18-4.87,4.86-4.87s4.86,2.18,4.86,4.86h0s4.57.01,4.57.01h0c0-2.69,2.17-4.87,4.85-4.87s4.86,2.18,4.86,4.86h0s4.57.01,4.57.01h0c0-2.69,2.17-4.87,4.86-4.87s4.86,2.18,4.86,4.86h0s3.39.01,3.39.01h0c0-2.69,2.17-4.87,4.86-4.87s4.85,2.18,4.85,4.86h0s4.57.01,4.57.01h0c0-2.69,2.17-4.87,4.86-4.87s4.86,2.18,4.86,4.86h0s4.56.01,4.56.01h0c0-2.69,2.18-4.87,4.86-4.87s4.86,2.18,4.86,4.86h0s4.56.01,4.56.01h0c0-2.69,2.18-4.87,4.86-4.87s4.86,2.18,4.86,4.86h0s3.28.01,3.28.01h0c0-2.69,2.17-4.87,4.85-4.87s4.86,2.18,4.86,4.86h0s6.5.01,6.5.01v-3.92c-2.69,0-4.86-2.18-4.86-4.86s2.17-4.86,4.86-4.86v-4.56c-2.69,0-4.86-2.18-4.86-4.86s2.17-4.86,4.86-4.86v-4.57c-2.69,0-4.86-2.17-4.86-4.85s2.17-4.86,4.86-4.86v-4.57c-2.69,0-4.86-2.17-4.86-4.86s2.17-4.86,4.86-4.86v-4.56c-2.69,0-4.86-2.18-4.86-4.86s2.17-4.86,4.86-4.86v-3.39c-2.69,0-4.86-2.18-4.86-4.86s2.17-4.86,4.86-4.86v-4.56c-2.69,0-4.86-2.18-4.86-4.86s2.17-4.86,4.86-4.86v-4.56c-2.69,0-4.86-2.18-4.86-4.86s2.17-4.86,4.86-4.86v-4.57c-2.69,0-4.86-2.17-4.86-4.86s2.17-4.85,4.86-4.85Z"/>
      <path class="cls-7" d="M320.15,3.93V0h-6.5c0,2.69-2.17,4.86-4.86,4.86s-4.85-2.17-4.85-4.86h-3.28c0,2.69-2.17,4.86-4.86,4.86s-4.86-2.17-4.86-4.86h-4.56c0,2.69-2.18,4.86-4.86,4.86s-4.86-2.17-4.86-4.86h-4.56c0,2.69-2.18,4.86-4.86,4.86s-4.86-2.17-4.86-4.86h-4.57c0,2.69-2.17,4.86-4.85,4.86s-4.86-2.17-4.86-4.86h-3.39c0,2.69-2.18,4.86-4.86,4.86s-4.86-2.17-4.86-4.86h-4.57c0,2.69-2.17,4.86-4.86,4.86s-4.85-2.17-4.85-4.86h-4.57c0,2.69-2.18,4.86-4.86,4.86s-4.86-2.17-4.86-4.86h-4.56c0,2.69-2.18,4.86-4.86,4.86s-4.86-2.17-4.86-4.86h-4.57c0,2.69-2.17,4.86-4.85,4.86s-4.86-2.17-4.86-4.86h-5.17c0,2.69-2.17,4.86-4.86,4.86s-4.85-2.17-4.85-4.86h-4.57c0,2.69-2.17,4.86-4.86,4.86s-4.86-2.17-4.86-4.86h-4.57c0,2.69-2.18,4.86-4.86,4.86s-4.86-2.17-4.86-4.86h-5.1c0,2.69-2.18,4.86-4.86,4.86s-4.86-2.17-4.86-4.86h-4.57c0,2.69-2.17,4.86-4.86,4.86s-4.85-2.17-4.85-4.86h-4.57c0,2.69-2.17,4.86-4.86,4.86s-4.86-2.17-4.86-4.86h-4.56c0,2.69-2.18,4.86-4.86,4.86s-4.86-2.17-4.86-4.86h-3.39c0,2.69-2.18,4.86-4.86,4.86s-4.86-2.17-4.86-4.86h-4.56c0,2.69-2.18,4.86-4.86,4.86s-4.86-2.17-4.86-4.86h-4.57c0,2.69-2.17,4.86-4.85,4.86s-4.86-2.17-4.86-4.86h-4.57c0,2.69-2.17,4.86-4.86,4.86s-4.86-2.17-4.86-4.86h-4.56c0,2.69-2.18,4.86-4.86,4.86S6.49,2.69,6.49,0H0v3.93c2.68,0,4.86,2.17,4.86,4.85S2.68,13.64,0,13.64v4.57c2.68,0,4.86,2.17,4.86,4.86s-2.18,4.86-4.86,4.86v4.56c2.68,0,4.86,2.18,4.86,4.86s-2.18,4.86-4.86,4.86v4.56c2.68,0,4.86,2.18,4.86,4.86s-2.18,4.86-4.86,4.86v3.39c2.68,0,4.86,2.18,4.86,4.86s-2.18,4.86-4.86,4.86v4.56c2.68,0,4.86,2.18,4.86,4.86s-2.18,4.86-4.86,4.86v4.57c2.68,0,4.86,2.17,4.86,4.86s-2.18,4.85-4.86,4.85v4.57c2.68,0,4.86,2.17,4.86,4.86s-2.18,4.86-4.86,4.86v4.56c2.68,0,4.86,2.18,4.86,4.86s-2.18,4.86-4.86,4.86v3.92h6.49c0-2.69,2.18-4.87,4.86-4.87s4.86,2.18,4.86,4.86h0s4.56.01,4.56.01h0c0-2.69,2.18-4.87,4.86-4.87s4.86,2.18,4.86,4.86h0s4.57.01,4.57.01h0c0-2.69,2.17-4.87,4.86-4.87s4.85,2.18,4.85,4.86h0s4.57.01,4.57.01h0c0-2.69,2.17-4.87,4.86-4.87s4.86,2.18,4.86,4.86h0s4.56.01,4.56.01h0c0-2.69,2.18-4.87,4.86-4.87s4.86,2.18,4.86,4.86h0s3.39.01,3.39.01h0c0-2.69,2.18-4.87,4.86-4.87s4.86,2.18,4.86,4.86h0s4.56.01,4.56.01h0c0-2.69,2.18-4.87,4.86-4.87s4.86,2.18,4.86,4.86h0s4.57.01,4.57.01h0c0-2.69,2.17-4.87,4.85-4.87s4.86,2.18,4.86,4.86h0s4.57.01,4.57.01h0c0-2.69,2.17-4.87,4.86-4.87s4.86,2.18,4.86,4.86h0s5.1.01,5.1.01h0c0-2.69,2.17-4.87,4.86-4.87s4.86,2.18,4.86,4.86h0s4.55.01,4.55.01h.02c0-2.69,2.18-4.87,4.86-4.87s4.86,2.18,4.86,4.86h0s4.57.01,4.57.01h0c0-2.69,2.17-4.87,4.85-4.87s4.86,2.18,4.86,4.86h0s5.17.01,5.17.01h0c0-2.69,2.17-4.87,4.86-4.87s4.85,2.18,4.85,4.86h0s4.57.01,4.57.01h0c0-2.69,2.18-4.87,4.86-4.87s4.86,2.18,4.86,4.86h0s4.56.01,4.56.01h0c0-2.69,2.18-4.87,4.86-4.87s4.86,2.18,4.86,4.86h0s4.57.01,4.57.01h0c0-2.69,2.17-4.87,4.85-4.87s4.86,2.18,4.86,4.86h0s4.57.01,4.57.01h0c0-2.69,2.17-4.87,4.86-4.87s4.86,2.18,4.86,4.86h0s3.39.01,3.39.01h0c0-2.69,2.17-4.87,4.86-4.87s4.85,2.18,4.85,4.86h0s4.57.01,4.57.01h0c0-2.69,2.17-4.87,4.86-4.87s4.86,2.18,4.86,4.86h0s4.56.01,4.56.01h0c0-2.69,2.18-4.87,4.86-4.87s4.86,2.18,4.86,4.86h0s4.56.01,4.56.01h0c0-2.69,2.18-4.87,4.86-4.87s4.86,2.18,4.86,4.86h0s3.28.01,3.28.01h0c0-2.69,2.17-4.87,4.85-4.87s4.86,2.18,4.86,4.86h0s6.5.01,6.5.01v-3.92c-2.69,0-4.86-2.18-4.86-4.86s2.17-4.86,4.86-4.86v-4.56c-2.69,0-4.86-2.18-4.86-4.86s2.17-4.86,4.86-4.86v-4.57c-2.69,0-4.86-2.17-4.86-4.85s2.17-4.86,4.86-4.86v-4.57c-2.69,0-4.86-2.17-4.86-4.86s2.17-4.86,4.86-4.86v-4.56c-2.69,0-4.86-2.18-4.86-4.86s2.17-4.86,4.86-4.86v-3.39c-2.69,0-4.86-2.18-4.86-4.86s2.17-4.86,4.86-4.86v-4.56c-2.69,0-4.86-2.18-4.86-4.86s2.17-4.86,4.86-4.86v-4.56c-2.69,0-4.86-2.18-4.86-4.86s2.17-4.86,4.86-4.86v-4.57c-2.69,0-4.86-2.17-4.86-4.86s2.17-4.85,4.86-4.85Z"/>
      <path class="cls-4" d="M306.36,24.39v81.88c0,6.6-4,12-8.9,12H76.87V12.39h220.58c4.89,0,8.9,5.4,8.9,12Z"/>
      <path class="cls-4" d="M24.98,12.39h45.73v105.88H24.98c-5.77,0-10.48-5.4-10.48-12V24.39c0-6.6,4.72-12,10.48-12Z"/>
      <g>
        <path class="cls-6" d="M34.8,88.44l11.88-6.21c-1.77.3-3.57.48-5.49.48h-6.39v-5.16h21v4.68l-11.88,6.24c1.77-.33,3.54-.51,5.49-.51h6.39v5.19h-21v-4.71Z"/>
        <path class="cls-6" d="M45.3,75.3c-6.51,0-10.92-2.55-10.92-8.49s4.41-8.49,10.92-8.49,10.92,2.55,10.92,8.49-4.44,8.49-10.92,8.49ZM45.3,63.69c-3.9,0-5.79.96-5.79,3.12s1.89,3.09,5.79,3.09,5.79-.96,5.79-3.09-1.89-3.12-5.79-3.12Z"/>
        <path class="cls-6" d="M53.49,57.3c-1.86,0-2.67-1.35-2.67-2.7s.81-2.73,2.67-2.73,2.7,1.35,2.7,2.73-.84,2.7-2.7,2.7Z"/>
        <path class="cls-6" d="M55.56,46.32h-4.92c.45-1.35.69-2.94.69-4.56,0-1.95-.72-3.03-2.16-3.03s-2.07,1.44-2.07,3.42c0,1.26.15,2.58.42,3.72l-12.12-.66v-10.95h4.8v6.09l2.76.15c0-.69.06-1.5.24-2.31.48-2.76,2.31-4.86,6-4.86,4.98,0,7.02,4.02,7.02,7.71,0,2.19-.18,3.63-.66,5.28Z"/>
      </g>
      <rect class="cls-3" x="13.79" y="12.38" width="292.57" height="105.88" rx="12" ry="12"/>
      <g>
        <path class="cls-6" d="M129.35,86.34h6.51c1.18,0,2.02.25,2.51.75.49.5.74,1.17.74,1.99v1.81c0,.58-.07,1.08-.21,1.5-.14.43-.42.76-.85,1,.43.19.71.48.85.86.14.38.21.86.21,1.42v2.12c0,.83-.25,1.49-.74,1.99-.49.5-1.33.75-2.51.75h-6.51v-14.21ZM135.3,91.67v-2.3c0-.16-.04-.28-.13-.37s-.23-.12-.42-.12h-1.59v3.28h1.59c.19,0,.33-.04.42-.12.09-.08.13-.2.13-.37ZM135.3,97.51v-2.32c0-.16-.04-.28-.13-.37s-.23-.12-.42-.12h-1.59v3.3h1.59c.19,0,.33-.04.42-.12s.13-.2.13-.37Z"/>
        <path class="cls-6" d="M144.64,86.34v10.95c0,.16.04.29.13.37.09.08.23.12.42.12h.73v2.77h-1.9c-1.18,0-2.02-.25-2.51-.75-.49-.5-.74-1.17-.74-1.99v-11.46h3.87ZM146.67,97.29v-10.95h3.87v11.46c0,.83-.25,1.49-.74,1.99-.49.5-1.33.75-2.51.75h-1.9v-2.77h.73c.19,0,.33-.04.42-.12.09-.08.13-.2.13-.37Z"/>
        <path class="cls-6" d="M158.96,96.58h-3.34l-4.18-10.25h3.96l1.86,6,1.73-6h3.94l-3.96,10.25ZM155.35,94.53h3.87v6.02h-3.87v-6.02Z"/>
        <path class="cls-6" d="M172.1,95.57v1.73c0,.16.04.29.13.37.09.08.23.12.42.12h.69c.19,0,.33-.04.42-.12.09-.08.13-.2.13-.37v-2.85c0-.16-.04-.28-.13-.37-.09-.08-.23-.12-.42-.12h-2.66v-2.77h3.76c1.18,0,2.02.25,2.51.75.49.5.74,1.17.74,1.99v3.87c0,.83-.25,1.49-.74,1.99-.49.5-1.33.75-2.51.75h-2.97c-1.18,0-2.02-.25-2.51-.75-.49-.5-.74-1.17-.74-1.99v-2.24h3.87ZM172.21,93.95h-3.81v-7.61h9.07v2.77h-5.27v4.85Z"/>
        <path class="cls-6" d="M188.26,93.37c0-.75.21-1.36.63-1.81.42-.46,1.1-.69,2.05-.69h.35c.52,0,.93.11,1.23.34.3.23.5.54.61.94v-1.28h2.99v5.6h.97c.19,0,.33-.04.42-.12.09-.08.13-.2.13-.37v-6.08c0-.16-.04-.28-.13-.37-.09-.08-.23-.12-.42-.12h-9.54c-.19,0-.33.04-.42.12-.09.08-.13.2-.13.37v9.91c0,.16.04.28.13.37.09.08.23.12.42.12h8.59v2.55h-9.52c-1.05,0-1.8-.25-2.26-.75-.46-.5-.69-1.17-.69-1.99v-10.49c0-.83.23-1.49.69-1.99.46-.5,1.21-.75,2.26-.75h11.35c1.05,0,1.79.25,2.23.75.44.5.66,1.17.66,1.99v6.42c0,.83-.23,1.49-.69,1.99-.46.5-1.21.75-2.26.75h-4.78v-1.35c-.09.41-.28.74-.59.99-.3.24-.73.37-1.27.37h-.35c-.94,0-1.63-.23-2.05-.69-.42-.46-.63-1.06-.63-1.81v-2.9ZM191.49,93.64v2.37c0,.15.04.26.12.33.08.07.2.11.37.11h.55c.18,0,.31-.05.4-.14.09-.1.13-.25.13-.45v-2.06c0-.21-.04-.36-.13-.45-.09-.1-.22-.14-.4-.14h-.55c-.16,0-.28.03-.37.1s-.12.18-.12.34Z"/>
        <path class="cls-6" d="M215.52,86.34v2.19h-8.32v-2.19h8.32ZM212.45,88.11c.43,0,.75.04.95.11.21.07.34.23.41.45s.1.59.1,1.07v3.28c0,1.05-.27,1.78-.82,2.2-.55.42-1.52.62-2.92.61h-.46l.88-.86,3.76,5.58h-3.98l-3.17-4.71v-2.5h2.43c.16,0,.29-.04.38-.11.09-.07.13-.21.13-.42v-3.78c0-.16-.04-.28-.13-.37-.09-.08-.23-.12-.42-.12l2.85-.42ZM215.52,89.83v2.19h-8.32v-2.19h8.32Z"/>
        <path class="cls-6" d="M220.83,89.59v1.39h-3.87v-1.9c0-.83.25-1.49.74-1.99.49-.5,1.33-.75,2.51-.75h2.72c1.18,0,2.02.25,2.51.75.49.5.74,1.17.74,1.99v1.73c0,.58-.07,1.08-.21,1.5s-.42.76-.85,1c.43.19.71.48.85.86.14.38.21.86.21,1.42v2.21c0,.83-.25,1.49-.74,1.99-.49.5-1.33.75-2.51.75h-2.72c-1.18,0-2.02-.25-2.51-.75-.49-.5-.74-1.17-.74-1.99v-1.9h3.87v1.39c0,.16.04.29.13.37.09.08.23.12.42.12h.44c.19,0,.33-.04.42-.12.09-.08.13-.2.13-.37v-2.19c0-.16-.04-.28-.13-.37s-.23-.12-.42-.12h-1.79v-2.54h1.79c.19,0,.33-.04.42-.12s.13-.2.13-.37v-1.99c0-.16-.04-.28-.13-.37-.09-.08-.23-.12-.42-.12h-.44c-.19,0-.33.04-.42.12-.09.08-.13.2-.13.37Z"/>
        <path class="cls-6" d="M235.35,86.34v2.99h-8.17v-2.99h8.17ZM236.19,86.34v2.1l-4.32,12.11h-4.01l5.29-14.21h3.03Z"/>
        <path class="cls-6" d="M240.73,89.59v2.46c0,.16.04.28.13.37.09.08.23.12.42.12h2.32v2.54h-3.39c-1.18,0-2.02-.25-2.51-.75s-.74-1.17-.74-1.99v-3.25c0-.83.25-1.49.74-1.99.49-.5,1.33-.75,2.51-.75h1.57v2.77h-.51c-.19,0-.33.04-.42.12-.09.08-.13.2-.13.37ZM240.9,96.32v.97c0,.16.04.29.13.37.09.08.23.12.42.12h.46v2.77h-1.53c-1.18,0-2.02-.25-2.51-.75-.49-.5-.74-1.17-.74-1.99v-1.48h3.76ZM242.65,97.29v-7.7c0-.16-.04-.28-.13-.37-.09-.08-.23-.12-.42-.12h-.51v-2.77h1.57c1.18,0,2.02.25,2.51.75.49.5.74,1.17.74,1.99v8.72c0,.83-.25,1.49-.74,1.99-.49.5-1.33.75-2.51.75h-1.57v-2.77h.51c.19,0,.33-.04.42-.12.09-.08.13-.2.13-.37Z"/>
        <path class="cls-6" d="M251.66,89.59v2.46c0,.16.04.28.13.37.09.08.23.12.42.12h2.32v2.54h-3.39c-1.18,0-2.02-.25-2.51-.75s-.74-1.17-.74-1.99v-3.25c0-.83.25-1.49.74-1.99.49-.5,1.33-.75,2.51-.75h1.57v2.77h-.51c-.19,0-.33.04-.42.12-.09.08-.13.2-.13.37ZM251.84,96.32v.97c0,.16.04.29.13.37.09.08.23.12.42.12h.46v2.77h-1.53c-1.18,0-2.02-.25-2.51-.75-.49-.5-.74-1.17-.74-1.99v-1.48h3.76ZM253.59,97.29v-7.7c0-.16-.04-.28-.13-.37-.09-.08-.23-.12-.42-.12h-.51v-2.77h1.57c1.18,0,2.02.25,2.51.75.49.5.74,1.17.74,1.99v8.72c0,.83-.25,1.49-.74,1.99-.49.5-1.33.75-2.51.75h-1.57v-2.77h.51c.19,0,.33-.04.42-.12.09-.08.13-.2.13-.37Z"/>
      </g>
      <g>
        <path class="cls-6" d="M135.71,46.35c0,2.94-1.33,4.76-3.01,6.37-2.21,2.13-4.87,3.6-4.9,4.87h7.95v5.74h-14.95v-3.5c0-4.8,2.87-6.93,5.25-8.86,1.93-1.58,3.36-2.76,3.36-4.3,0-1.12-.98-1.79-2.21-1.79-1.65,0-3.57.63-5.74,2v-6.06c2.24-1.23,4.31-1.79,6.72-1.79,3.96,0,7.53,2.42,7.53,7.32Z"/>
        <path class="cls-6" d="M137.74,51.28c0-8.12,4.97-12.95,11.73-12.95,1.75,0,3.54.31,5.29.98v5.74c-1.4-.56-2.87-.84-4.55-.84-3.68,0-6.16,2.45-6.16,7.18,0,4.06,1.47,5.92,3.36,6.41.7.17,1.29.17,2.03,0v-7.81h5.88v12.25c-1.89,1.08-3.89,1.58-6.62,1.58-5.78,0-10.96-3.54-10.96-12.53Z"/>
        <path class="cls-6" d="M157.41,51.07c0-7.6,2.98-12.74,9.91-12.74s9.91,5.15,9.91,12.74-2.97,12.74-9.91,12.74-9.91-5.18-9.91-12.74ZM170.96,51.07c0-4.55-1.12-6.76-3.64-6.76s-3.61,2.21-3.61,6.76,1.12,6.76,3.61,6.76,3.64-2.21,3.64-6.76Z"/>
        <path class="cls-6" d="M179.01,51.07c0-7.6,2.98-12.74,9.91-12.74s9.91,5.15,9.91,12.74-2.97,12.74-9.91,12.74-9.91-5.18-9.91-12.74ZM192.55,51.07c0-4.55-1.12-6.76-3.64-6.76s-3.61,2.21-3.61,6.76,1.12,6.76,3.61,6.76,3.64-2.21,3.64-6.76Z"/>
        <path class="cls-6" d="M219.89,51.07c0,6.86-2.77,12.25-10.43,12.25h-8.02v-24.5h8.02c7.67,0,10.43,5.39,10.43,12.25ZM207.5,57.58h1.96c2.94,0,4.38-1.79,4.38-6.51s-1.44-6.51-4.38-6.51h-1.96v13.02Z"/>
        <path class="cls-6" d="M221.36,59.79v-5.08l9.94-15.19h5.78v14.81h2.38v5.57h-2.34v3.43h-5.64v-3.54h-10.12ZM231.54,47.82l-4.38,6.76h4.38v-6.76Z"/>
        <path class="cls-6" d="M241.79,55.48v-16.66h6.06v16.14c0,2.21,1.08,3.12,3.04,3.12s3.08-.91,3.08-3.12v-16.14h6.02v16.66c0,5.74-3.54,8.33-9.1,8.33s-9.1-2.59-9.1-8.33Z"/>
      </g>
      <rect class="cls-2" x="90.73" y="29.26" width="196.41" height="43.54" rx="5.88" ry="5.88"/>
      <path class="cls-6" d="M292.14,62.33c-.36-.63-.93-1.06-1.52-1.23-.47-.13-.96-.09-1.38.15l-1.26-2.2c.78-1.55,2.52-5.03,2.84-5.58.41-.71-.32-1.55-.32-1.55l-3.3,5.76-3.3-5.76s-.73.84-.32,1.55c.31.55,2.06,4.03,2.84,5.58l-1.26,2.2c-.42-.24-.91-.28-1.38-.15-.6.16-1.16.59-1.52,1.23-.65,1.14-.4,2.51.55,3.06.42.24.92.28,1.39.15.6-.16,1.16-.59,1.52-1.22.16-.28.26-.57.32-.86h0s0,0,0,0c0-.02,0-.05,0-.07.27-1.81.78-2.73,1.14-3.18.36.45.87,1.37,1.14,3.18,0,.03,0,.05,0,.07,0,0,0,0,0,0h0c.05.29.16.58.32.86.36.63.93,1.06,1.52,1.22.47.13.97.09,1.39-.15.96-.55,1.21-1.92.55-3.06ZM284.79,63.78c-.21.36-.53.63-.87.72-.15.04-.37.07-.58-.05-.43-.25-.51-.98-.15-1.59.21-.36.53-.63.87-.72.15-.04.37-.07.58.05.43.25.51.98.15,1.59ZM291.05,64.45c-.2.12-.42.09-.58.05-.34-.09-.67-.36-.87-.72-.35-.61-.28-1.34.15-1.59.2-.12.43-.09.58-.05.35.09.66.36.87.72.35.61.28,1.34-.15,1.59Z"/>
      <rect class="cls-1" x="70.71" y="14.56" width="6.16" height="103.57"/>
    </g>
  </g>
</svg>