<?xml version="1.0" encoding="UTF-8"?>
<svg id="Layer_2" data-name="Layer 2" xmlns="http://www.w3.org/2000/svg" viewBox="0 0 321.15 132.93">
  <defs>
    <style>
      .cls-1 {
        fill: #fdcda0;
      }

      .cls-2 {
        fill: #cd3c27;
      }

      .cls-3 {
        fill: #ef6824;
      }

      .cls-4 {
        stroke: #f26522;
        stroke-dasharray: 5 5;
      }

      .cls-4, .cls-5 {
        fill: none;
        stroke-miterlimit: 10;
      }

      .cls-5 {
        stroke: #cd3c27;
        stroke-width: 5px;
      }

      .cls-6 {
        fill: #f7ce72;
      }
    </style>
  </defs>
  <g id="Layer_1-2" data-name="Layer 1">
    <g>
      <path class="cls-1" d="M321.15,6.21v-3.93h-6.5c0,2.69-2.17,4.86-4.86,4.86s-4.85-2.17-4.85-4.86h-3.28c0,2.69-2.17,4.86-4.86,4.86s-4.86-2.17-4.86-4.86h-4.56c0,2.69-2.18,4.86-4.86,4.86s-4.86-2.17-4.86-4.86h-4.56c0,2.69-2.18,4.86-4.86,4.86s-4.86-2.17-4.86-4.86h-4.57c0,2.69-2.17,4.86-4.85,4.86s-4.86-2.17-4.86-4.86h-3.39c0,2.69-2.18,4.86-4.86,4.86s-4.86-2.17-4.86-4.86h-4.57c0,2.69-2.17,4.86-4.86,4.86s-4.85-2.17-4.85-4.86h-4.57c0,2.69-2.18,4.86-4.86,4.86s-4.86-2.17-4.86-4.86h-4.56c0,2.69-2.18,4.86-4.86,4.86s-4.86-2.17-4.86-4.86h-4.57c0,2.69-2.17,4.86-4.85,4.86s-4.86-2.17-4.86-4.86h-5.17c0,2.69-2.17,4.86-4.86,4.86s-4.85-2.17-4.85-4.86h-4.57c0,2.69-2.17,4.86-4.86,4.86s-4.86-2.17-4.86-4.86h-4.57c0,2.69-2.18,4.86-4.86,4.86s-4.86-2.17-4.86-4.86h-5.1c0,2.69-2.18,4.86-4.86,4.86s-4.86-2.17-4.86-4.86h-4.57c0,2.69-2.17,4.86-4.86,4.86s-4.85-2.17-4.85-4.86h-4.57c0,2.69-2.17,4.86-4.86,4.86s-4.86-2.17-4.86-4.86h-4.56c0,2.69-2.18,4.86-4.86,4.86s-4.86-2.17-4.86-4.86h-3.39c0,2.69-2.18,4.86-4.86,4.86s-4.86-2.17-4.86-4.86h-4.56c0,2.69-2.18,4.86-4.86,4.86s-4.86-2.17-4.86-4.86h-4.57c0,2.69-2.17,4.86-4.85,4.86s-4.86-2.17-4.86-4.86h-4.57c0,2.69-2.17,4.86-4.86,4.86s-4.86-2.17-4.86-4.86h-4.56c0,2.69-2.18,4.86-4.86,4.86s-4.86-2.17-4.86-4.86H1v3.93c2.68,0,4.86,2.17,4.86,4.85s-2.18,4.86-4.86,4.86v4.57c2.68,0,4.86,2.17,4.86,4.86s-2.18,4.86-4.86,4.86v4.56c2.68,0,4.86,2.18,4.86,4.86s-2.18,4.86-4.86,4.86v4.56c2.68,0,4.86,2.18,4.86,4.86s-2.18,4.86-4.86,4.86v3.39c2.68,0,4.86,2.18,4.86,4.86s-2.18,4.86-4.86,4.86v4.56c2.68,0,4.86,2.18,4.86,4.86s-2.18,4.86-4.86,4.86v4.57c2.68,0,4.86,2.17,4.86,4.86s-2.18,4.85-4.86,4.85v4.57c2.68,0,4.86,2.17,4.86,4.86s-2.18,4.86-4.86,4.86v4.56c2.68,0,4.86,2.18,4.86,4.86s-2.18,4.86-4.86,4.86v3.92h6.49c0-2.69,2.18-4.87,4.86-4.87s4.86,2.18,4.86,4.86h0s4.56.01,4.56.01h0c0-2.69,2.18-4.87,4.86-4.87s4.86,2.18,4.86,4.86h0s4.57.01,4.57.01h0c0-2.69,2.17-4.87,4.86-4.87s4.85,2.18,4.85,4.86h0s4.57.01,4.57.01h0c0-2.69,2.17-4.87,4.86-4.87s4.86,2.18,4.86,4.86h0s4.56.01,4.56.01h0c0-2.69,2.18-4.87,4.86-4.87s4.86,2.18,4.86,4.86h0s3.39.01,3.39.01h0c0-2.69,2.18-4.87,4.86-4.87s4.86,2.18,4.86,4.86h0s4.56.01,4.56.01h0c0-2.69,2.18-4.87,4.86-4.87s4.86,2.18,4.86,4.86h0s4.57.01,4.57.01h0c0-2.69,2.17-4.87,4.85-4.87s4.86,2.18,4.86,4.86h0s4.57.01,4.57.01h0c0-2.69,2.17-4.87,4.86-4.87s4.86,2.18,4.86,4.86h0s5.1.01,5.1.01h0c0-2.69,2.17-4.87,4.86-4.87s4.86,2.18,4.86,4.86h0s4.55.01,4.55.01h.02c0-2.69,2.18-4.87,4.86-4.87s4.86,2.18,4.86,4.86h0s4.57.01,4.57.01h0c0-2.69,2.17-4.87,4.85-4.87s4.86,2.18,4.86,4.86h0s5.17.01,5.17.01h0c0-2.69,2.17-4.87,4.86-4.87s4.85,2.18,4.85,4.86h0s4.57.01,4.57.01h0c0-2.69,2.18-4.87,4.86-4.87s4.86,2.18,4.86,4.86h0s4.56.01,4.56.01h0c0-2.69,2.18-4.87,4.86-4.87s4.86,2.18,4.86,4.86h0s4.57.01,4.57.01h0c0-2.69,2.17-4.87,4.85-4.87s4.86,2.18,4.86,4.86h0s4.57.01,4.57.01h0c0-2.69,2.17-4.87,4.86-4.87s4.86,2.18,4.86,4.86h0s3.39.01,3.39.01h0c0-2.69,2.17-4.87,4.86-4.87s4.85,2.18,4.85,4.86h0s4.57.01,4.57.01h0c0-2.69,2.17-4.87,4.86-4.87s4.86,2.18,4.86,4.86h0s4.56.01,4.56.01h0c0-2.69,2.18-4.87,4.86-4.87s4.86,2.18,4.86,4.86h0s4.56.01,4.56.01h0c0-2.69,2.18-4.87,4.86-4.87s4.86,2.18,4.86,4.86h0s3.28.01,3.28.01h0c0-2.69,2.17-4.87,4.85-4.87s4.86,2.18,4.86,4.86h0s6.5.01,6.5.01v-3.92c-2.69,0-4.86-2.18-4.86-4.86s2.17-4.86,4.86-4.86v-4.56c-2.69,0-4.86-2.18-4.86-4.86s2.17-4.86,4.86-4.86v-4.57c-2.69,0-4.86-2.17-4.86-4.85s2.17-4.86,4.86-4.86v-4.57c-2.69,0-4.86-2.17-4.86-4.86s2.17-4.86,4.86-4.86v-4.56c-2.69,0-4.86-2.18-4.86-4.86s2.17-4.86,4.86-4.86v-3.39c-2.69,0-4.86-2.18-4.86-4.86s2.17-4.86,4.86-4.86v-4.56c-2.69,0-4.86-2.18-4.86-4.86s2.17-4.86,4.86-4.86v-4.56c-2.69,0-4.86-2.18-4.86-4.86s2.17-4.86,4.86-4.86v-4.57c-2.69,0-4.86-2.17-4.86-4.86s2.17-4.85,4.86-4.85Z"/>
      <path class="cls-3" d="M320.15,3.93V0h-6.5c0,2.69-2.17,4.86-4.86,4.86s-4.85-2.17-4.85-4.86h-3.28c0,2.69-2.17,4.86-4.86,4.86s-4.86-2.17-4.86-4.86h-4.56c0,2.69-2.18,4.86-4.86,4.86s-4.86-2.17-4.86-4.86h-4.56c0,2.69-2.18,4.86-4.86,4.86s-4.86-2.17-4.86-4.86h-4.57c0,2.69-2.17,4.86-4.85,4.86s-4.86-2.17-4.86-4.86h-3.39c0,2.69-2.18,4.86-4.86,4.86s-4.86-2.17-4.86-4.86h-4.57c0,2.69-2.17,4.86-4.86,4.86s-4.85-2.17-4.85-4.86h-4.57c0,2.69-2.18,4.86-4.86,4.86s-4.86-2.17-4.86-4.86h-4.56c0,2.69-2.18,4.86-4.86,4.86s-4.86-2.17-4.86-4.86h-4.57c0,2.69-2.17,4.86-4.85,4.86s-4.86-2.17-4.86-4.86h-5.17c0,2.69-2.17,4.86-4.86,4.86s-4.85-2.17-4.85-4.86h-4.57c0,2.69-2.17,4.86-4.86,4.86s-4.86-2.17-4.86-4.86h-4.57c0,2.69-2.18,4.86-4.86,4.86s-4.86-2.17-4.86-4.86h-5.1c0,2.69-2.18,4.86-4.86,4.86s-4.86-2.17-4.86-4.86h-4.57c0,2.69-2.17,4.86-4.86,4.86s-4.85-2.17-4.85-4.86h-4.57c0,2.69-2.17,4.86-4.86,4.86s-4.86-2.17-4.86-4.86h-4.56c0,2.69-2.18,4.86-4.86,4.86s-4.86-2.17-4.86-4.86h-3.39c0,2.69-2.18,4.86-4.86,4.86s-4.86-2.17-4.86-4.86h-4.56c0,2.69-2.18,4.86-4.86,4.86s-4.86-2.17-4.86-4.86h-4.57c0,2.69-2.17,4.86-4.85,4.86s-4.86-2.17-4.86-4.86h-4.57c0,2.69-2.17,4.86-4.86,4.86s-4.86-2.17-4.86-4.86h-4.56c0,2.69-2.18,4.86-4.86,4.86S6.49,2.69,6.49,0H0v3.93c2.68,0,4.86,2.17,4.86,4.85S2.68,13.64,0,13.64v4.57c2.68,0,4.86,2.17,4.86,4.86s-2.18,4.86-4.86,4.86v4.56c2.68,0,4.86,2.18,4.86,4.86s-2.18,4.86-4.86,4.86v4.56c2.68,0,4.86,2.18,4.86,4.86s-2.18,4.86-4.86,4.86v3.39c2.68,0,4.86,2.18,4.86,4.86s-2.18,4.86-4.86,4.86v4.56c2.68,0,4.86,2.18,4.86,4.86s-2.18,4.86-4.86,4.86v4.57c2.68,0,4.86,2.17,4.86,4.86s-2.18,4.85-4.86,4.85v4.57c2.68,0,4.86,2.17,4.86,4.86s-2.18,4.86-4.86,4.86v4.56c2.68,0,4.86,2.18,4.86,4.86s-2.18,4.86-4.86,4.86v3.92h6.49c0-2.69,2.18-4.87,4.86-4.87s4.86,2.18,4.86,4.86h0s4.56.01,4.56.01h0c0-2.69,2.18-4.87,4.86-4.87s4.86,2.18,4.86,4.86h0s4.57.01,4.57.01h0c0-2.69,2.17-4.87,4.86-4.87s4.85,2.18,4.85,4.86h0s4.57.01,4.57.01h0c0-2.69,2.17-4.87,4.86-4.87s4.86,2.18,4.86,4.86h0s4.56.01,4.56.01h0c0-2.69,2.18-4.87,4.86-4.87s4.86,2.18,4.86,4.86h0s3.39.01,3.39.01h0c0-2.69,2.18-4.87,4.86-4.87s4.86,2.18,4.86,4.86h0s4.56.01,4.56.01h0c0-2.69,2.18-4.87,4.86-4.87s4.86,2.18,4.86,4.86h0s4.57.01,4.57.01h0c0-2.69,2.17-4.87,4.85-4.87s4.86,2.18,4.86,4.86h0s4.57.01,4.57.01h0c0-2.69,2.17-4.87,4.86-4.87s4.86,2.18,4.86,4.86h0s5.1.01,5.1.01h0c0-2.69,2.17-4.87,4.86-4.87s4.86,2.18,4.86,4.86h0s4.55.01,4.55.01h.02c0-2.69,2.18-4.87,4.86-4.87s4.86,2.18,4.86,4.86h0s4.57.01,4.57.01h0c0-2.69,2.17-4.87,4.85-4.87s4.86,2.18,4.86,4.86h0s5.17.01,5.17.01h0c0-2.69,2.17-4.87,4.86-4.87s4.85,2.18,4.85,4.86h0s4.57.01,4.57.01h0c0-2.69,2.18-4.87,4.86-4.87s4.86,2.18,4.86,4.86h0s4.56.01,4.56.01h0c0-2.69,2.18-4.87,4.86-4.87s4.86,2.18,4.86,4.86h0s4.57.01,4.57.01h0c0-2.69,2.17-4.87,4.85-4.87s4.86,2.18,4.86,4.86h0s4.57.01,4.57.01h0c0-2.69,2.17-4.87,4.86-4.87s4.86,2.18,4.86,4.86h0s3.39.01,3.39.01h0c0-2.69,2.17-4.87,4.86-4.87s4.85,2.18,4.85,4.86h0s4.57.01,4.57.01h0c0-2.69,2.17-4.87,4.86-4.87s4.86,2.18,4.86,4.86h0s4.56.01,4.56.01h0c0-2.69,2.18-4.87,4.86-4.87s4.86,2.18,4.86,4.86h0s4.56.01,4.56.01h0c0-2.69,2.18-4.87,4.86-4.87s4.86,2.18,4.86,4.86h0s3.28.01,3.28.01h0c0-2.69,2.17-4.87,4.85-4.87s4.86,2.18,4.86,4.86h0s6.5.01,6.5.01v-3.92c-2.69,0-4.86-2.18-4.86-4.86s2.17-4.86,4.86-4.86v-4.56c-2.69,0-4.86-2.18-4.86-4.86s2.17-4.86,4.86-4.86v-4.57c-2.69,0-4.86-2.17-4.86-4.85s2.17-4.86,4.86-4.86v-4.57c-2.69,0-4.86-2.17-4.86-4.86s2.17-4.86,4.86-4.86v-4.56c-2.69,0-4.86-2.18-4.86-4.86s2.17-4.86,4.86-4.86v-3.39c-2.69,0-4.86-2.18-4.86-4.86s2.17-4.86,4.86-4.86v-4.56c-2.69,0-4.86-2.18-4.86-4.86s2.17-4.86,4.86-4.86v-4.56c-2.69,0-4.86-2.18-4.86-4.86s2.17-4.86,4.86-4.86v-4.57c-2.69,0-4.86-2.17-4.86-4.86s2.17-4.85,4.86-4.85Z"/>
      <path class="cls-6" d="M306.36,24.39v81.88c0,6.6-4,12-8.9,12H76.87V12.39h220.58c4.89,0,8.9,5.4,8.9,12Z"/>
      <path class="cls-6" d="M24.98,12.39h45.73v105.88H24.98c-5.77,0-10.48-5.4-10.48-12V24.39c0-6.6,4.72-12,10.48-12Z"/>
      <g>
        <path class="cls-2" d="M34.8,88.44l11.88-6.21c-1.77.3-3.57.48-5.49.48h-6.39v-5.16h21v4.68l-11.88,6.24c1.77-.33,3.54-.51,5.49-.51h6.39v5.19h-21v-4.71Z"/>
        <path class="cls-2" d="M45.3,75.3c-6.51,0-10.92-2.55-10.92-8.49s4.41-8.49,10.92-8.49,10.92,2.55,10.92,8.49-4.44,8.49-10.92,8.49ZM45.3,63.69c-3.9,0-5.79.96-5.79,3.12s1.89,3.09,5.79,3.09,5.79-.96,5.79-3.09-1.89-3.12-5.79-3.12Z"/>
        <path class="cls-2" d="M53.49,57.3c-1.86,0-2.67-1.35-2.67-2.7s.81-2.73,2.67-2.73,2.7,1.35,2.7,2.73-.84,2.7-2.7,2.7Z"/>
        <path class="cls-2" d="M50.88,43.05h-9.75l1.38,3.18h-5.22l-1.89-4.35v-4.02h15.48v-2.91h4.92v11.28h-4.92v-3.18Z"/>
      </g>
      <rect class="cls-5" x="13.79" y="12.38" width="292.57" height="105.88" rx="12" ry="12"/>
      <g>
        <path class="cls-2" d="M129.35,86.34h6.51c1.18,0,2.02.25,2.51.75.49.5.74,1.17.74,1.99v1.81c0,.58-.07,1.08-.21,1.5-.14.43-.42.76-.85,1,.43.19.71.48.85.86.14.38.21.86.21,1.42v2.12c0,.83-.25,1.49-.74,1.99-.49.5-1.33.75-2.51.75h-6.51v-14.21ZM135.3,91.67v-2.3c0-.16-.04-.28-.13-.37s-.23-.12-.42-.12h-1.59v3.28h1.59c.19,0,.33-.04.42-.12.09-.08.13-.2.13-.37ZM135.3,97.51v-2.32c0-.16-.04-.28-.13-.37s-.23-.12-.42-.12h-1.59v3.3h1.59c.19,0,.33-.04.42-.12s.13-.2.13-.37Z"/>
        <path class="cls-2" d="M144.64,86.34v10.95c0,.16.04.28.13.37.09.08.23.12.42.12h.73v2.77h-1.9c-1.18,0-2.02-.25-2.51-.75-.49-.5-.74-1.17-.74-1.99v-11.46h3.87ZM146.67,97.29v-10.95h3.87v11.46c0,.83-.25,1.49-.74,1.99-.49.5-1.33.75-2.51.75h-1.9v-2.77h.73c.19,0,.33-.04.42-.12.09-.08.13-.2.13-.37Z"/>
        <path class="cls-2" d="M158.96,96.58h-3.34l-4.18-10.25h3.96l1.86,6,1.73-6h3.94l-3.96,10.25ZM155.35,94.53h3.87v6.02h-3.87v-6.02Z"/>
        <path class="cls-2" d="M171.73,89.59v1.62h-3.87v-2.12c0-.83.25-1.49.74-1.99.49-.5,1.33-.75,2.51-.75h2.68c1.18,0,2.03.25,2.53.75.51.5.76,1.17.76,1.99v2.04c0,.77-.13,1.42-.39,1.95s-.65,1.08-1.16,1.64l-2.74,3.08h4.29v2.77h-9.12v-2.52l4.21-4.51c.44-.47.74-.87.88-1.19.15-.32.22-.73.22-1.22v-1.5c0-.16-.04-.28-.13-.37-.09-.08-.23-.12-.42-.12h-.44c-.19,0-.33.04-.42.12-.09.08-.13.2-.13.37Z"/>
        <path class="cls-2" d="M187.61,93.37c0-.75.21-1.36.63-1.81.42-.46,1.1-.69,2.05-.69h.35c.52,0,.93.11,1.23.34.3.23.5.54.61.94v-1.28h2.99v5.6h.97c.19,0,.33-.04.42-.12.09-.08.13-.2.13-.37v-6.09c0-.16-.04-.28-.13-.37-.09-.08-.23-.12-.42-.12h-9.54c-.19,0-.33.04-.42.12-.09.08-.13.2-.13.37v9.91c0,.16.04.28.13.37.09.08.23.12.42.12h8.59v2.55h-9.52c-1.05,0-1.8-.25-2.26-.75-.46-.5-.69-1.17-.69-1.99v-10.49c0-.83.23-1.49.69-1.99.46-.5,1.21-.75,2.26-.75h11.35c1.05,0,1.79.25,2.23.75.44.5.66,1.17.66,1.99v6.42c0,.83-.23,1.49-.69,1.99-.46.5-1.21.75-2.26.75h-4.78v-1.35c-.09.41-.28.74-.59.98-.3.24-.73.37-1.27.37h-.35c-.94,0-1.63-.23-2.05-.69-.42-.46-.63-1.06-.63-1.81v-2.9ZM190.85,93.64v2.37c0,.15.04.26.12.33s.2.11.37.11h.55c.18,0,.31-.05.4-.14.09-.1.13-.25.13-.45v-2.06c0-.21-.04-.36-.13-.45-.09-.1-.22-.14-.4-.14h-.55c-.16,0-.28.03-.37.1s-.12.18-.12.34Z"/>
        <path class="cls-2" d="M214.88,86.34v2.19h-8.32v-2.19h8.32ZM211.8,88.11c.43,0,.75.04.95.11.21.07.34.23.41.45.07.23.1.59.1,1.07v3.28c0,1.05-.27,1.78-.82,2.2s-1.52.62-2.92.61h-.46l.88-.86,3.76,5.58h-3.98l-3.17-4.71v-2.5h2.43c.16,0,.29-.04.38-.11.09-.07.13-.21.13-.42v-3.78c0-.16-.04-.28-.13-.37-.09-.08-.23-.12-.42-.12l2.85-.42ZM214.88,89.83v2.19h-8.32v-2.19h8.32Z"/>
        <path class="cls-2" d="M220.72,86.34v2.77h-4.56v-2.77h4.56ZM218.15,86.34h3.87v14.21h-3.87v-14.21Z"/>
        <path class="cls-2" d="M223.13,98v-3.43l5.33-8.23h3.9l-7.52,11.66h-1.7ZM224.17,98v-2.81h9.96v2.81h-9.96ZM229,92.38h3.63v8.17h-3.63v-8.17Z"/>
        <path class="cls-2" d="M238.56,89.59v2.46c0,.16.04.28.13.37.09.08.23.12.42.12h2.32v2.54h-3.39c-1.18,0-2.02-.25-2.51-.75-.49-.5-.74-1.17-.74-1.99v-3.25c0-.83.25-1.49.74-1.99.49-.5,1.33-.75,2.51-.75h1.57v2.77h-.51c-.19,0-.33.04-.42.12-.09.08-.13.2-.13.37ZM238.74,96.32v.97c0,.16.04.28.13.37.09.08.23.12.42.12h.46v2.77h-1.53c-1.18,0-2.02-.25-2.51-.75-.49-.5-.74-1.17-.74-1.99v-1.48h3.76ZM240.48,97.29v-7.7c0-.16-.04-.28-.13-.37-.09-.08-.23-.12-.42-.12h-.51v-2.77h1.57c1.18,0,2.02.25,2.51.75.49.5.74,1.17.74,1.99v8.72c0,.83-.25,1.49-.74,1.99-.49.5-1.33.75-2.51.75h-1.57v-2.77h.51c.19,0,.33-.04.42-.12.09-.08.13-.2.13-.37Z"/>
        <path class="cls-2" d="M249.49,89.59v2.46c0,.16.04.28.13.37.09.08.23.12.42.12h2.32v2.54h-3.39c-1.18,0-2.02-.25-2.51-.75-.49-.5-.74-1.17-.74-1.99v-3.25c0-.83.25-1.49.74-1.99.49-.5,1.33-.75,2.51-.75h1.57v2.77h-.51c-.19,0-.33.04-.42.12-.09.08-.13.2-.13.37ZM249.67,96.32v.97c0,.16.04.28.13.37.09.08.23.12.42.12h.46v2.77h-1.53c-1.18,0-2.02-.25-2.51-.75-.49-.5-.74-1.17-.74-1.99v-1.48h3.76ZM251.42,97.29v-7.7c0-.16-.04-.28-.13-.37-.09-.08-.23-.12-.42-.12h-.51v-2.77h1.57c1.18,0,2.02.25,2.51.75.49.5.74,1.17.74,1.99v8.72c0,.83-.25,1.49-.74,1.99-.49.5-1.33.75-2.51.75h-1.57v-2.77h.51c.19,0,.33-.04.42-.12.09-.08.13-.2.13-.37Z"/>
      </g>
      <g>
        <path class="cls-2" d="M101.38,44.91v-5.08h15.25v5.08h-4.96v16.62h-5.33v-16.62h-4.96Z"/>
        <path class="cls-2" d="M118.49,61.53v-21.7h5.36v21.7h-5.36Z"/>
        <path class="cls-2" d="M139.7,39.82v4.77h-7.44v3.69h6.73v4.65h-6.73v3.75h7.63v4.84h-12.99v-21.7h12.81Z"/>
        <path class="cls-2" d="M158.67,50.67c0,6.08-2.45,10.85-9.24,10.85h-7.1v-21.7h7.1c6.79,0,9.24,4.77,9.24,10.85ZM147.69,56.44h1.74c2.6,0,3.88-1.58,3.88-5.77s-1.27-5.77-3.88-5.77h-1.74v11.53Z"/>
        <path class="cls-2" d="M176.15,45.37c0,2.6-1.24,4-2.39,4.68,1.46.68,3.16,2.39,3.16,5.33,0,4.43-3.72,6.14-7.25,6.14h-8.71v-21.7h8.9c3.78,0,6.29,2.08,6.29,5.55ZM166.32,48.44h2.57c1.21,0,2.02-.77,2.02-2.08,0-1.46-.81-2.11-2.14-2.11h-2.45v4.19ZM166.32,57.03h2.67c1.27,0,2.48-.5,2.48-2.23s-1.18-2.23-2.39-2.23h-2.76v4.46Z"/>
        <path class="cls-2" d="M176.33,39.82h5.83l3.32,8.15,3.29-8.15h5.86l-6.48,13.49v8.22h-5.33v-8.22l-6.48-13.49Z"/>
        <path class="cls-2" d="M204.14,39.82c4.19,0,7.66,2.39,7.66,7.32,0,3.1-1.24,5.27-3.35,6.39l4.06,8h-5.8l-3.44-7.07h-1.83v7.07h-5.36v-21.7h8.06ZM206.44,47.23c0-1.58-.99-2.45-2.51-2.45h-2.48v4.9h2.48c1.52,0,2.51-.87,2.51-2.45Z"/>
        <path class="cls-2" d="M224.91,39.82l6.88,21.7h-5.58l-.9-3.26h-6.17l-.9,3.26h-5.61l6.88-21.7h5.39ZM223.18,50.15c-.37-1.43-.71-2.95-.96-4.68-.25,1.74-.56,3.26-.93,4.68l-1.05,3.72h3.97l-1.02-3.72Z"/>
        <path class="cls-2" d="M238.55,39.82v8.5h1.33l3.57-8.5h6.2l-5.12,10.85,5.3,10.85h-6.2l-3.72-8.46h-1.36v8.46h-5.36v-21.7h5.36Z"/>
        <path class="cls-2" d="M261.55,61.53v-8.31h-4.99v8.31h-5.36v-21.7h5.36v8.31h4.99v-8.31h5.33v21.7h-5.33Z"/>
        <path class="cls-2" d="M269.95,61.53v-21.7h5.36v21.7h-5.36Z"/>
      </g>
      <rect class="cls-4" x="90.73" y="29.26" width="196.41" height="43.54" rx="5.88" ry="5.88"/>
      <path class="cls-3" d="M292.14,62.33c-.36-.63-.93-1.06-1.52-1.23-.47-.13-.96-.09-1.38.15l-1.26-2.2c.78-1.55,2.52-5.03,2.84-5.58.41-.71-.32-1.55-.32-1.55l-3.3,5.76-3.3-5.76s-.73.84-.32,1.55c.31.55,2.06,4.03,2.84,5.58l-1.26,2.2c-.42-.24-.91-.28-1.38-.15-.6.16-1.16.59-1.52,1.23-.65,1.14-.4,2.51.55,3.06.42.24.92.28,1.39.15.6-.16,1.16-.59,1.52-1.22.16-.28.26-.57.32-.86h0s0,0,0,0c0-.02,0-.05,0-.07.27-1.81.78-2.73,1.14-3.18.36.45.87,1.37,1.14,3.18,0,.03,0,.05,0,.07,0,0,0,0,0,0h0c.05.29.16.58.32.86.36.63.93,1.06,1.52,1.22.47.13.97.09,1.39-.15.96-.55,1.21-1.92.55-3.06ZM284.79,63.78c-.21.36-.53.63-.87.72-.15.04-.37.07-.58-.05-.43-.25-.51-.98-.15-1.59.21-.36.53-.63.87-.72.15-.04.37-.07.58.05.43.25.51.98.15,1.59ZM291.05,64.45c-.2.12-.42.09-.58.05-.34-.09-.67-.36-.87-.72-.35-.61-.28-1.34.15-1.59.2-.12.43-.09.58-.05.35.09.66.36.87.72.35.61.28,1.34-.15,1.59Z"/>
    </g>
  </g>
</svg>