<?xml version="1.0" encoding="UTF-8"?>
<svg id="Layer_2" data-name="Layer 2" xmlns="http://www.w3.org/2000/svg" viewBox="0 0 321.15 132.93">
  <defs>
    <style>
      .cls-1 {
        fill: #e162a4;
      }

      .cls-2 {
        stroke: #efb7d4;
        stroke-width: 5px;
      }

      .cls-2, .cls-3 {
        fill: none;
        stroke-miterlimit: 10;
      }

      .cls-4 {
        fill: #f7d0e2;
      }

      .cls-5 {
        fill: #e776ae;
      }

      .cls-6 {
        fill: #fdebf3;
      }

      .cls-3 {
        stroke: #e162a4;
        stroke-dasharray: 5 5;
      }

      .cls-7 {
        fill: #efb7d4;
      }
    </style>
  </defs>
  <g id="Layer_1-2" data-name="Layer 1">
    <path class="cls-4" d="M321.15,6.21v-3.93h-6.5c0,2.69-2.17,4.86-4.86,4.86s-4.85-2.17-4.85-4.86h-3.28c0,2.69-2.17,4.86-4.86,4.86s-4.86-2.17-4.86-4.86h-4.56c0,2.69-2.18,4.86-4.86,4.86s-4.86-2.17-4.86-4.86h-4.56c0,2.69-2.18,4.86-4.86,4.86s-4.86-2.17-4.86-4.86h-4.57c0,2.69-2.17,4.86-4.85,4.86s-4.86-2.17-4.86-4.86h-3.39c0,2.69-2.18,4.86-4.86,4.86s-4.86-2.17-4.86-4.86h-4.57c0,2.69-2.17,4.86-4.86,4.86s-4.85-2.17-4.85-4.86h-4.57c0,2.69-2.18,4.86-4.86,4.86s-4.86-2.17-4.86-4.86h-4.56c0,2.69-2.18,4.86-4.86,4.86s-4.86-2.17-4.86-4.86h-4.57c0,2.69-2.17,4.86-4.85,4.86s-4.86-2.17-4.86-4.86h-5.17c0,2.69-2.17,4.86-4.86,4.86s-4.85-2.17-4.85-4.86h-4.57c0,2.69-2.17,4.86-4.86,4.86s-4.86-2.17-4.86-4.86h-4.57c0,2.69-2.18,4.86-4.86,4.86s-4.86-2.17-4.86-4.86h-5.1c0,2.69-2.18,4.86-4.86,4.86s-4.86-2.17-4.86-4.86h-4.57c0,2.69-2.17,4.86-4.86,4.86s-4.85-2.17-4.85-4.86h-4.57c0,2.69-2.17,4.86-4.86,4.86s-4.86-2.17-4.86-4.86h-4.56c0,2.69-2.18,4.86-4.86,4.86s-4.86-2.17-4.86-4.86h-3.39c0,2.69-2.18,4.86-4.86,4.86s-4.86-2.17-4.86-4.86h-4.56c0,2.69-2.18,4.86-4.86,4.86s-4.86-2.17-4.86-4.86h-4.57c0,2.69-2.17,4.86-4.85,4.86s-4.86-2.17-4.86-4.86h-4.57c0,2.69-2.17,4.86-4.86,4.86s-4.86-2.17-4.86-4.86h-4.56c0,2.69-2.18,4.86-4.86,4.86s-4.86-2.17-4.86-4.86H1v3.93c2.68,0,4.86,2.17,4.86,4.85s-2.18,4.86-4.86,4.86v4.57c2.68,0,4.86,2.17,4.86,4.86s-2.18,4.86-4.86,4.86v4.56c2.68,0,4.86,2.18,4.86,4.86s-2.18,4.86-4.86,4.86v4.56c2.68,0,4.86,2.18,4.86,4.86s-2.18,4.86-4.86,4.86v3.39c2.68,0,4.86,2.18,4.86,4.86s-2.18,4.86-4.86,4.86v4.56c2.68,0,4.86,2.18,4.86,4.86s-2.18,4.86-4.86,4.86v4.57c2.68,0,4.86,2.17,4.86,4.86s-2.18,4.85-4.86,4.85v4.57c2.68,0,4.86,2.17,4.86,4.86s-2.18,4.86-4.86,4.86v4.56c2.68,0,4.86,2.18,4.86,4.86s-2.18,4.86-4.86,4.86v3.92h6.49c0-2.69,2.18-4.87,4.86-4.87s4.86,2.18,4.86,4.86h0s4.56.01,4.56.01h0c0-2.69,2.18-4.87,4.86-4.87s4.86,2.18,4.86,4.86h0s4.57.01,4.57.01h0c0-2.69,2.17-4.87,4.86-4.87s4.85,2.18,4.85,4.86h0s4.57.01,4.57.01h0c0-2.69,2.17-4.87,4.86-4.87s4.86,2.18,4.86,4.86h0s4.56.01,4.56.01h0c0-2.69,2.18-4.87,4.86-4.87s4.86,2.18,4.86,4.86h0s3.39.01,3.39.01h0c0-2.69,2.18-4.87,4.86-4.87s4.86,2.18,4.86,4.86h0s4.56.01,4.56.01h0c0-2.69,2.18-4.87,4.86-4.87s4.86,2.18,4.86,4.86h0s4.57.01,4.57.01h0c0-2.69,2.17-4.87,4.85-4.87s4.86,2.18,4.86,4.86h0s4.57.01,4.57.01h0c0-2.69,2.17-4.87,4.86-4.87s4.86,2.18,4.86,4.86h0s5.1.01,5.1.01h0c0-2.69,2.17-4.87,4.86-4.87s4.86,2.18,4.86,4.86h0s4.55.01,4.55.01h.02c0-2.69,2.18-4.87,4.86-4.87s4.86,2.18,4.86,4.86h0s4.57.01,4.57.01h0c0-2.69,2.17-4.87,4.85-4.87s4.86,2.18,4.86,4.86h0s5.17.01,5.17.01h0c0-2.69,2.17-4.87,4.86-4.87s4.85,2.18,4.85,4.86h0s4.57.01,4.57.01h0c0-2.69,2.18-4.87,4.86-4.87s4.86,2.18,4.86,4.86h0s4.56.01,4.56.01h0c0-2.69,2.18-4.87,4.86-4.87s4.86,2.18,4.86,4.86h0s4.57.01,4.57.01h0c0-2.69,2.17-4.87,4.85-4.87s4.86,2.18,4.86,4.86h0s4.57.01,4.57.01h0c0-2.69,2.17-4.87,4.86-4.87s4.86,2.18,4.86,4.86h0s3.39.01,3.39.01h0c0-2.69,2.17-4.87,4.86-4.87s4.85,2.18,4.85,4.86h0s4.57.01,4.57.01h0c0-2.69,2.17-4.87,4.86-4.87s4.86,2.18,4.86,4.86h0s4.56.01,4.56.01h0c0-2.69,2.18-4.87,4.86-4.87s4.86,2.18,4.86,4.86h0s4.56.01,4.56.01h0c0-2.69,2.18-4.87,4.86-4.87s4.86,2.18,4.86,4.86h0s3.28.01,3.28.01h0c0-2.69,2.17-4.87,4.85-4.87s4.86,2.18,4.86,4.86h0s6.5.01,6.5.01v-3.92c-2.69,0-4.86-2.18-4.86-4.86s2.17-4.86,4.86-4.86v-4.56c-2.69,0-4.86-2.18-4.86-4.86s2.17-4.86,4.86-4.86v-4.57c-2.69,0-4.86-2.17-4.86-4.85s2.17-4.86,4.86-4.86v-4.57c-2.69,0-4.86-2.17-4.86-4.86s2.17-4.86,4.86-4.86v-4.56c-2.69,0-4.86-2.18-4.86-4.86s2.17-4.86,4.86-4.86v-3.39c-2.69,0-4.86-2.18-4.86-4.86s2.17-4.86,4.86-4.86v-4.56c-2.69,0-4.86-2.18-4.86-4.86s2.17-4.86,4.86-4.86v-4.56c-2.69,0-4.86-2.18-4.86-4.86s2.17-4.86,4.86-4.86v-4.57c-2.69,0-4.86-2.17-4.86-4.86s2.17-4.85,4.86-4.85Z"/>
    <path class="cls-5" d="M320.15,3.93V0h-6.5c0,2.69-2.17,4.86-4.86,4.86s-4.85-2.17-4.85-4.86h-3.28c0,2.69-2.17,4.86-4.86,4.86s-4.86-2.17-4.86-4.86h-4.56c0,2.69-2.18,4.86-4.86,4.86s-4.86-2.17-4.86-4.86h-4.56c0,2.69-2.18,4.86-4.86,4.86s-4.86-2.17-4.86-4.86h-4.57c0,2.69-2.17,4.86-4.85,4.86s-4.86-2.17-4.86-4.86h-3.39c0,2.69-2.18,4.86-4.86,4.86s-4.86-2.17-4.86-4.86h-4.57c0,2.69-2.17,4.86-4.86,4.86s-4.85-2.17-4.85-4.86h-4.57c0,2.69-2.18,4.86-4.86,4.86s-4.86-2.17-4.86-4.86h-4.56c0,2.69-2.18,4.86-4.86,4.86s-4.86-2.17-4.86-4.86h-4.57c0,2.69-2.17,4.86-4.85,4.86s-4.86-2.17-4.86-4.86h-5.17c0,2.69-2.17,4.86-4.86,4.86s-4.85-2.17-4.85-4.86h-4.57c0,2.69-2.17,4.86-4.86,4.86s-4.86-2.17-4.86-4.86h-4.57c0,2.69-2.18,4.86-4.86,4.86s-4.86-2.17-4.86-4.86h-5.1c0,2.69-2.18,4.86-4.86,4.86s-4.86-2.17-4.86-4.86h-4.57c0,2.69-2.17,4.86-4.86,4.86s-4.85-2.17-4.85-4.86h-4.57c0,2.69-2.17,4.86-4.86,4.86s-4.86-2.17-4.86-4.86h-4.56c0,2.69-2.18,4.86-4.86,4.86s-4.86-2.17-4.86-4.86h-3.39c0,2.69-2.18,4.86-4.86,4.86s-4.86-2.17-4.86-4.86h-4.56c0,2.69-2.18,4.86-4.86,4.86s-4.86-2.17-4.86-4.86h-4.57c0,2.69-2.17,4.86-4.85,4.86s-4.86-2.17-4.86-4.86h-4.57c0,2.69-2.17,4.86-4.86,4.86s-4.86-2.17-4.86-4.86h-4.56c0,2.69-2.18,4.86-4.86,4.86S6.49,2.69,6.49,0H0v3.93c2.68,0,4.86,2.17,4.86,4.85S2.68,13.64,0,13.64v4.57c2.68,0,4.86,2.17,4.86,4.86s-2.18,4.86-4.86,4.86v4.56c2.68,0,4.86,2.18,4.86,4.86s-2.18,4.86-4.86,4.86v4.56c2.68,0,4.86,2.18,4.86,4.86s-2.18,4.86-4.86,4.86v3.39c2.68,0,4.86,2.18,4.86,4.86s-2.18,4.86-4.86,4.86v4.56c2.68,0,4.86,2.18,4.86,4.86s-2.18,4.86-4.86,4.86v4.57c2.68,0,4.86,2.17,4.86,4.86s-2.18,4.85-4.86,4.85v4.57c2.68,0,4.86,2.17,4.86,4.86s-2.18,4.86-4.86,4.86v4.56c2.68,0,4.86,2.18,4.86,4.86s-2.18,4.86-4.86,4.86v3.92h6.49c0-2.69,2.18-4.87,4.86-4.87s4.86,2.18,4.86,4.86h0s4.56.01,4.56.01h0c0-2.69,2.18-4.87,4.86-4.87s4.86,2.18,4.86,4.86h0s4.57.01,4.57.01h0c0-2.69,2.17-4.87,4.86-4.87s4.85,2.18,4.85,4.86h0s4.57.01,4.57.01h0c0-2.69,2.17-4.87,4.86-4.87s4.86,2.18,4.86,4.86h0s4.56.01,4.56.01h0c0-2.69,2.18-4.87,4.86-4.87s4.86,2.18,4.86,4.86h0s3.39.01,3.39.01h0c0-2.69,2.18-4.87,4.86-4.87s4.86,2.18,4.86,4.86h0s4.56.01,4.56.01h0c0-2.69,2.18-4.87,4.86-4.87s4.86,2.18,4.86,4.86h0s4.57.01,4.57.01h0c0-2.69,2.17-4.87,4.85-4.87s4.86,2.18,4.86,4.86h0s4.57.01,4.57.01h0c0-2.69,2.17-4.87,4.86-4.87s4.86,2.18,4.86,4.86h0s5.1.01,5.1.01h0c0-2.69,2.17-4.87,4.86-4.87s4.86,2.18,4.86,4.86h0s4.55.01,4.55.01h.02c0-2.69,2.18-4.87,4.86-4.87s4.86,2.18,4.86,4.86h0s4.57.01,4.57.01h0c0-2.69,2.17-4.87,4.85-4.87s4.86,2.18,4.86,4.86h0s5.17.01,5.17.01h0c0-2.69,2.17-4.87,4.86-4.87s4.85,2.18,4.85,4.86h0s4.57.01,4.57.01h0c0-2.69,2.18-4.87,4.86-4.87s4.86,2.18,4.86,4.86h0s4.56.01,4.56.01h0c0-2.69,2.18-4.87,4.86-4.87s4.86,2.18,4.86,4.86h0s4.57.01,4.57.01h0c0-2.69,2.17-4.87,4.85-4.87s4.86,2.18,4.86,4.86h0s4.57.01,4.57.01h0c0-2.69,2.17-4.87,4.86-4.87s4.86,2.18,4.86,4.86h0s3.39.01,3.39.01h0c0-2.69,2.17-4.87,4.86-4.87s4.85,2.18,4.85,4.86h0s4.57.01,4.57.01h0c0-2.69,2.17-4.87,4.86-4.87s4.86,2.18,4.86,4.86h0s4.56.01,4.56.01h0c0-2.69,2.18-4.87,4.86-4.87s4.86,2.18,4.86,4.86h0s4.56.01,4.56.01h0c0-2.69,2.18-4.87,4.86-4.87s4.86,2.18,4.86,4.86h0s3.28.01,3.28.01h0c0-2.69,2.17-4.87,4.85-4.87s4.86,2.18,4.86,4.86h0s6.5.01,6.5.01v-3.92c-2.69,0-4.86-2.18-4.86-4.86s2.17-4.86,4.86-4.86v-4.56c-2.69,0-4.86-2.18-4.86-4.86s2.17-4.86,4.86-4.86v-4.57c-2.69,0-4.86-2.17-4.86-4.85s2.17-4.86,4.86-4.86v-4.57c-2.69,0-4.86-2.17-4.86-4.86s2.17-4.86,4.86-4.86v-4.56c-2.69,0-4.86-2.18-4.86-4.86s2.17-4.86,4.86-4.86v-3.39c-2.69,0-4.86-2.18-4.86-4.86s2.17-4.86,4.86-4.86v-4.56c-2.69,0-4.86-2.18-4.86-4.86s2.17-4.86,4.86-4.86v-4.56c-2.69,0-4.86-2.18-4.86-4.86s2.17-4.86,4.86-4.86v-4.57c-2.69,0-4.86-2.17-4.86-4.86s2.17-4.85,4.86-4.85Z"/>
    <path class="cls-6" d="M306.36,24.39v81.88c0,6.6-4,12-8.9,12H76.87V12.39h220.58c4.89,0,8.9,5.4,8.9,12Z"/>
    <path class="cls-6" d="M24.98,12.39h45.73v105.88H24.98c-5.77,0-10.48-5.4-10.48-12V24.39c0-6.6,4.72-12,10.48-12Z"/>
    <rect class="cls-2" x="13.79" y="12.38" width="292.57" height="105.88" rx="12" ry="12"/>
    <g>
      <path class="cls-1" d="M129.35,86.34h6.51c1.18,0,2.02.25,2.51.75.49.5.74,1.17.74,1.99v1.81c0,.58-.07,1.08-.21,1.5-.14.43-.42.76-.85,1,.43.19.71.48.85.86.14.38.21.86.21,1.42v2.12c0,.83-.25,1.49-.74,1.99-.49.5-1.33.75-2.51.75h-6.51v-14.21ZM135.3,91.67v-2.3c0-.16-.04-.28-.13-.37s-.23-.12-.42-.12h-1.59v3.28h1.59c.19,0,.33-.04.42-.12.09-.08.13-.2.13-.37ZM135.3,97.51v-2.32c0-.16-.04-.28-.13-.37s-.23-.12-.42-.12h-1.59v3.3h1.59c.19,0,.33-.04.42-.12s.13-.2.13-.37Z"/>
      <path class="cls-1" d="M144.64,86.34v10.95c0,.16.04.29.13.37.09.08.23.12.42.12h.73v2.77h-1.9c-1.18,0-2.02-.25-2.51-.75-.49-.5-.74-1.17-.74-1.99v-11.46h3.87ZM146.67,97.29v-10.95h3.87v11.46c0,.83-.25,1.49-.74,1.99-.49.5-1.33.75-2.51.75h-1.9v-2.77h.73c.19,0,.33-.04.42-.12.09-.08.13-.2.13-.37Z"/>
      <path class="cls-1" d="M158.96,96.58h-3.34l-4.18-10.25h3.96l1.86,6,1.73-6h3.94l-3.96,10.25ZM155.35,94.53h3.87v6.02h-3.87v-6.02Z"/>
      <path class="cls-1" d="M167.57,98v-3.43l5.33-8.23h3.89l-7.52,11.66h-1.7ZM168.61,98v-2.81h9.96v2.81h-9.96ZM173.43,92.38h3.63v8.17h-3.63v-8.17Z"/>
      <path class="cls-1" d="M188.46,93.37c0-.75.21-1.36.63-1.81.42-.46,1.1-.69,2.05-.69h.35c.52,0,.93.11,1.23.34.3.23.5.54.61.94v-1.28h2.99v5.6h.97c.19,0,.33-.04.42-.12.09-.08.13-.2.13-.37v-6.08c0-.16-.04-.28-.13-.37-.09-.08-.23-.12-.42-.12h-9.54c-.19,0-.33.04-.42.12-.09.08-.13.2-.13.37v9.91c0,.16.04.28.13.37.09.08.23.12.42.12h8.59v2.55h-9.52c-1.05,0-1.8-.25-2.26-.75-.46-.5-.69-1.17-.69-1.99v-10.49c0-.83.23-1.49.69-1.99.46-.5,1.21-.75,2.26-.75h11.35c1.05,0,1.79.25,2.23.75.44.5.66,1.17.66,1.99v6.42c0,.83-.23,1.49-.69,1.99-.46.5-1.21.75-2.26.75h-4.78v-1.35c-.09.41-.28.74-.59.99-.3.24-.73.37-1.27.37h-.35c-.94,0-1.63-.23-2.05-.69-.42-.46-.63-1.06-.63-1.81v-2.9ZM191.69,93.64v2.37c0,.15.04.26.12.33.08.07.2.11.37.11h.55c.18,0,.31-.05.4-.14.09-.1.13-.25.13-.45v-2.06c0-.21-.04-.36-.13-.45-.09-.1-.22-.14-.4-.14h-.55c-.16,0-.28.03-.37.1s-.12.18-.12.34Z"/>
      <path class="cls-1" d="M215.72,86.34v2.19h-8.32v-2.19h8.32ZM212.64,88.11c.43,0,.75.04.95.11.21.07.34.23.41.45s.1.59.1,1.07v3.28c0,1.05-.27,1.78-.82,2.2-.55.42-1.52.62-2.92.61h-.46l.88-.86,3.76,5.58h-3.98l-3.17-4.71v-2.5h2.43c.16,0,.29-.04.38-.11.09-.07.13-.21.13-.42v-3.78c0-.16-.04-.28-.13-.37-.09-.08-.23-.12-.42-.12l2.85-.42ZM215.72,89.83v2.19h-8.32v-2.19h8.32Z"/>
      <path class="cls-1" d="M220.99,89.59v1.62h-3.87v-2.12c0-.83.25-1.49.74-1.99.49-.5,1.33-.75,2.51-.75h2.68c1.18,0,2.03.25,2.53.75.51.5.76,1.17.76,1.99v2.04c0,.77-.13,1.42-.39,1.95s-.65,1.08-1.16,1.64l-2.74,3.08h4.29v2.77h-9.12v-2.52l4.21-4.51c.44-.47.74-.87.88-1.19s.22-.73.22-1.22v-1.5c0-.16-.04-.28-.13-.37-.09-.08-.23-.12-.42-.12h-.44c-.19,0-.33.04-.42.12-.09.08-.13.2-.13.37Z"/>
      <path class="cls-1" d="M231.41,89.59v2.46c0,.16.04.28.13.37.09.08.23.12.42.12h2.32v2.54h-3.39c-1.18,0-2.02-.25-2.51-.75s-.74-1.17-.74-1.99v-3.25c0-.83.25-1.49.74-1.99.49-.5,1.33-.75,2.51-.75h1.57v2.77h-.51c-.19,0-.33.04-.42.12-.09.08-.13.2-.13.37ZM231.59,96.32v.97c0,.16.04.29.13.37.09.08.23.12.42.12h.46v2.77h-1.53c-1.18,0-2.02-.25-2.51-.75-.49-.5-.74-1.17-.74-1.99v-1.48h3.76ZM233.34,97.29v-7.7c0-.16-.04-.28-.13-.37-.09-.08-.23-.12-.42-.12h-.51v-2.77h1.57c1.18,0,2.02.25,2.51.75.49.5.74,1.17.74,1.99v8.72c0,.83-.25,1.49-.74,1.99-.49.5-1.33.75-2.51.75h-1.57v-2.77h.51c.19,0,.33-.04.42-.12.09-.08.13-.2.13-.37Z"/>
      <path class="cls-1" d="M242.34,89.59v2.46c0,.16.04.28.13.37.09.08.23.12.42.12h2.32v2.54h-3.39c-1.18,0-2.02-.25-2.51-.75s-.74-1.17-.74-1.99v-3.25c0-.83.25-1.49.74-1.99.49-.5,1.33-.75,2.51-.75h1.57v2.77h-.51c-.19,0-.33.04-.42.12-.09.08-.13.2-.13.37ZM242.52,96.32v.97c0,.16.04.29.13.37.09.08.23.12.42.12h.46v2.77h-1.53c-1.18,0-2.02-.25-2.51-.75-.49-.5-.74-1.17-.74-1.99v-1.48h3.76ZM244.27,97.29v-7.7c0-.16-.04-.28-.13-.37-.09-.08-.23-.12-.42-.12h-.51v-2.77h1.57c1.18,0,2.02.25,2.51.75.49.5.74,1.17.74,1.99v8.72c0,.83-.25,1.49-.74,1.99-.49.5-1.33.75-2.51.75h-1.57v-2.77h.51c.19,0,.33-.04.42-.12.09-.08.13-.2.13-.37Z"/>
      <path class="cls-1" d="M253.28,89.59v2.46c0,.16.04.28.13.37.09.08.23.12.42.12h2.32v2.54h-3.39c-1.18,0-2.02-.25-2.51-.75s-.74-1.17-.74-1.99v-3.25c0-.83.25-1.49.74-1.99.49-.5,1.33-.75,2.51-.75h1.57v2.77h-.51c-.19,0-.33.04-.42.12-.09.08-.13.2-.13.37ZM253.45,96.32v.97c0,.16.04.29.13.37.09.08.23.12.42.12h.46v2.77h-1.53c-1.18,0-2.02-.25-2.51-.75-.49-.5-.74-1.17-.74-1.99v-1.48h3.76ZM255.2,97.29v-7.7c0-.16-.04-.28-.13-.37-.09-.08-.23-.12-.42-.12h-.51v-2.77h1.57c1.18,0,2.02.25,2.51.75.49.5.74,1.17.74,1.99v8.72c0,.83-.25,1.49-.74,1.99-.49.5-1.33.75-2.51.75h-1.57v-2.77h.51c.19,0,.33-.04.42-.12.09-.08.13-.2.13-.37Z"/>
    </g>
    <g>
      <path class="cls-1" d="M121.29,62.24v-6.13c1.93,1.19,4.55,1.96,6.9,1.96,1.93,0,3.12-.6,3.12-1.89,0-3.29-10.68-2.03-10.68-10.33,0-5.29,3.96-7.53,8.61-7.53,2.77,0,4.69.59,6.79,1.71v5.88c-2.03-1.19-4.1-2-6.37-2-1.82,0-2.87.59-2.87,1.82,0,3.18,10.82,2.13,10.82,10.54,0,5.46-4.31,7.53-8.79,7.53-2.84,0-5.11-.46-7.53-1.58Z"/>
      <path class="cls-1" d="M139.91,63.32v-24.5h6.06v24.5h-6.06Z"/>
      <path class="cls-1" d="M149.15,62.24v-6.13c1.93,1.19,4.55,1.96,6.9,1.96,1.93,0,3.12-.6,3.12-1.89,0-3.29-10.68-2.03-10.68-10.33,0-5.29,3.96-7.53,8.61-7.53,2.77,0,4.69.59,6.79,1.71v5.88c-2.03-1.19-4.1-2-6.37-2-1.82,0-2.87.59-2.87,1.82,0,3.18,10.82,2.13,10.82,10.54,0,5.46-4.31,7.53-8.79,7.53-2.84,0-5.11-.46-7.53-1.58Z"/>
      <path class="cls-1" d="M176.98,63.81c-6.93,0-9.91-5.18-9.91-12.74s2.98-12.74,9.91-12.74,9.91,5.15,9.91,12.74c0,3.78-.74,6.93-2.35,9.17l2.28,3.08-4.73,3.4-2.49-3.36c-.8.32-1.64.46-2.62.46ZM180.62,51.07c0-4.55-1.16-6.76-3.64-6.76s-3.61,2.21-3.61,6.76,1.12,6.76,3.61,6.76,3.64-2.21,3.64-6.76Z"/>
      <path class="cls-1" d="M189.19,55.48v-16.66h6.06v16.14c0,2.21,1.08,3.12,3.04,3.12s3.08-.91,3.08-3.12v-16.14h6.02v16.66c0,5.74-3.54,8.33-9.1,8.33s-9.1-2.59-9.1-8.33Z"/>
      <path class="cls-1" d="M222.02,38.82l7.77,24.5h-6.3l-1.02-3.67h-6.97l-1.01,3.67h-6.34l7.77-24.5h6.09ZM220.06,50.48c-.42-1.61-.81-3.33-1.08-5.29-.28,1.96-.63,3.68-1.05,5.29l-1.19,4.2h4.48l-1.16-4.2Z"/>
      <path class="cls-1" d="M249.81,51.07c0,6.86-2.77,12.25-10.43,12.25h-8.02v-24.5h8.02c7.67,0,10.43,5.39,10.43,12.25ZM237.42,57.58h1.96c2.94,0,4.38-1.79,4.38-6.51s-1.44-6.51-4.38-6.51h-1.96v13.02Z"/>
    </g>
    <rect class="cls-3" x="90.73" y="29.26" width="196.41" height="43.54" rx="5.88" ry="5.88"/>
    <path class="cls-1" d="M292.14,62.33c-.36-.63-.93-1.06-1.52-1.23-.47-.13-.96-.09-1.38.15l-1.26-2.2c.78-1.55,2.52-5.03,2.84-5.58.41-.71-.32-1.55-.32-1.55l-3.3,5.76-3.3-5.76s-.73.84-.32,1.55c.31.55,2.06,4.03,2.84,5.58l-1.26,2.2c-.42-.24-.91-.28-1.38-.15-.6.16-1.16.59-1.52,1.23-.65,1.14-.4,2.51.55,3.06.42.24.92.28,1.39.15.6-.16,1.16-.59,1.52-1.22.16-.28.26-.57.32-.86h0s0,0,0,0c0-.02,0-.05,0-.07.27-1.81.78-2.73,1.14-3.18.36.45.87,1.37,1.14,3.18,0,.03,0,.05,0,.07,0,0,0,0,0,0h0c.05.29.16.58.32.86.36.63.93,1.06,1.52,1.22.47.13.97.09,1.39-.15.96-.55,1.21-1.92.55-3.06ZM284.79,63.78c-.21.36-.53.63-.87.72-.15.04-.37.07-.58-.05-.43-.25-.51-.98-.15-1.59.21-.36.53-.63.87-.72.15-.04.37-.07.58.05.43.25.51.98.15,1.59ZM291.05,64.45c-.2.12-.42.09-.58.05-.34-.09-.67-.36-.87-.72-.35-.61-.28-1.34.15-1.59.2-.12.43-.09.58-.05.35.09.66.36.87.72.35.61.28,1.34-.15,1.59Z"/>
    <rect class="cls-7" x="70.71" y="14.56" width="6.16" height="103.57"/>
    <g>
      <path class="cls-1" d="M34.8,88.44l11.88-6.21c-1.77.3-3.57.48-5.49.48h-6.39v-5.16h21v4.68l-11.88,6.24c1.77-.33,3.54-.51,5.49-.51h6.39v5.19h-21v-4.71Z"/>
      <path class="cls-1" d="M45.3,75.3c-6.51,0-10.92-2.55-10.92-8.49s4.41-8.49,10.92-8.49,10.92,2.55,10.92,8.49-4.44,8.49-10.92,8.49ZM45.3,63.69c-3.9,0-5.79.96-5.79,3.12s1.89,3.09,5.79,3.09,5.79-.96,5.79-3.09-1.89-3.12-5.79-3.12Z"/>
      <path class="cls-1" d="M53.49,57.3c-1.86,0-2.67-1.35-2.67-2.7s.81-2.73,2.67-2.73,2.7,1.35,2.7,2.73-.84,2.7-2.7,2.7Z"/>
      <path class="cls-1" d="M55.44,46.26h-5.01c.51-1.47.69-2.67.66-4.35,0-1.77-.57-3.06-1.86-3.06-1.11,0-1.62.72-1.62,2.01v2.82h-4.59v-2.37c0-1.05-.54-1.89-1.53-1.89-.93,0-1.62.69-1.62,2.37,0,1.44.27,2.88.9,4.44h-4.8c-.63-1.53-.99-3.18-.99-5.22,0-3.69,1.92-6.75,5.64-6.75,2.01,0,3.6.96,4.38,2.43.63-1.68,2.31-3.21,5.13-3.21,4.38,0,6.09,3.96,6.09,7.56,0,2.1-.24,3.6-.78,5.22Z"/>
    </g>
  </g>
</svg>