<?xml version="1.0" encoding="UTF-8"?>
<svg id="Layer_2" data-name="Layer 2" xmlns="http://www.w3.org/2000/svg" xmlns:xlink="http://www.w3.org/1999/xlink" viewBox="0 0 339.37 115.17">
  <defs>
    <style>
      .cls-1 {
        fill: none;
        stroke: #305eff;
        stroke-width: 1.2px;
      }

      .cls-1, .cls-2 {
        stroke-miterlimit: 10;
      }

      .cls-3 {
        fill: #305eff;
      }

      .cls-4 {
        fill: #fff;
      }

      .cls-5 {
        fill: #0220b4;
      }

      .cls-6 {
        fill: #072654;
      }

      .cls-6, .cls-7 {
        fill-rule: evenodd;
      }

      .cls-8 {
        fill: #0934d1;
      }

      .cls-9 {
        fill: #3d4a59;
      }

      .cls-10 {
        fill: #686868;
      }

      .cls-11 {
        fill: #efefef;
      }

      .cls-12 {
        fill: #2c4be2;
      }

      .cls-13 {
        fill: url(#linear-gradient);
        opacity: .2;
      }

      .cls-7 {
        fill: #3395ff;
      }

      .cls-2 {
        fill: #788fa8;
        stroke: #efefef;
      }

      .cls-14 {
        fill: #2e4de5;
      }
    </style>
    <linearGradient id="linear-gradient" x1="132.59" y1="-44.33" x2="206.78" y2="159.5" gradientUnits="userSpaceOnUse">
      <stop offset="0" stop-color="#0220b4"/>
      <stop offset="0" stop-color="#0523b5"/>
      <stop offset=".05" stop-color="#344cc2"/>
      <stop offset=".09" stop-color="#5e71cf"/>
      <stop offset=".15" stop-color="#8593da"/>
      <stop offset=".2" stop-color="#a6b0e4"/>
      <stop offset=".27" stop-color="#c2c9ec"/>
      <stop offset=".34" stop-color="#d8ddf3"/>
      <stop offset=".42" stop-color="#e9ecf8"/>
      <stop offset=".52" stop-color="#f6f7fc"/>
      <stop offset=".65" stop-color="#fdfdfe"/>
      <stop offset="1" stop-color="#fff"/>
    </linearGradient>
  </defs>
  <g id="Layer_1-2" data-name="Layer 1">
    <g>
      <rect class="cls-4" x=".6" y=".6" width="338.17" height="113.97" rx="10.37" ry="10.37"/>
      <rect class="cls-13" x=".6" y=".6" width="338.17" height="113.97" rx="10.37" ry="10.37"/>
      <rect class="cls-11" x=".28" y="76.54" width="338.49" height="1"/>
      <rect class="cls-1" x=".6" y=".6" width="338.17" height="113.97" rx="10.37" ry="10.37"/>
      <path class="cls-3" d="M338.77,10.97v9.44h-106.91c-5.73,0-10.37-4.65-10.37-10.37V.6h106.91c5.73,0,10.37,4.64,10.37,10.37Z"/>
      <g>
        <path class="cls-4" d="M228.39,11.82c-.29-.58-.44-1.25-.44-2.04s.14-1.46.42-2.04.68-1.02,1.22-1.33c.54-.31,1.17-.47,1.9-.47s1.36.15,1.89.45c.53.3.94.74,1.23,1.31.29.57.44,1.25.44,2.03s-.14,1.46-.41,2.04-.68,1.02-1.22,1.34c-.54.32-1.17.47-1.9.47s-1.36-.15-1.89-.45c-.53-.3-.94-.74-1.23-1.32ZM230.06,7.88c-.33.43-.49,1.06-.49,1.88s.16,1.46.49,1.89c.33.43.81.65,1.44.65s1.11-.22,1.44-.65c.33-.43.5-1.06.5-1.89s-.17-1.45-.5-1.88c-.33-.43-.81-.65-1.44-.65s-1.11.22-1.44.65Z"/>
        <path class="cls-4" d="M238.05,13.41h-1.53v-7.28h1.83l2.95,5.09v-5.09h1.53v7.28h-1.83l-2.96-5.05v5.05Z"/>
        <path class="cls-4" d="M248.51,10.75v2.66h-1.53v-7.28h2.78c.75,0,1.35.21,1.79.62.44.41.66.97.66,1.69s-.22,1.28-.66,1.69c-.44.41-1.04.62-1.79.62h-1.25ZM248.51,9.57h1.07c.35,0,.62-.1.8-.29.19-.19.28-.47.28-.84s-.09-.65-.28-.85c-.19-.19-.45-.29-.8-.29h-1.07v2.27Z"/>
        <path class="cls-4" d="M253.47,13.41v-7.28h2.81c.76,0,1.36.2,1.8.6s.66.94.66,1.63c0,.42-.12.79-.35,1.12s-.56.59-.98.78l1.8,3.15h-1.63l-1.58-2.86h-1.02v2.86h-1.53ZM255,9.49h1.09c.73,0,1.1-.37,1.1-1.1s-.36-1.1-1.08-1.1h-1.11v2.2Z"/>
        <path class="cls-4" d="M260.16,13.41v-7.28h4.79v1.22h-3.21v1.72h2.61v1.22h-2.61v1.9h3.21v1.22h-4.79Z"/>
        <path class="cls-4" d="M267.75,10.75v2.66h-1.53v-7.28h2.78c.75,0,1.35.21,1.79.62.44.41.66.97.66,1.69s-.22,1.28-.66,1.69c-.44.41-1.04.62-1.79.62h-1.25ZM267.75,9.57h1.07c.35,0,.62-.1.8-.29.19-.19.28-.47.28-.84s-.09-.65-.28-.85c-.19-.19-.45-.29-.8-.29h-1.07v2.27Z"/>
        <path class="cls-4" d="M276.45,13.41l-.52-1.66h-2.49l-.49,1.66h-1.65l2.56-7.28h1.73l2.56,7.28h-1.71ZM273.79,10.61h1.83l-.92-3.05-.9,3.05Z"/>
        <path class="cls-4" d="M279.1,13.41v-7.28h1.57v7.28h-1.57Z"/>
        <path class="cls-4" d="M282.4,13.41v-7.28h2.61c1.08,0,1.92.31,2.5.94.58.63.88,1.52.88,2.69s-.29,2.06-.88,2.7c-.58.63-1.41.95-2.47.95h-2.65ZM283.98,7.35v4.83h.9c1.27,0,1.9-.77,1.9-2.31v-.21c0-1.54-.64-2.31-1.91-2.31h-.89Z"/>
        <path class="cls-4" d="M292.84,11.82c-.29-.58-.44-1.25-.44-2.04s.14-1.46.42-2.04.68-1.02,1.22-1.33c.54-.31,1.17-.47,1.9-.47s1.36.15,1.89.45c.53.3.94.74,1.23,1.31.29.57.44,1.25.44,2.03s-.14,1.46-.41,2.04-.68,1.02-1.22,1.34c-.54.32-1.17.47-1.9.47s-1.36-.15-1.89-.45c-.53-.3-.94-.74-1.23-1.32ZM294.51,7.88c-.33.43-.49,1.06-.49,1.88s.16,1.46.49,1.89c.33.43.81.65,1.44.65s1.11-.22,1.44-.65c.33-.43.5-1.06.5-1.89s-.17-1.45-.5-1.88c-.33-.43-.81-.65-1.44-.65s-1.11.22-1.44.65Z"/>
        <path class="cls-4" d="M300.97,13.41v-7.28h2.81c.76,0,1.36.2,1.8.6s.66.94.66,1.63c0,.42-.12.79-.35,1.12s-.56.59-.98.78l1.8,3.15h-1.63l-1.58-2.86h-1.02v2.86h-1.53ZM302.5,9.49h1.09c.73,0,1.1-.37,1.1-1.1s-.36-1.1-1.08-1.1h-1.11v2.2Z"/>
        <path class="cls-4" d="M307.66,13.41v-7.28h2.61c1.08,0,1.92.31,2.5.94.58.63.88,1.52.88,2.69s-.29,2.06-.88,2.7c-.58.63-1.41.95-2.47.95h-2.65ZM309.23,7.35v4.83h.9c1.27,0,1.9-.77,1.9-2.31v-.21c0-1.54-.64-2.31-1.91-2.31h-.89Z"/>
        <path class="cls-4" d="M315.12,13.41v-7.28h4.79v1.22h-3.21v1.72h2.61v1.22h-2.61v1.9h3.21v1.22h-4.79Z"/>
        <path class="cls-4" d="M321.19,13.41v-7.28h2.81c.76,0,1.36.2,1.8.6s.66.94.66,1.63c0,.42-.12.79-.35,1.12s-.56.59-.98.78l1.8,3.15h-1.63l-1.58-2.86h-1.02v2.86h-1.53ZM322.72,9.49h1.09c.73,0,1.1-.37,1.1-1.1s-.36-1.1-1.08-1.1h-1.11v2.2Z"/>
        <path class="cls-4" d="M329.82,12.33c.41,0,.73-.08.96-.23.22-.15.34-.35.34-.6s-.07-.44-.21-.56c-.14-.13-.41-.27-.83-.42l-.8-.3c-.62-.23-1.07-.51-1.34-.85-.27-.33-.41-.75-.41-1.26,0-.66.24-1.19.73-1.58.49-.39,1.11-.59,1.86-.59s1.46.13,2.1.38v1.19c-.68-.21-1.3-.31-1.88-.31-.83,0-1.24.26-1.24.79,0,.19.07.36.21.48.14.13.41.26.8.4l.78.29c.64.24,1.1.52,1.38.83.27.32.41.73.41,1.24,0,.72-.26,1.29-.77,1.71-.51.42-1.21.63-2.08.63s-1.62-.14-2.22-.41v-1.2c.76.23,1.5.35,2.2.35Z"/>
      </g>
      <g>
        <path class="cls-3" d="M44.98,95.18h5.01v.56c0,.7-.12,1.35-.36,1.96-.24.61-.58,1.14-1.02,1.6-.44.46-.95.82-1.55,1.08-.6.26-1.25.39-1.97.39s-1.4-.13-2.01-.4c-.61-.27-1.13-.64-1.57-1.11-.44-.47-.79-1.02-1.03-1.64-.24-.62-.36-1.28-.36-1.99s.12-1.37.36-1.99c.24-.62.59-1.17,1.03-1.63s.97-.84,1.57-1.1c.61-.26,1.28-.4,2.01-.4.54,0,1.02.06,1.44.18.43.12.81.28,1.14.48.33.2.63.43.88.68.25.25.46.51.64.78l-1.46.74c-.27-.38-.62-.71-1.06-.96-.43-.26-.96-.39-1.59-.39-.48,0-.93.1-1.34.29-.41.19-.76.45-1.06.79-.3.33-.53.72-.69,1.16-.16.44-.24.9-.24,1.4s.08.96.24,1.4c.16.44.39.83.69,1.16.3.33.65.6,1.06.79.41.19.85.29,1.34.29.46,0,.87-.07,1.24-.22.37-.15.7-.35.97-.61.27-.26.49-.56.65-.91.16-.35.25-.72.28-1.12h-3.25v-1.25Z"/>
        <path class="cls-3" d="M52.43,97.91c0,.33.09.62.23.88s.36.46.64.61c.28.15.63.22,1.04.22.35,0,.66-.05.92-.15.26-.1.47-.21.64-.35.17-.14.29-.27.38-.39l.71.97c-.15.21-.35.4-.58.56-.23.17-.53.29-.87.39-.35.09-.78.14-1.29.14-.67,0-1.25-.14-1.75-.41-.5-.28-.88-.66-1.15-1.16s-.41-1.08-.41-1.76c0-.6.12-1.14.38-1.62s.61-.86,1.09-1.14c.48-.28,1.05-.42,1.72-.42.62,0,1.17.12,1.63.38s.82.61,1.07,1.08c.25.47.38,1.03.38,1.69,0,.04,0,.12,0,.25s0,.21-.02.25h-4.75ZM55.7,96.74c0-.16-.06-.34-.16-.55-.1-.2-.27-.38-.49-.54-.23-.15-.52-.23-.9-.23s-.7.07-.94.22-.42.32-.53.52c-.11.2-.18.39-.2.57h3.23Z"/>
        <path class="cls-3" d="M57.96,94.45h1.16v-2.53h1.59v2.53h1.52v1.35h-1.52v2.63c0,.33.06.58.17.74.11.17.27.25.48.25.17,0,.31-.03.42-.1.1-.07.16-.11.18-.14l.59,1.16s-.12.08-.26.15c-.15.07-.33.14-.56.2-.23.06-.49.09-.79.09-.52,0-.95-.15-1.3-.46-.35-.31-.52-.79-.52-1.46v-3.07h-1.16v-1.35Z"/>
        <path class="cls-3" d="M68.49,92.69l-1.67.93v-1.52l2.42-1.39h.83v9.9h-1.58v-7.92Z"/>
        <path class="cls-3" d="M71.58,95.66c0-.88.11-1.63.32-2.28.21-.64.5-1.18.87-1.6.36-.42.77-.74,1.23-.94.46-.21.92-.31,1.41-.31s.96.1,1.42.31c.46.21.87.52,1.23.94.36.42.65.96.85,1.6.21.65.31,1.41.31,2.28s-.1,1.68-.31,2.33c-.21.64-.5,1.17-.85,1.59s-.77.72-1.23.92-.93.3-1.42.3-.96-.1-1.41-.3-.87-.5-1.23-.92-.65-.94-.87-1.59c-.21-.65-.32-1.42-.32-2.33ZM73.17,95.66c0,.83.1,1.52.3,2.07.2.55.46.96.8,1.23s.71.4,1.13.4.8-.13,1.14-.41c.33-.27.6-.68.79-1.23.2-.55.29-1.24.29-2.07s-.1-1.5-.29-2.05c-.19-.55-.46-.97-.79-1.25-.33-.28-.71-.42-1.14-.42s-.79.14-1.13.42c-.34.28-.6.7-.8,1.25-.2.55-.3,1.23-.3,2.04Z"/>
        <path class="cls-3" d="M80.28,95.66c0-.88.11-1.63.32-2.28.21-.64.5-1.18.87-1.6.36-.42.77-.74,1.23-.94.46-.21.92-.31,1.41-.31s.96.1,1.42.31c.46.21.87.52,1.23.94.36.42.65.96.85,1.6.21.65.31,1.41.31,2.28s-.1,1.68-.31,2.33c-.21.64-.5,1.17-.85,1.59s-.77.72-1.23.92-.93.3-1.42.3-.96-.1-1.41-.3-.87-.5-1.23-.92-.65-.94-.87-1.59c-.21-.65-.32-1.42-.32-2.33ZM81.87,95.66c0,.83.1,1.52.3,2.07.2.55.46.96.8,1.23s.71.4,1.13.4.8-.13,1.14-.41c.33-.27.6-.68.79-1.23.2-.55.29-1.24.29-2.07s-.1-1.5-.29-2.05c-.19-.55-.46-.97-.79-1.25-.33-.28-.71-.42-1.14-.42s-.79.14-1.13.42c-.34.28-.6.7-.8,1.25-.2.55-.3,1.23-.3,2.04Z"/>
        <path class="cls-3" d="M89.07,92.89c0-.39.1-.75.3-1.07.2-.32.47-.57.82-.76.35-.19.74-.28,1.18-.28s.82.09,1.17.28.61.44.81.76c.2.32.3.67.3,1.07s-.1.74-.29,1.06c-.19.32-.46.57-.8.76-.34.19-.74.28-1.19.28s-.85-.09-1.2-.28c-.34-.19-.61-.44-.81-.76-.19-.32-.29-.67-.29-1.06ZM90.21,92.89c0,.35.1.63.31.84.21.21.49.31.83.31s.6-.1.82-.3c.21-.2.32-.48.32-.84s-.11-.62-.33-.84c-.22-.21-.49-.32-.81-.32s-.61.11-.82.32c-.22.21-.32.5-.32.84ZM96.6,90.71h1.11l-6.03,9.9h-1.11l6.03-9.9ZM94.64,98.43c0-.4.1-.76.3-1.08.2-.32.47-.57.81-.75.35-.18.74-.28,1.19-.28s.82.09,1.17.28c.34.18.61.44.81.75.2.32.3.68.3,1.08s-.1.73-.29,1.05c-.2.32-.46.58-.81.76-.34.19-.74.29-1.18.29s-.85-.09-1.2-.29c-.35-.19-.61-.44-.81-.76s-.29-.67-.29-1.05ZM95.78,98.43c0,.35.1.63.31.84.21.21.49.31.83.31s.6-.1.82-.31.32-.49.32-.84-.11-.63-.33-.85c-.22-.21-.49-.32-.81-.32s-.61.11-.83.32-.32.5-.32.85Z"/>
        <path class="cls-3" d="M105.83,100.61h-1.6v-6.16h1.6v1.03h-.04c.03-.12.13-.28.29-.47.16-.19.38-.36.66-.51.28-.15.62-.23,1.01-.23.29,0,.54.04.77.12.22.08.38.16.48.24l-.65,1.32c-.07-.08-.19-.16-.36-.24-.18-.08-.4-.12-.66-.12-.33,0-.6.09-.82.29-.22.19-.39.42-.51.68-.12.27-.17.51-.17.74v3.3Z"/>
        <path class="cls-3" d="M110.65,97.91c0,.33.09.62.23.88s.36.46.64.61c.28.15.63.22,1.04.22.35,0,.66-.05.92-.15.26-.1.47-.21.64-.35.17-.14.29-.27.38-.39l.71.97c-.15.21-.35.4-.58.56-.23.17-.53.29-.87.39-.35.09-.78.14-1.29.14-.67,0-1.25-.14-1.75-.41-.5-.28-.88-.66-1.15-1.16s-.41-1.08-.41-1.76c0-.6.12-1.14.38-1.62s.61-.86,1.09-1.14c.48-.28,1.05-.42,1.72-.42.62,0,1.17.12,1.63.38s.82.61,1.07,1.08c.25.47.38,1.03.38,1.69,0,.04,0,.12,0,.25s0,.21-.02.25h-4.75ZM113.92,96.74c0-.16-.06-.34-.16-.55-.1-.2-.27-.38-.49-.54-.23-.15-.52-.23-.9-.23s-.7.07-.94.22-.42.32-.53.52c-.11.2-.18.39-.2.57h3.23Z"/>
        <path class="cls-3" d="M116.1,94.45h1.19v-1.71c0-.62.12-1.12.35-1.5s.52-.67.88-.86c.36-.18.73-.27,1.11-.27.47,0,.82.06,1.07.19.25.13.4.22.45.27l-.63,1.2s-.1-.08-.23-.16c-.12-.08-.28-.12-.49-.12-.15,0-.29.04-.43.11-.14.07-.25.21-.35.41-.09.21-.14.5-.14.9v1.54h1.69v1.35h-1.69v4.81h-1.59v-4.81h-1.19v-1.35Z"/>
        <path class="cls-3" d="M123.11,97.47c0,.6.12,1.08.37,1.43.25.35.64.53,1.17.53s.93-.18,1.18-.53c.24-.36.37-.83.37-1.43v-3.02h1.59v3.22c0,.62-.12,1.16-.37,1.63-.25.47-.6.83-1.06,1.09s-1.03.39-1.7.39-1.23-.13-1.69-.39c-.47-.26-.82-.62-1.06-1.09-.25-.47-.37-1.01-.37-1.63v-3.22h1.58v3.02Z"/>
        <path class="cls-3" d="M133.05,94.27c.42,0,.82.09,1.21.26.39.17.71.44.96.81.25.37.38.86.38,1.45v3.82h-1.61v-3.53c0-.55-.13-.96-.39-1.23s-.6-.39-1.02-.39c-.28,0-.54.08-.79.23-.25.15-.45.36-.61.63-.16.26-.24.57-.24.92v3.37h-1.6v-6.16h1.6v1.04c.04-.17.17-.35.36-.54.2-.19.45-.35.75-.48.3-.13.63-.2.99-.2Z"/>
        <path class="cls-3" d="M139.82,100.79c-.58,0-1.09-.14-1.54-.41-.44-.28-.79-.66-1.05-1.15s-.38-1.05-.38-1.7.13-1.21.38-1.69c.25-.49.6-.87,1.05-1.15.44-.28.96-.42,1.54-.42.43,0,.81.07,1.15.22s.6.32.8.51c.2.2.32.37.35.52v-5.24h1.6v10.32h-1.58v-1.14c-.07.17-.21.36-.43.57s-.49.38-.81.53c-.33.15-.69.22-1.08.22ZM140.23,99.49c.35,0,.67-.08.95-.25.29-.17.51-.39.68-.69.17-.29.25-.63.25-1.02s-.08-.73-.25-1.02c-.17-.29-.4-.52-.68-.69-.28-.17-.6-.25-.95-.25-.32,0-.62.08-.89.24-.27.16-.49.39-.66.69-.17.3-.25.64-.25,1.04s.08.74.25,1.04c.16.29.38.52.66.68.27.16.57.24.89.24Z"/>
        <path class="cls-9" d="M151.74,100.79c-.64,0-1.22-.14-1.72-.42-.5-.28-.9-.67-1.18-1.15-.29-.49-.43-1.04-.43-1.66s.14-1.18.43-1.67.68-.89,1.18-1.17,1.08-.43,1.72-.43,1.21.14,1.71.43c.5.29.88.68,1.17,1.17.28.5.42,1.05.42,1.67s-.14,1.17-.42,1.66c-.28.49-.67.87-1.17,1.15-.49.28-1.06.42-1.71.42ZM151.74,99.44c.36,0,.67-.08.94-.25.27-.16.47-.39.62-.67.14-.29.22-.61.22-.97s-.07-.69-.22-.98c-.15-.29-.35-.52-.62-.69s-.58-.25-.94-.25-.67.08-.94.25-.47.4-.62.69c-.15.29-.22.61-.22.98s.07.69.22.97c.15.29.36.51.62.67.27.17.58.25.94.25Z"/>
        <path class="cls-9" d="M160,94.27c.42,0,.82.09,1.21.26.39.17.71.44.96.81.25.37.38.86.38,1.45v3.82h-1.61v-3.53c0-.55-.13-.96-.39-1.23s-.6-.39-1.02-.39c-.27,0-.54.08-.79.23-.25.15-.45.36-.61.63-.16.26-.24.57-.24.92v3.37h-1.6v-6.16h1.6v1.04c.04-.17.17-.35.36-.54.2-.19.45-.35.75-.48.31-.13.64-.2.99-.2Z"/>
        <path class="cls-9" d="M171.49,94.27c.42,0,.82.09,1.21.26.39.17.71.44.96.81.25.37.38.86.38,1.45v3.82h-1.61v-3.53c0-.55-.13-.96-.39-1.23s-.6-.39-1.02-.39c-.27,0-.54.08-.79.23-.25.15-.45.36-.61.63-.16.26-.24.57-.24.92v3.37h-1.6v-6.16h1.6v1.04c.04-.17.17-.35.36-.54.2-.19.45-.35.75-.48.31-.13.64-.2.99-.2Z"/>
        <path class="cls-9" d="M178.49,100.79c-.64,0-1.22-.14-1.72-.42-.5-.28-.9-.67-1.18-1.15-.29-.49-.43-1.04-.43-1.66s.14-1.18.43-1.67.68-.89,1.18-1.17c.5-.29,1.08-.43,1.72-.43s1.21.14,1.71.43.88.68,1.17,1.17c.28.5.42,1.05.42,1.67s-.14,1.17-.42,1.66c-.28.49-.67.87-1.17,1.15-.5.28-1.06.42-1.71.42ZM178.49,99.44c.36,0,.67-.08.94-.25.27-.16.47-.39.62-.67.14-.29.22-.61.22-.97s-.07-.69-.22-.98c-.15-.29-.35-.52-.62-.69-.26-.17-.58-.25-.94-.25s-.67.08-.94.25-.47.4-.62.69c-.15.29-.22.61-.22.98s.07.69.22.97.35.51.62.67c.27.17.58.25.94.25Z"/>
        <path class="cls-9" d="M186.76,94.27c.42,0,.82.09,1.21.26.39.17.71.44.96.81.25.37.38.86.38,1.45v3.82h-1.61v-3.53c0-.55-.13-.96-.39-1.23s-.6-.39-1.02-.39c-.27,0-.54.08-.79.23-.25.15-.45.36-.61.63-.16.26-.24.57-.24.92v3.37h-1.6v-6.16h1.6v1.04c.04-.17.17-.35.36-.54.2-.19.45-.35.75-.48.31-.13.64-.2.99-.2Z"/>
        <path class="cls-9" d="M190.9,97.88v-1.38h3.86v1.38h-3.86Z"/>
        <path class="cls-9" d="M199.18,100.79c-.58,0-1.09-.14-1.54-.41-.45-.28-.79-.66-1.05-1.15-.25-.49-.38-1.05-.38-1.7s.13-1.21.38-1.69c.25-.49.6-.87,1.05-1.15.45-.28.96-.42,1.54-.42.43,0,.81.07,1.15.22s.6.32.8.51.32.37.35.52v-5.24h1.61v10.32h-1.58v-1.14c-.07.17-.21.36-.43.57-.21.21-.49.38-.81.53s-.69.22-1.08.22ZM199.59,99.49c.35,0,.67-.08.95-.25s.51-.39.68-.69c.17-.29.25-.63.25-1.02s-.08-.73-.25-1.02c-.17-.29-.4-.52-.68-.69-.29-.17-.6-.25-.95-.25-.32,0-.62.08-.89.24-.27.16-.49.39-.66.69-.17.3-.25.64-.25,1.04s.08.74.25,1.04.38.52.66.68.57.24.89.24Z"/>
        <path class="cls-9" d="M205.53,97.91c0,.33.09.62.23.88.15.26.36.46.64.61s.63.22,1.04.22c.35,0,.66-.05.92-.15.26-.1.47-.21.64-.35.17-.14.29-.27.38-.39l.71.97c-.16.21-.35.4-.58.56-.24.17-.53.29-.87.39-.35.09-.78.14-1.29.14-.67,0-1.25-.14-1.75-.41-.49-.28-.88-.66-1.15-1.16-.27-.5-.41-1.08-.41-1.76,0-.6.12-1.14.38-1.62s.61-.86,1.09-1.14c.48-.28,1.05-.42,1.72-.42.62,0,1.17.12,1.63.38.46.25.82.61,1.07,1.08.25.47.38,1.03.38,1.69,0,.04,0,.12,0,.25,0,.12,0,.21-.02.25h-4.75ZM208.8,96.74c0-.16-.06-.34-.16-.55-.1-.2-.27-.38-.49-.54-.23-.15-.53-.23-.9-.23s-.7.07-.94.22-.42.32-.53.52c-.12.2-.18.39-.2.57h3.23Z"/>
        <path class="cls-9" d="M213.23,100.61h-1.61v-10.32h1.61v10.32Z"/>
        <path class="cls-9" d="M215.84,92.6c-.27,0-.5-.1-.69-.29s-.29-.43-.29-.7.1-.5.29-.7c.19-.2.42-.3.69-.3.18,0,.35.05.5.14.15.09.28.21.37.36.09.15.14.31.14.5,0,.27-.1.5-.29.7s-.43.29-.71.29ZM215.03,100.61v-6.16h1.6v6.16h-1.6Z"/>
        <path class="cls-9" d="M217.82,94.45h1.72l1.85,4.69,1.85-4.69h1.71l-2.62,6.16h-1.88l-2.63-6.16Z"/>
        <path class="cls-9" d="M227.12,97.91c0,.33.09.62.23.88.15.26.36.46.64.61s.63.22,1.04.22c.35,0,.66-.05.92-.15.26-.1.47-.21.64-.35.17-.14.29-.27.38-.39l.71.97c-.16.21-.35.4-.58.56-.24.17-.53.29-.87.39-.35.09-.78.14-1.29.14-.67,0-1.25-.14-1.75-.41-.49-.28-.88-.66-1.15-1.16-.27-.5-.41-1.08-.41-1.76,0-.6.12-1.14.38-1.62s.61-.86,1.09-1.14c.48-.28,1.05-.42,1.72-.42.62,0,1.17.12,1.63.38.46.25.82.61,1.07,1.08.25.47.38,1.03.38,1.69,0,.04,0,.12,0,.25,0,.12,0,.21-.02.25h-4.75ZM230.39,96.74c0-.16-.06-.34-.16-.55-.1-.2-.27-.38-.49-.54-.23-.15-.53-.23-.9-.23s-.7.07-.94.22-.42.32-.53.52c-.12.2-.18.39-.2.57h3.23Z"/>
        <path class="cls-9" d="M234.71,100.61h-1.6v-6.16h1.6v1.03h-.04c.04-.12.13-.28.29-.47.16-.19.38-.36.66-.51.28-.15.62-.23,1.01-.23.29,0,.54.04.77.12.22.08.38.16.48.24l-.64,1.32c-.07-.08-.19-.16-.36-.24-.18-.08-.4-.12-.66-.12-.33,0-.6.09-.82.29-.22.19-.39.42-.51.68-.12.27-.17.51-.17.74v3.3Z"/>
        <path class="cls-9" d="M241.3,99.17l1.95-4.72h1.6l-4.19,9.28h-1.62l1.41-3.12-2.55-6.16h1.62l1.78,4.72Z"/>
        <path class="cls-9" d="M252.34,100.79c-.64,0-1.22-.14-1.72-.42-.5-.28-.9-.67-1.18-1.15-.29-.49-.43-1.04-.43-1.66s.14-1.18.43-1.67.68-.89,1.18-1.17c.5-.29,1.08-.43,1.72-.43s1.21.14,1.71.43.88.68,1.17,1.17c.28.5.42,1.05.42,1.67s-.14,1.17-.42,1.66c-.28.49-.67.87-1.17,1.15-.5.28-1.06.42-1.71.42ZM252.34,99.44c.36,0,.67-.08.94-.25.27-.16.47-.39.62-.67.14-.29.22-.61.22-.97s-.07-.69-.22-.98c-.15-.29-.35-.52-.62-.69-.26-.17-.58-.25-.94-.25s-.67.08-.94.25-.47.4-.62.69c-.15.29-.22.61-.22.98s.07.69.22.97.35.51.62.67c.27.17.58.25.94.25Z"/>
        <path class="cls-9" d="M258.44,100.61h-1.6v-6.16h1.6v1.03h-.04c.04-.12.13-.28.29-.47.16-.19.38-.36.66-.51.28-.15.62-.23,1.01-.23.29,0,.54.04.77.12.22.08.38.16.48.24l-.64,1.32c-.07-.08-.19-.16-.36-.24-.18-.08-.4-.12-.66-.12-.33,0-.6.09-.82.29-.22.19-.39.42-.51.68-.12.27-.17.51-.17.74v3.3Z"/>
        <path class="cls-9" d="M268.74,100.79c-.58,0-1.09-.14-1.54-.41-.45-.28-.79-.66-1.05-1.15-.25-.49-.38-1.05-.38-1.7s.13-1.21.38-1.69c.25-.49.6-.87,1.05-1.15.45-.28.96-.42,1.54-.42.43,0,.81.07,1.15.22s.6.32.8.51.32.37.35.52v-5.24h1.61v10.32h-1.58v-1.14c-.07.17-.21.36-.43.57-.21.21-.49.38-.81.53s-.69.22-1.08.22ZM269.15,99.49c.35,0,.67-.08.95-.25s.51-.39.68-.69c.17-.29.25-.63.25-1.02s-.08-.73-.25-1.02c-.17-.29-.4-.52-.68-.69-.29-.17-.6-.25-.95-.25-.32,0-.62.08-.89.24-.27.16-.49.39-.66.69-.17.3-.25.64-.25,1.04s.08.74.25,1.04.38.52.66.68.57.24.89.24Z"/>
        <path class="cls-9" d="M275.09,97.91c0,.33.09.62.23.88.15.26.36.46.64.61s.63.22,1.04.22c.35,0,.66-.05.92-.15.26-.1.47-.21.64-.35.17-.14.29-.27.38-.39l.71.97c-.16.21-.35.4-.58.56-.24.17-.53.29-.87.39-.35.09-.78.14-1.29.14-.67,0-1.25-.14-1.75-.41-.49-.28-.88-.66-1.15-1.16-.27-.5-.41-1.08-.41-1.76,0-.6.12-1.14.38-1.62s.61-.86,1.09-1.14c.48-.28,1.05-.42,1.72-.42.62,0,1.17.12,1.63.38.46.25.82.61,1.07,1.08.25.47.38,1.03.38,1.69,0,.04,0,.12,0,.25,0,.12,0,.21-.02.25h-4.75ZM278.36,96.74c0-.16-.06-.34-.16-.55-.1-.2-.27-.38-.49-.54-.23-.15-.53-.23-.9-.23s-.7.07-.94.22-.42.32-.53.52c-.12.2-.18.39-.2.57h3.23Z"/>
        <path class="cls-9" d="M280.55,94.45h1.18v-1.71c0-.62.12-1.12.34-1.5.23-.39.52-.67.88-.86s.73-.27,1.11-.27c.46,0,.82.06,1.07.19.25.13.4.22.45.27l-.63,1.2s-.11-.08-.23-.16c-.12-.08-.28-.12-.49-.12-.15,0-.29.04-.43.11-.14.07-.25.21-.35.41s-.14.5-.14.9v1.54h1.69v1.35h-1.69v4.81h-1.59v-4.81h-1.18v-1.35Z"/>
        <path class="cls-9" d="M287.14,97.91c0,.33.09.62.23.88.15.26.36.46.64.61s.63.22,1.04.22c.35,0,.66-.05.92-.15.26-.1.47-.21.64-.35.17-.14.29-.27.38-.39l.71.97c-.16.21-.35.4-.58.56-.24.17-.53.29-.87.39-.35.09-.78.14-1.29.14-.67,0-1.25-.14-1.75-.41-.49-.28-.88-.66-1.15-1.16-.27-.5-.41-1.08-.41-1.76,0-.6.12-1.14.38-1.62s.61-.86,1.09-1.14c.48-.28,1.05-.42,1.72-.42.62,0,1.17.12,1.63.38.46.25.82.61,1.07,1.08.25.47.38,1.03.38,1.69,0,.04,0,.12,0,.25,0,.12,0,.21-.02.25h-4.75ZM290.41,96.74c0-.16-.06-.34-.16-.55-.1-.2-.27-.38-.49-.54-.23-.15-.53-.23-.9-.23s-.7.07-.94.22-.42.32-.53.52c-.12.2-.18.39-.2.57h3.23Z"/>
        <path class="cls-9" d="M296.24,99.49c.35,0,.64-.06.87-.18.22-.12.37-.2.43-.26l.76,1.12c-.06.05-.18.12-.38.22s-.43.19-.72.27c-.29.08-.62.12-.99.12-.61,0-1.16-.13-1.66-.39-.5-.26-.89-.63-1.19-1.12-.3-.49-.45-1.07-.45-1.76s.15-1.28.45-1.76c.3-.49.7-.86,1.19-1.11.5-.25,1.05-.38,1.66-.38.37,0,.69.04.98.12.29.08.53.18.72.28.19.11.32.19.38.25l-.77,1.12s-.11-.09-.21-.17c-.11-.08-.25-.15-.42-.21-.17-.07-.38-.1-.63-.1-.3,0-.59.08-.86.24-.28.16-.5.39-.68.68-.17.29-.26.64-.26,1.04s.09.75.26,1.04.4.52.68.68c.27.16.56.24.86.24Z"/>
        <path class="cls-9" d="M298.82,94.45h1.15v-2.53h1.59v2.53h1.52v1.35h-1.52v2.63c0,.33.06.58.17.74.11.17.27.25.48.25.17,0,.31-.03.42-.1.1-.07.16-.11.18-.14l.59,1.16s-.12.08-.26.15c-.14.07-.33.14-.56.2-.23.06-.49.09-.79.09-.52,0-.95-.15-1.3-.46-.35-.31-.52-.79-.52-1.46v-3.07h-1.15v-1.35Z"/>
        <path class="cls-9" d="M306.82,94.27c.34,0,.67.03.96.1.29.07.55.14.76.23s.35.17.43.23l-.58.99c-.1-.08-.28-.18-.54-.29s-.55-.17-.87-.17-.59.06-.81.17c-.22.11-.33.29-.33.52s.12.4.35.54c.23.13.55.25.95.34.33.08.65.18.95.31s.55.32.74.56.29.57.29.97-.08.71-.24.96c-.16.26-.38.46-.65.62-.27.16-.57.27-.9.33-.33.07-.66.1-.99.1-.4,0-.77-.04-1.08-.12-.32-.08-.58-.17-.79-.28-.21-.11-.36-.2-.45-.27l.58-1.11c.13.13.34.26.64.39.29.14.62.21.99.21.39,0,.7-.08.94-.23.24-.15.35-.35.35-.6,0-.18-.06-.33-.17-.45-.11-.11-.27-.21-.46-.28s-.41-.13-.65-.19c-.22-.05-.45-.13-.68-.21-.23-.09-.44-.2-.63-.34-.19-.14-.34-.32-.46-.54s-.17-.47-.17-.76c0-.37.12-.68.35-.95.24-.26.54-.46.93-.59.38-.13.8-.2,1.24-.2Z"/>
      </g>
      <g>
        <path class="cls-14" d="M22.1,97.76v-1.33h1.61c.7,0,1.23-.1,1.58-.29.36-.19.59-.5.69-.93h-3.87v-1.33h3.84c-.24-.8-.97-1.2-2.17-1.2h-1.68v-1.46h7.58l-.29,1.46h-2.27c.4.29.67.69.79,1.2h1.24l-.27,1.33h-.96c-.12.76-.46,1.36-1.01,1.79-.55.43-1.28.69-2.19.76l-.2.02,3.84,3.96h-2.67l-3.6-3.97Z"/>
        <path class="cls-14" d="M25.78,87.4c-4.43,0-8.1,3.34-8.62,7.65h-.94c-.14,0-.23.16-.15.28l1.55,2.3c.07.11.23.11.3,0l1.56-2.29c.08-.12,0-.29-.15-.29h-.94c.51-3.63,3.63-6.43,7.39-6.43,2.85,0,5.41,1.6,6.68,4.12.14.29.48.42.78.3.32-.13.47-.52.32-.83-1.47-2.94-4.45-4.8-7.77-4.8Z"/>
        <path class="cls-14" d="M35.49,96.83l-1.55-2.3c-.07-.11-.23-.11-.3,0l-1.56,2.29c-.08.12,0,.28.15.28h.94c-.51,3.63-3.63,6.43-7.39,6.43-2.85,0-5.41-1.6-6.68-4.12-.14-.29-.48-.42-.78-.3-.32.13-.47.52-.32.83,1.47,2.94,4.45,4.8,7.77,4.8,4.43,0,8.1-3.35,8.62-7.65h.94c.14,0,.23-.16.15-.28h0Z"/>
      </g>
      <circle class="cls-12" cx="31.61" cy="34.43" r="15.46"/>
      <circle class="cls-8" cx="31.61" cy="34.43" r="12.82"/>
      <path class="cls-4" d="M44.43,34.43c0,7.08-5.74,12.82-12.82,12.82-.28,0-.55,0-.82-.03,6.7-.42,12-5.99,12-12.79s-5.3-12.37-12-12.79c.27-.02.54-.03.82-.03,7.08,0,12.82,5.74,12.82,12.82Z"/>
      <path class="cls-14" d="M31.61,20.63v25.64c-7.08,0-12.82-5.74-12.82-12.82s5.74-12.82,12.82-12.82Z"/>
      <path class="cls-5" d="M32.43,47.22c-.27.02-.54.03-.82.03-7.08,0-12.82-5.74-12.82-12.82s5.74-12.82,12.82-12.82c.28,0,.55,0,.82.03-6.7.42-12,5.99-12,12.79s5.3,12.37,12,12.79Z"/>
      <path class="cls-4" d="M27.52,38.46v-1.64h1.98c.86,0,1.51-.12,1.95-.35.44-.24.72-.62.85-1.14h-4.75v-1.64h4.71c-.3-.98-1.19-1.47-2.66-1.47h-2.07v-1.79h9.32l-.35,1.79h-2.79c.5.36.82.85.97,1.47h1.53l-.34,1.64h-1.17c-.15.93-.56,1.67-1.24,2.2-.68.53-1.57.84-2.69.93l-.24.02,4.71,4.86h-3.28l-4.42-4.88Z"/>
      <g>
        <path class="cls-4" d="M38.11,29.88s-.06-.01-.09-.04c-.75-.74-1.59-1.37-2.5-1.89-1.18-.67-2.29-1.29-3.71-1.29-.11,0-.21,0-.32.01-1.18.08-2.34.58-3.46,1.48-.27.22-.41.34-.48.41l.56.29.58.37s.07.09.05.14c-.02.05-.06.09-.12.09,0,0-3.52.04-3.52.04-.04,0-.08-.02-.1-.05-.02-.03-.03-.07-.02-.11l1.09-3.61s.04-.07.08-.08c.01,0,.02,0,.04,0,.03,0,.06,0,.08.03.02.02.08.08.09.11l.26,1.31s.13-.11.15-.12c.41-.29,2.49-1.48,4.35-1.57.08,0,.17,0,.26,0,2.5,0,5.17,1.65,6.79,4.21,0,0,.05.09.05.09.03.05.01.12-.04.16-.02.02-.05.02-.07.02Z"/>
        <path class="cls-4" d="M31.38,25.52c2.28,0,4.98,1.46,6.69,4.15.01.03.03.05.04.08-.53-.53-1.37-1.25-2.52-1.91-1.23-.7-2.34-1.31-3.77-1.31-.11,0-.22,0-.33.01-1.2.08-2.38.57-3.53,1.5-.12.1-.48.39-.56.5-.01.02-.02.03-.02.05l.68.35.57.37-3.52.04,1.09-3.61.05.04.28,1.43s.01.06.05.06c0,0,0,0,0,0,.02,0,.22-.19.27-.22.29-.2,2.39-1.45,4.28-1.54.08,0,.17,0,.25,0M31.38,25.27c-.09,0-.18,0-.26,0-1.88.09-3.97,1.28-4.41,1.58l-.22-1.11c-.01-.06-.04-.11-.08-.14l-.05-.04s-.1-.06-.16-.06c-.02,0-.05,0-.07.01-.08.02-.14.09-.17.17l-1.09,3.61c-.02.08,0,.16.04.22.05.06.12.1.2.1,0,0,0,0,0,0l3.52-.04c.11,0,.21-.07.24-.18.03-.11-.01-.22-.11-.28l-.57-.37-.42-.22c.08-.07.19-.16.34-.29,1.1-.89,2.24-1.37,3.39-1.45.11,0,.21-.01.32-.01,1.39,0,2.49.62,3.65,1.28.9.51,1.73,1.14,2.47,1.87.05.05.11.07.18.07.05,0,.1-.02.15-.05.1-.07.13-.21.07-.32,0,0-.05-.1-.05-.1-1.64-2.59-4.35-4.27-6.9-4.27h0Z"/>
      </g>
      <g>
        <path class="cls-9" d="M65.98,43.69c0-2.17.03-4.63.08-5.99h-.08c-.56,2.45-2.04,7.31-3.19,10.83h-1.92c-.85-2.96-2.37-8.4-2.91-10.86h-.09c.1,1.44.15,4.15.15,6.28v4.58h-2.02v-12.37h3.27c1.02,3.15,2.32,7.72,2.69,9.53h.02c.26-1.46,1.87-6.35,2.94-9.53h3.16v12.37h-2.11v-4.84Z"/>
        <path class="cls-9" d="M78.55,43.77c0,2.69-1.25,4.93-4.33,4.93s-4.24-2.37-4.24-4.88c0-2.35,1.31-4.72,4.36-4.72,2.86,0,4.21,2.11,4.21,4.67ZM72.14,43.77c0,2.03.75,3.24,2.17,3.24s2.09-1.2,2.09-3.23c0-1.89-.7-3-2.15-3-1.37,0-2.11,1.19-2.11,2.99Z"/>
        <path class="cls-9" d="M80.38,42.17c0-1.92-.02-2.49-.04-2.89h2.07c.03.17.08.86.07,1.28.38-.76,1.24-1.46,2.63-1.46,1.87,0,2.93,1.15,2.93,3.4v6.03h-2.13v-5.65c0-1.15-.32-2.01-1.55-2.01s-1.87.84-1.87,2.57v5.09h-2.12v-6.37Z"/>
        <path class="cls-9" d="M92.04,44.37c0,1.38.55,2.64,2.01,2.64,1.23,0,1.61-.81,1.76-1.24h2.08c-.4,1.41-1.42,2.93-3.92,2.93-2.94,0-4.08-2.1-4.08-4.8,0-2.29,1.14-4.8,4.18-4.8s3.94,2.23,3.94,4.53c0,.1-.01.62-.03.74h-5.95ZM95.94,42.94c-.04-1.22-.53-2.22-1.9-2.22-1.53,0-1.91,1.3-1.96,2.22h3.87Z"/>
        <path class="cls-9" d="M101.08,39.28c1.2,4.12,1.87,6.3,2.04,7.38h.02c.26-1.1,1.09-4.19,2.03-7.38h2.14l-3.18,9.66c-.96,2.92-1.98,3.34-3.57,3.34-.19,0-.62-.03-.89-.08v-1.74c.23.04.61.05.83.05.89,0,1.27-.63,1.57-1.59l-3.26-9.64h2.26Z"/>
        <path class="cls-9" d="M113.62,35.43h2.12v4.95c.4-.64,1.16-1.28,2.63-1.28,2.34,0,3.56,1.99,3.56,4.51,0,2.92-1.28,5.08-3.89,5.08-1.36,0-2.01-.58-2.33-1.15,0,.33-.03.66-.07.99h-2.07c.02-.58.04-1.75.04-2.75v-10.35ZM119.79,43.7c0-1.67-.64-2.84-2.06-2.84-1.58,0-2.1,1.04-2.1,2.96,0,2.03.5,3.13,2.08,3.13,1.43,0,2.08-1.29,2.08-3.26Z"/>
        <path class="cls-9" d="M130.74,46.25c0,.63.05,1.68.13,2.28h-1.88c-.07-.29-.13-.83-.14-1.22-.37.81-1.27,1.39-2.66,1.39-2.28,0-3.05-1.46-3.05-2.82,0-1.57,1.07-3,4.31-3h1.2v-.75c0-.8-.24-1.49-1.49-1.49-1.17,0-1.5.57-1.6,1.37h-2.06c.11-1.49.99-2.9,3.7-2.9,2.1,0,3.53.76,3.53,2.99v4.16ZM128.73,44.27h-1.24c-1.86,0-2.2.75-2.2,1.45s.43,1.33,1.44,1.33c1.57,0,2-1.05,2-2.59v-.19Z"/>
        <path class="cls-9" d="M140.6,45.4c-.31,1.84-1.47,3.3-3.93,3.3-2.76,0-4.08-1.74-4.08-4.79,0-2.84,1.53-4.81,4.21-4.81,2.84,0,3.72,2.01,3.8,3.38h-2.12c-.12-.91-.57-1.73-1.72-1.73-1.42,0-2,1.27-2,3.09,0,2.23.72,3.23,1.96,3.23,1.13,0,1.53-.72,1.78-1.67h2.11Z"/>
        <path class="cls-9" d="M144.42,43.29c.73-.88,2.16-2.62,3.24-4.01h2.42c-.94,1.11-2.1,2.39-3.12,3.57,1.06,1.71,2.33,3.86,3.42,5.68h-2.45c-.66-1.18-1.67-3.01-2.38-4.27-.11.12-1.02,1.09-1.14,1.21v3.06h-2.12v-13.1h2.12v7.86Z"/>
        <path class="cls-9" d="M155.91,36.16h4.42c2.32,0,4.24,1.19,4.24,3.6s-1.83,3.8-4.45,3.8h-2.02v4.96h-2.19v-12.37ZM158.1,41.83h1.89c1.43,0,2.35-.52,2.35-2.02,0-1.33-.94-1.9-2.3-1.9h-1.95v3.91Z"/>
        <path class="cls-9" d="M166.11,42.42c0-1.51,0-2.56-.04-3.14h2.07c.04.41.06,1,.06,1.71.35-.9,1.23-1.85,2.87-1.86v2.16c-1.97,0-2.84.84-2.84,2.93v4.32h-2.12v-6.12Z"/>
        <path class="cls-9" d="M180.48,43.77c0,2.69-1.25,4.93-4.33,4.93s-4.24-2.37-4.24-4.88c0-2.35,1.31-4.72,4.36-4.72,2.86,0,4.21,2.11,4.21,4.67ZM174.07,43.77c0,2.03.75,3.24,2.17,3.24s2.09-1.2,2.09-3.23c0-1.89-.7-3-2.15-3-1.37,0-2.11,1.19-2.11,2.99Z"/>
        <path class="cls-9" d="M182.31,42.15c0-1.77-.02-2.45-.04-2.87h2.06c.04.29.07.83.07,1.17.47-.76,1.28-1.35,2.58-1.35s1.99.6,2.33,1.49c.41-.77,1.37-1.49,2.76-1.49,1.51,0,2.89.79,2.89,3.2v6.23h-2.08v-5.88c0-.93-.32-1.79-1.45-1.79-1.23,0-1.74.94-1.74,2.35v5.33h-2.08v-5.96c0-.94-.42-1.7-1.45-1.7-1.14,0-1.76.76-1.76,2.46v5.2h-2.1v-6.38Z"/>
        <path class="cls-9" d="M197.38,35.43h2.12v2.14h-2.12v-2.14ZM197.38,39.28h2.12v9.25h-2.12v-9.25Z"/>
        <path class="cls-9" d="M203.15,45.75c.13.88.77,1.39,1.75,1.39s1.47-.45,1.47-1.11-.55-.99-2.01-1.39c-2.39-.67-2.97-1.52-2.97-2.81,0-1.19.77-2.73,3.38-2.73,2.38,0,3.36,1.25,3.47,2.76h-2.07c-.1-.58-.42-1.2-1.5-1.2-.79,0-1.2.36-1.2.97,0,.56.36.84,1.77,1.21,2.47.64,3.23,1.52,3.23,3,0,1.84-1.51,2.86-3.63,2.86s-3.58-.97-3.77-2.95h2.08Z"/>
        <path class="cls-9" d="M211.88,44.37c0,1.38.55,2.64,2.01,2.64,1.23,0,1.61-.81,1.76-1.24h2.08c-.4,1.41-1.42,2.93-3.92,2.93-2.94,0-4.08-2.1-4.08-4.8,0-2.29,1.14-4.8,4.18-4.8s3.94,2.23,3.94,4.53c0,.1-.01.62-.03.74h-5.95ZM215.79,42.94c-.04-1.22-.53-2.22-1.9-2.22-1.53,0-1.91,1.3-1.96,2.22h3.87Z"/>
      </g>
      <path d="M72,30.21h5.36v2.15h-7.77v-12.07h2.42s0,9.92,0,9.92Z"/>
      <path d="M79.42,32.37h7.8v-2.15h-5.38v-3.24h3.91v-2.08h-3.91v-2.45h5.46v-2.15h-7.87s0,12.07,0,12.07Z"/>
      <path d="M99.52,20.2h-1.35l-2.39,7.59-2.47-7.59h-1.34l-2.47,12.1h2.34l1.22-5.94,2.22,6.11h.97l2.24-6.11,1.15,5.94h2.37l-2.47-11.97-.03-.12h0Z"/>
      <path d="M112.5,21.16v-.87h-8.05v2.15h4.78l-4.86,9.05v.87h8.29v-2.15h-5.03l4.86-9.05h0Z"/>
      <path d="M122.94,20.3l-2.72,4.85-2.72-4.85h-2.59l4.11,7.12v4.95h2.39v-4.95l4.11-7.12h-2.59Z"/>
      <path d="M66.22,22.45l-5.48,3.02,1.07,1.9,3.56-1.95c.2,1.07.03,2.15-.5,3.02-.52.89-1.37,1.51-2.42,1.76-1.72.42-3.39-.2-4.38-1.61-.97-1.41-.95-3.17.05-4.58,1.02-1.46,2.96-2.03,4.81-1.43h.1s2.12-1.16,2.12-1.16l-.27-.2c-1.32-.89-2.91-1.24-4.54-.94-1.59.27-2.99,1.14-3.94,2.43-1.15,1.58-1.5,3.59-.9,5.49.57,1.85,1.92,3.29,3.74,3.96.72.27,1.45.4,2.19.4,1.25,0,2.49-.4,3.56-1.14,1.7-1.19,2.69-3.14,2.67-5.22-.03-1.31-.52-2.65-1.32-3.56l-.12-.12v-.05h0Z"/>
      <g>
        <line class="cls-2" x1="303.72" y1="33.28" x2="310.44" y2="40.07"/>
        <line class="cls-2" x1="303.69" y1="46.86" x2="310.47" y2="40.14"/>
      </g>
      <g>
        <path class="cls-10" d="M78.65,60.1h2.96c1.52,0,2.56.85,2.56,2.26,0,1.53-1.11,2.31-2.61,2.31h-1.76v3.1h-1.14v-7.67ZM79.8,63.73h1.68c1,0,1.53-.47,1.53-1.34s-.62-1.34-1.49-1.34h-1.72v2.69Z"/>
        <path class="cls-10" d="M89.42,66.5c0,.52.04,1.11.08,1.27h-1.04c-.04-.12-.08-.4-.09-.7-.2.36-.63.83-1.71.83-1.33,0-1.9-.87-1.9-1.73,0-1.26.99-1.84,2.66-1.84h.93v-.45c0-.48-.16-1.04-1.14-1.04-.88,0-1.04.43-1.14.86h-1.04c.08-.82.58-1.7,2.22-1.69,1.4,0,2.17.57,2.17,1.86v2.62ZM88.36,65.07h-.86c-1.09,0-1.64.31-1.64,1.05,0,.55.37.96,1.04.96,1.28,0,1.45-.87,1.45-1.84v-.17Z"/>
        <path class="cls-10" d="M91.43,62.15c.84,2.55,1.35,4.09,1.48,4.65h.01c.17-.62.56-1.9,1.43-4.65h1.09l-2,5.86c-.57,1.64-.99,2.07-2.18,2.07-.17,0-.4-.01-.63-.04v-.92c.13.02.3.03.45.03.69,0,.96-.29,1.27-1.17l-2.09-5.83h1.17Z"/>
        <path class="cls-10" d="M96.44,63.6c0-.49,0-.99-.01-1.45h1.04c.02.16.04.56.04.83.26-.49.75-.96,1.62-.96.8,0,1.33.41,1.54.98.31-.52.83-.98,1.78-.98s1.77.55,1.77,2.06v3.7h-1.06v-3.56c0-.62-.22-1.28-1.06-1.28s-1.24.64-1.24,1.61v3.23h-1.06v-3.53c0-.7-.19-1.31-1.03-1.31s-1.26.66-1.26,1.72v3.12h-1.07v-4.17Z"/>
        <path class="cls-10" d="M106.54,65.17c0,1.06.54,1.85,1.46,1.85.84,0,1.11-.42,1.28-.82h1.09c-.22.71-.82,1.71-2.41,1.71-1.78,0-2.52-1.43-2.52-2.88,0-1.69.85-3.01,2.58-3.01,1.84,0,2.44,1.44,2.44,2.68,0,.17,0,.31-.02.47h-3.92ZM109.38,64.43c-.01-.87-.44-1.58-1.36-1.58s-1.35.65-1.44,1.58h2.8Z"/>
        <path class="cls-10" d="M111.69,63.57c0-.49,0-.99-.01-1.42h1.05c.03.16.04.71.04.88.22-.46.68-1.02,1.74-1.02s1.88.67,1.88,2.15v3.61h-1.08v-3.48c0-.81-.31-1.36-1.13-1.36-.98,0-1.4.72-1.4,1.83v3.01h-1.08v-4.21Z"/>
        <path class="cls-10" d="M117.23,62.15h.95v-1.63h1.08v1.63h1.21v.87h-1.21v3.19c0,.52.13.78.63.78.12,0,.32,0,.46-.04v.8c-.25.09-.6.1-.88.1-.92,0-1.3-.48-1.3-1.42v-3.41h-.95v-.87Z"/>
        <path class="cls-10" d="M122.19,66.15c.15.58.59.92,1.32.92.78,0,1.08-.33,1.08-.81s-.26-.72-1.28-.97c-1.65-.4-1.98-.91-1.98-1.68s.58-1.61,2.08-1.61,2.09.86,2.16,1.64h-1.04c-.07-.33-.32-.82-1.16-.82-.74,0-.96.35-.96.7,0,.39.22.59,1.23.83,1.74.41,2.06,1,2.06,1.83,0,.98-.77,1.72-2.23,1.72s-2.22-.75-2.36-1.76h1.08Z"/>
        <path class="cls-10" d="M129.86,60.1h2.96c1.52,0,2.56.85,2.56,2.26,0,1.53-1.11,2.31-2.61,2.31h-1.76v3.1h-1.14v-7.67ZM131,63.73h1.68c1,0,1.53-.47,1.53-1.34s-.62-1.34-1.49-1.34h-1.72v2.69Z"/>
        <path class="cls-10" d="M141.29,64.95c0,1.64-.95,2.96-2.68,2.96-1.64,0-2.62-1.25-2.62-2.93s.97-2.96,2.69-2.96c1.58,0,2.61,1.17,2.61,2.93ZM137.1,64.96c0,1.21.59,2.05,1.55,2.05s1.53-.81,1.53-2.05-.55-2.06-1.55-2.06-1.52.79-1.52,2.05Z"/>
        <path class="cls-10" d="M143.05,62.15c.66,2.56,1.04,4.03,1.13,4.63h.02c.1-.54.46-1.84,1.23-4.63h1.05c.83,3.1,1.08,4,1.17,4.53h.01c.13-.6.35-1.44,1.18-4.53h1.09l-1.72,5.62h-1.17c-.53-2.07-1.02-3.82-1.14-4.45h-.01c-.1.63-.56,2.26-1.17,4.45h-1.2l-1.62-5.62h1.15Z"/>
        <path class="cls-10" d="M151.58,65.17c0,1.06.54,1.85,1.46,1.85.84,0,1.11-.42,1.28-.82h1.09c-.22.71-.82,1.71-2.41,1.71-1.78,0-2.52-1.43-2.52-2.88,0-1.69.85-3.01,2.58-3.01,1.84,0,2.44,1.44,2.44,2.68,0,.17,0,.31-.02.47h-3.92ZM154.41,64.43c-.01-.87-.44-1.58-1.36-1.58s-1.35.65-1.44,1.58h2.8Z"/>
        <path class="cls-10" d="M156.72,63.68c0-.74,0-1.2-.01-1.53h1.06c.02.15.03.62.03,1.12.29-.74.94-1.23,1.88-1.25v1.07c-1.15.02-1.88.57-1.88,2.01v2.68h-1.08v-4.1Z"/>
        <path class="cls-10" d="M161.32,65.17c0,1.06.54,1.85,1.46,1.85.84,0,1.11-.42,1.28-.82h1.09c-.22.71-.82,1.71-2.41,1.71-1.78,0-2.52-1.43-2.52-2.88,0-1.69.85-3.01,2.58-3.01,1.84,0,2.44,1.44,2.44,2.68,0,.17,0,.31-.02.47h-3.92ZM164.15,64.43c-.01-.87-.44-1.58-1.36-1.58s-1.35.65-1.44,1.58h2.8Z"/>
        <path class="cls-10" d="M171.3,59.67v6.52c0,.53,0,1.04.01,1.58h-1.04c-.03-.15-.05-.56-.05-.76-.28.56-.83.89-1.74.89-1.44,0-2.33-1.17-2.33-2.89s.96-3,2.52-3c.96,0,1.4.38,1.55.68v-3.03h1.08ZM167.27,64.98c0,1.31.6,2.01,1.46,2.01,1.27,0,1.52-.96,1.52-2.11s-.24-1.97-1.46-1.97c-.96,0-1.53.76-1.53,2.06Z"/>
        <path class="cls-10" d="M175.67,59.67h1.08v3.24c.25-.46.76-.9,1.76-.9,1.43,0,2.3,1.18,2.3,2.83s-.85,3.06-2.45,3.06c-.89,0-1.34-.32-1.62-.83,0,.27-.02.55-.04.7h-1.04c.01-.62.01-1.25.01-1.88v-6.22ZM179.7,64.87c0-1.16-.51-1.95-1.46-1.95-1.13,0-1.54.76-1.54,2.06,0,1.13.36,2.02,1.49,2.02.96,0,1.5-.82,1.5-2.13Z"/>
        <path class="cls-10" d="M182.55,62.15c.84,2.55,1.35,4.09,1.48,4.65h.01c.17-.62.56-1.9,1.43-4.65h1.09l-2,5.86c-.57,1.64-.99,2.07-2.18,2.07-.17,0-.4-.01-.63-.04v-.92c.13.02.3.03.45.03.69,0,.96-.29,1.27-1.17l-2.09-5.83h1.17Z"/>
      </g>
      <g id="Page-1">
        <g id="Group">
          <path id="Fill-1" class="cls-6" d="M207.99,61.87c-.11.42-.33.72-.65.91-.32.19-.77.29-1.35.29h-1.84l.65-2.41h1.84c.58,0,.98.1,1.19.29.22.19.27.5.16.91M209.89,61.82c.23-.87.14-1.54-.29-2.01-.43-.47-1.18-.7-2.25-.7h-4.11l-2.47,9.23h2l1-3.72h1.31c.29,0,.52.05.69.14.17.1.27.26.3.51l.36,3.07h2.14l-.35-2.87c-.07-.64-.36-1.02-.88-1.13.66-.19,1.21-.51,1.65-.95.44-.44.75-.97.91-1.58"/>
          <path id="Fill-3" class="cls-6" d="M214.75,65.03c-.17.62-.42,1.1-.77,1.43-.35.33-.76.49-1.25.49s-.83-.16-1-.49c-.18-.32-.18-.79-.02-1.41.16-.61.43-1.09.79-1.44.36-.35.78-.52,1.27-.52s.81.17.98.5c.17.33.17.81,0,1.43h0ZM215.62,61.76l-.25.93c-.11-.34-.32-.61-.63-.8-.31-.2-.69-.3-1.15-.3-.56,0-1.1.14-1.62.43-.52.29-.97.7-1.36,1.23-.39.53-.67,1.13-.85,1.8-.18.67-.22,1.27-.11,1.78.11.51.34.91.71,1.19.36.28.83.41,1.4.41.46,0,.89-.1,1.31-.29.41-.19.77-.45,1.05-.79l-.26.97h1.93l1.76-6.58h-1.93Z"/>
          <polygon id="Fill-5" class="cls-6" points="224.5 61.76 218.89 61.76 218.5 63.23 221.76 63.23 217.44 66.96 217.07 68.34 222.87 68.34 223.27 66.87 219.76 66.87 224.15 63.09 224.5 61.76"/>
          <path id="Fill-7" class="cls-6" d="M229.45,65.02c-.17.65-.43,1.13-.77,1.45-.34.32-.75.48-1.24.48-1.01,0-1.34-.64-1-1.93.17-.64.43-1.12.78-1.45.35-.32.77-.49,1.26-.49s.81.16.98.49c.17.32.17.81,0,1.45M230.58,62.01c-.44-.28-1.01-.41-1.7-.41s-1.35.14-1.95.41c-.6.28-1.11.67-1.53,1.19-.42.52-.72,1.12-.91,1.82s-.21,1.3-.06,1.82c.14.52.44.92.89,1.19.45.28,1.02.41,1.72.41s1.33-.14,1.93-.41c.59-.28,1.1-.67,1.52-1.19.42-.52.72-1.12.91-1.82s.21-1.3.07-1.82c-.14-.52-.44-.92-.88-1.19"/>
          <path id="Fill-9" class="cls-6" d="M250.79,65.03c-.17.62-.42,1.1-.77,1.43-.35.33-.76.49-1.25.49s-.83-.16-1-.49c-.18-.32-.18-.79-.02-1.41.16-.61.43-1.09.79-1.44.36-.35.78-.52,1.27-.52s.81.17.98.5c.17.33.17.81,0,1.43h0ZM251.67,61.76l-.25.93c-.11-.34-.32-.61-.63-.8-.31-.2-.69-.3-1.15-.3-.56,0-1.1.14-1.62.43-.52.29-.97.7-1.36,1.23-.39.53-.67,1.13-.85,1.8-.18.67-.22,1.27-.11,1.78.11.51.34.91.71,1.19.36.28.83.41,1.4.41.46,0,.89-.1,1.31-.29.41-.19.77-.45,1.06-.79l-.26.97h1.93l1.76-6.58h-1.93Z"/>
          <path id="Fill-11" class="cls-6" d="M237.47,63.53l.49-1.79c-.17-.09-.39-.13-.67-.13-.44,0-.87.11-1.28.33-.35.19-.65.45-.9.79l.26-.96h-.56s-1.37,0-1.37,0l-1.78,6.58h1.96l.92-3.44c.13-.5.37-.89.72-1.17.35-.28.78-.42,1.3-.42.32,0,.62.07.9.22"/>
          <path id="Fill-13" class="cls-6" d="M242.92,65.06c-.16.61-.42,1.08-.77,1.41-.35.32-.76.49-1.25.49s-.81-.16-.99-.49c-.18-.33-.18-.8-.01-1.43.17-.62.43-1.1.78-1.43.35-.33.77-.5,1.26-.5s.8.17.97.52c.17.35.17.83,0,1.44M244.29,62.03c-.36-.29-.83-.43-1.39-.43-.49,0-.96.11-1.41.34-.45.23-.81.53-1.08.92v-.04s.34-1.05.34-1.05h-.38s-1.53,0-1.53,0l-.49,1.82s-.01.04-.02.06l-2.01,7.5h1.96l1.01-3.77c.1.34.31.6.62.79.31.19.7.29,1.16.29.57,0,1.11-.14,1.63-.41.52-.28.96-.67,1.34-1.19.38-.51.66-1.11.84-1.78.18-.67.22-1.28.11-1.8-.1-.53-.34-.94-.7-1.23"/>
          <path id="Fill-15" class="cls-6" d="M261.71,61.77h0s-1.19,0-1.19,0c-.04,0-.07,0-.11,0h-.62l-.31.44s-.05.07-.08.1l-.03.05-2.5,3.49-.52-4.08h-2.05l1.04,6.2-2.29,3.18h2.04l.56-.79s.03-.04.05-.07l.65-.92.02-.03,2.9-4.11,2.44-3.46h0s0,0,0,0Z"/>
          <polygon id="Fill-17" class="cls-7" points="195.73 60.16 195.15 62.32 198.5 60.15 196.31 68.34 198.54 68.34 201.78 56.25 195.73 60.16"/>
          <path id="Fill-19" class="cls-6" d="M192.12,64.9l-.92,3.44h4.57s1.87-7,1.87-7c0,0-5.51,3.56-5.51,3.56"/>
        </g>
      </g>
    </g>
  </g>
</svg>