<?xml version="1.0" encoding="UTF-8"?>
<svg id="Layer_1" xmlns="http://www.w3.org/2000/svg" version="1.1" xmlns:xlink="http://www.w3.org/1999/xlink" viewBox="0 0 335 118.3">
  <!-- Generator: Adobe Illustrator 29.5.1, SVG Export Plug-In . SVG Version: 2.1.0 Build 141)  -->
  <defs>
    <style>
      .st0 {
        fill: #097f74;
      }

      .st1 {
        fill: none;
        stroke: #00685e;
        stroke-miterlimit: 10;
        stroke-width: 1.2px;
      }

      .st2 {
        fill: #fff;
      }

      .st3 {
        fill: #072654;
      }

      .st3, .st4 {
        fill-rule: evenodd;
      }

      .st5 {
        fill: #3d4a59;
      }

      .st6 {
        fill: #686868;
      }

      .st7 {
        fill: #4da399;
      }

      .st8 {
        fill: #00685e;
      }

      .st9 {
        fill: #003a33;
      }

      .st10 {
        fill: #d8efed;
      }

      .st11 {
        fill: url(#linear-gradient);
        opacity: .2;
      }

      .st4 {
        fill: #3395ff;
      }

      .st12 {
        fill: #788fa8;
        stroke: #788fa8;
        stroke-linecap: round;
        stroke-linejoin: round;
      }

      .st13 {
        opacity: .5;
      }

      .st14 {
        fill: #161616;
      }
    </style>
    <linearGradient id="linear-gradient" x1="130.9" y1="-36.9" x2="203.2" y2="161.7" gradientUnits="userSpaceOnUse">
      <stop offset="0" stop-color="#11998e"/>
      <stop offset="0" stop-color="#34a89e"/>
      <stop offset="0" stop-color="#5ebab2"/>
      <stop offset=".1" stop-color="#85cac5"/>
      <stop offset=".2" stop-color="#a6d8d4"/>
      <stop offset=".3" stop-color="#c2e4e2"/>
      <stop offset=".3" stop-color="#d8eeec"/>
      <stop offset=".4" stop-color="#e9f5f4"/>
      <stop offset=".5" stop-color="#f6fbfa"/>
      <stop offset=".6" stop-color="#fdfefe"/>
      <stop offset="1" stop-color="#fff"/>
    </linearGradient>
  </defs>
  <rect class="st2" x=".7" y="7.6" width="333.4" height="109.5" rx="10.4" ry="10.4"/>
  <rect class="st11" y="7.6" width="334.2" height="109.5" rx="10.4" ry="10.4"/>
  <rect class="st10" x=".7" y="88.7" width="333.4" height="1.1"/>
  <rect class="st1" x=".7" y="7.6" width="333.4" height="109.5" rx="10.4" ry="10.4"/>
  <path class="st8" d="M182.7,7.3h140.9c6.1,0,11,4.9,11,11v10.7h-140.9c-6.1,0-11-4.9-11-11V7.3h0Z"/>
  <g>
    <path class="st2" d="M190.8,17.5c0-.7.1-1.3.4-1.9.2-.6.6-1.1,1-1.5.4-.4.9-.8,1.5-1,.6-.2,1.2-.4,1.9-.4s1.3.1,1.9.4c.6.2,1.1.6,1.5,1,.4.4.8.9,1,1.5.2.6.4,1.2.4,1.9s-.1,1.3-.3,1.9c-.2.6-.6,1.1-1,1.5-.4.4-.9.8-1.5,1-.6.2-1.2.4-1.9.4s-1.4-.1-2-.4c-.6-.2-1.1-.6-1.5-1-.4-.4-.7-.9-1-1.5s-.3-1.2-.3-1.9ZM193.3,17.5c0,.5,0,.9.3,1.3.2.4.4.7.8.9.3.2.7.3,1.2.3s.8-.1,1.2-.3c.3-.2.6-.5.8-.9.2-.4.3-.8.3-1.3s0-.9-.3-1.3c-.2-.4-.5-.7-.8-.9-.3-.2-.7-.3-1.2-.3s-.8.1-1.2.3c-.3.2-.6.5-.8.9-.2.4-.3.8-.3,1.3Z"/>
    <path class="st2" d="M204,15.1h.2v7h-2.4v-9.2h3.3l3.3,6.9h-.2s0-6.9,0-6.9h2.4v9.2h-3.3l-3.3-7Z"/>
    <path class="st2" d="M216.3,12.9h3.6c.6,0,1.1.1,1.6.3.5.2.9.5,1.1,1,.3.4.4,1,.4,1.6s-.1,1.2-.4,1.6c-.3.4-.7.8-1.1,1-.5.2-1,.4-1.6.4h-1.2v3.3h-2.4v-9.2ZM218.7,16.9h.5c.2,0,.5,0,.6-.1.2,0,.3-.2.4-.3.1-.2.2-.4.2-.6s0-.4-.2-.6c-.1-.1-.3-.3-.4-.3-.2,0-.4-.1-.6-.1h-.5v2.1Z"/>
    <path class="st2" d="M224.4,12.9h3.9c.5,0,1,.1,1.4.3s.8.6,1,1c.2.4.4.9.4,1.5s0,1.1-.3,1.4-.4.6-.7.8-.5.3-.8.3l2.2,3.7h-2.7l-1.9-3.5h-.1v3.5h-2.4v-9.2ZM226.8,16.9h.7c.3,0,.6,0,.8-.2.2-.1.4-.4.4-.8s-.1-.7-.4-.8-.5-.2-.8-.2h-.7v2.1Z"/>
    <path class="st2" d="M233.1,12.9h6v2.1h-3.6v1.4h3.6v2h-3.6v1.5h3.6v2.1h-6v-9.2Z"/>
    <path class="st2" d="M240.9,12.9h3.6c.6,0,1.1.1,1.6.3.5.2.9.5,1.1,1,.3.4.4,1,.4,1.6s-.1,1.2-.4,1.6c-.3.4-.7.8-1.1,1-.5.2-1,.4-1.6.4h-1.2v3.3h-2.4v-9.2ZM243.3,16.9h.5c.2,0,.5,0,.6-.1.2,0,.3-.2.4-.3.1-.2.2-.4.2-.6s0-.4-.2-.6c-.1-.1-.3-.3-.4-.3-.2,0-.4-.1-.6-.1h-.5v2.1Z"/>
    <path class="st2" d="M251,12.9h2.4l3.7,9.2h-2.6l-.6-1.7h-3.4l-.6,1.7h-2.6l3.7-9.2ZM251.3,18.3h1.8l-.9-2.5h0l-.9,2.5Z"/>
    <path class="st2" d="M258.1,12.9h2.4v9.2h-2.4v-9.2Z"/>
    <path class="st2" d="M262.3,12.9h3c1,0,1.8.2,2.4.6.6.4,1.1.9,1.5,1.6s.5,1.5.5,2.4-.2,1.7-.5,2.4-.8,1.2-1.5,1.6-1.5.6-2.4.6h-3v-9.2ZM264.7,15.1v4.9h.4c.4,0,.8-.1,1.1-.3.3-.2.5-.5.7-.9s.2-.8.2-1.2,0-.9-.2-1.2c-.2-.4-.4-.7-.7-.9-.3-.2-.7-.3-1.1-.3h-.4Z"/>
    <path class="st2" d="M274.8,17.5c0-.7.1-1.3.4-1.9s.6-1.1,1-1.5c.4-.4.9-.8,1.5-1,.6-.2,1.2-.4,1.9-.4s1.3.1,1.9.4c.6.2,1.1.6,1.5,1,.4.4.8.9,1,1.5.2.6.4,1.2.4,1.9s-.1,1.3-.3,1.9c-.2.6-.6,1.1-1,1.5-.4.4-.9.8-1.5,1-.6.2-1.2.4-1.9.4s-1.4-.1-2-.4c-.6-.2-1.1-.6-1.5-1-.4-.4-.7-.9-1-1.5s-.3-1.2-.3-1.9ZM277.3,17.5c0,.5,0,.9.3,1.3s.4.7.8.9c.3.2.7.3,1.2.3s.8-.1,1.2-.3c.3-.2.6-.5.8-.9s.3-.8.3-1.3,0-.9-.3-1.3-.5-.7-.8-.9c-.3-.2-.7-.3-1.2-.3s-.8.1-1.2.3c-.3.2-.6.5-.8.9s-.3.8-.3,1.3Z"/>
    <path class="st2" d="M285.7,12.9h3.9c.5,0,1,.1,1.4.3s.8.6,1,1c.2.4.4.9.4,1.5s0,1.1-.3,1.4c-.2.4-.4.6-.7.8s-.5.3-.8.3l2.2,3.7h-2.7l-1.9-3.5h-.1v3.5h-2.4v-9.2ZM288.1,16.9h.7c.3,0,.6,0,.8-.2.2-.1.4-.4.4-.8s-.1-.7-.4-.8c-.2-.1-.5-.2-.8-.2h-.7v2.1Z"/>
    <path class="st2" d="M294.4,12.9h3c1,0,1.8.2,2.4.6.6.4,1.1.9,1.5,1.6.3.7.5,1.5.5,2.4s-.2,1.7-.5,2.4c-.3.7-.8,1.2-1.5,1.6-.6.4-1.5.6-2.4.6h-3v-9.2ZM296.8,15.1v4.9h.4c.4,0,.8-.1,1.1-.3.3-.2.5-.5.7-.9.2-.4.2-.8.2-1.2s0-.9-.2-1.2c-.2-.4-.4-.7-.7-.9-.3-.2-.7-.3-1.1-.3h-.4Z"/>
    <path class="st2" d="M303.1,12.9h6v2.1h-3.6v1.4h3.6v2h-3.6v1.5h3.6v2.1h-6v-9.2Z"/>
    <path class="st2" d="M310.8,12.9h3.9c.5,0,1,.1,1.4.3s.8.6,1,1c.2.4.4.9.4,1.5s0,1.1-.3,1.4c-.2.4-.4.6-.7.8s-.5.3-.8.3l2.2,3.7h-2.7l-1.9-3.5h-.1v3.5h-2.4v-9.2ZM313.3,16.9h.7c.3,0,.6,0,.8-.2.2-.1.4-.4.4-.8s-.1-.7-.4-.8c-.2-.1-.5-.2-.8-.2h-.7v2.1Z"/>
    <path class="st2" d="M323.1,12.8c.6,0,1.1,0,1.5.2.4.1.8.3,1.1.4.3.1.4.2.5.3l-1.2,1.9c0,0-.2-.1-.4-.2-.2-.1-.4-.2-.6-.3s-.5-.1-.7-.1-.5,0-.7.1c-.2,0-.3.2-.3.4s0,.3.2.4c.1.1.3.2.5.3.2.1.5.2.9.4.3.1.7.3,1,.4.3.2.6.4.8.6s.4.5.5.8.2.6.2,1-.1.9-.3,1.3c-.2.3-.5.6-.8.9-.3.2-.7.4-1.1.5s-.9.2-1.3.2c-.7,0-1.2,0-1.8-.2-.5-.1-.9-.3-1.2-.5-.3-.2-.5-.3-.6-.4l1.2-2c0,0,.2.1.3.2.2,0,.4.2.6.3s.5.2.7.3.5.1.7.1c.4,0,.6,0,.8-.2.2-.1.3-.3.3-.5s0-.3-.2-.4-.3-.2-.5-.4-.6-.3-1-.4c-.4-.2-.8-.3-1.1-.6-.3-.2-.6-.5-.9-.9-.2-.4-.3-.8-.3-1.3s.2-1,.5-1.4.7-.7,1.2-.9c.5-.2,1-.3,1.6-.3Z"/>
  </g>
  <circle class="st8" cx="36" cy="42.8" r="16.5"/>
  <circle class="st0" cx="36" cy="42.8" r="13.7"/>
  <path class="st7" d="M49.7,42.8c0,7.6-6.1,13.7-13.7,13.7s-.6,0-.9,0c7.1-.4,12.8-6.4,12.8-13.6s-5.7-13.2-12.8-13.6c.3,0,.6,0,.9,0,7.6,0,13.7,6.1,13.7,13.7Z"/>
  <path class="st8" d="M36,28.1v27.4c-7.6,0-13.7-6.1-13.7-13.7s6.1-13.7,13.7-13.7Z"/>
  <path class="st9" d="M36.9,56.4c-.3,0-.6,0-.9,0-7.6,0-13.7-6.1-13.7-13.7s6.1-13.7,13.7-13.7.6,0,.9,0c-7.1.4-12.8,6.4-12.8,13.6s5.7,13.2,12.8,13.6Z"/>
  <path class="st2" d="M29.7,45.5v-2.2h2.7c1.2,0,2-.2,2.6-.5.6-.3,1-.8,1.1-1.5h-6.4v-2.2h6.4c-.4-1.3-1.6-2-3.6-2h-2.8v-2.4h12.6l-.5,2.4h-3.8c.7.5,1.1,1.2,1.3,2h2.1l-.5,2.2h-1.6c-.2,1.3-.8,2.3-1.7,3-.9.7-2.1,1.1-3.6,1.3h-.3s6.4,6.6,6.4,6.6h-4.4l-6-6.6Z"/>
  <g>
    <path class="st5" d="M70.7,53.5c0-1.7-.2-3.7-.2-5.4h0c-.4,1.6-1,3.3-1.5,5l-1.9,5.6h-1.8l-1.7-5.5c-.5-1.7-1-3.4-1.3-5h0c0,1.7-.1,3.8-.2,5.5l-.3,5.2h-2.2l.9-12.9h3.1l1.7,5.2c.5,1.5.9,3.1,1.2,4.5h0c.3-1.4.8-3,1.3-4.5l1.8-5.2h3.1l.7,12.9h-2.3l-.3-5.3Z"/>
    <path class="st5" d="M84.5,54c0,3.4-2.4,5-4.8,5s-4.7-1.8-4.7-4.8,2-5,4.8-5,4.6,2,4.6,4.8ZM77.5,54.1c0,1.8.9,3.2,2.3,3.2s2.3-1.3,2.3-3.2-.7-3.1-2.3-3.1-2.3,1.6-2.3,3.2Z"/>
    <path class="st5" d="M86.5,52.2c0-1.1,0-2,0-2.8h2.1v1.4h.2c.4-.7,1.4-1.6,3-1.6s3.3,1,3.3,4v5.6h-2.4v-5.3c0-1.3-.5-2.4-1.8-2.4s-1.6.7-1.8,1.4c0,.2-.1.5-.1.8v5.5h-2.4v-6.6Z"/>
    <path class="st5" d="M99.1,54.8c0,1.7,1.4,2.4,2.9,2.4s1.9-.2,2.6-.4l.4,1.6c-.8.3-1.9.6-3.3.6-3,0-4.8-1.9-4.8-4.7s1.6-5,4.6-5,4,2.5,4,4.5,0,.8,0,1h-6.3ZM103.2,53.1c0-.9-.4-2.3-2-2.3s-2.1,1.3-2.2,2.3h4.1Z"/>
    <path class="st5" d="M108.8,49.4l1.7,5c.2.6.4,1.3.5,1.8h0c.1-.5.3-1.2.5-1.8l1.5-5h2.5l-2.3,6.4c-1.3,3.5-2.2,5-3.3,6-.9.8-1.9,1.1-2.5,1.2l-.5-2c.4,0,.9-.3,1.4-.6.5-.3,1-.8,1.3-1.5,0-.2.1-.3.1-.4s0-.2-.1-.5l-3.4-8.6h2.6Z"/>
    <path class="st5" d="M120.8,58.8c0-.6,0-1.7,0-2.6v-11h2.4v5.6h0c.6-.9,1.6-1.5,3-1.5,2.3,0,3.9,1.9,3.9,4.7,0,3.4-2.1,5-4.2,5s-2.3-.5-2.9-1.6h0v1.4h-2.1ZM123.2,54.9c0,.2,0,.4,0,.6.2,1,1.1,1.7,2.1,1.7,1.5,0,2.4-1.2,2.4-3.1s-.8-3-2.4-3-1.8.7-2.1,1.7c0,.2,0,.4,0,.6v1.5Z"/>
    <path class="st5" d="M137.4,58.8l-.2-1h0c-.6.7-1.5,1.3-2.8,1.3-1.9,0-2.9-1.4-2.9-2.8,0-2.4,2.1-3.6,5.5-3.5v-.2c0-.6-.2-1.6-1.9-1.6-.9,0-1.9.3-2.5.7l-.5-1.5c.7-.4,1.9-.8,3.4-.8,3,0,3.9,1.9,3.9,3.9v3.4c0,.9,0,1.7.1,2.3h-2.1ZM137.1,54.2c-1.7,0-3.3.3-3.3,1.8s.6,1.3,1.3,1.3,1.6-.6,1.9-1.3c0-.2,0-.4,0-.5v-1.3Z"/>
    <path class="st5" d="M148.7,58.5c-.5.2-1.5.5-2.6.5-2.9,0-4.8-1.9-4.8-4.8s1.9-5,5.2-5,1.7.2,2.3.4l-.4,1.8c-.4-.2-.9-.4-1.8-.4-1.8,0-2.9,1.3-2.9,3,0,1.9,1.3,3,2.9,3s1.4-.2,1.9-.4l.3,1.8Z"/>
    <path class="st5" d="M152.9,53.5h0c.2-.4.5-.8.7-1.1l2.3-3h2.8l-3.5,3.8,4,5.5h-2.9l-2.7-4.1-.8.9v3.2h-2.4v-13.6h2.4v8.4Z"/>
    <path class="st5" d="M164.3,46c.9-.1,2-.3,3.6-.3s3,.4,3.8,1.1c.8.6,1.3,1.6,1.3,2.9s-.4,2.2-1.1,2.9c-1,.9-2.4,1.4-4.1,1.4s-.8,0-1.2,0v4.9h-2.3v-12.8ZM166.7,52c.3,0,.7.1,1.2.1,1.8,0,2.8-.9,2.8-2.4s-1-2.2-2.6-2.2-1.1,0-1.4.1v4.4Z"/>
    <path class="st5" d="M174.8,52.4c0-1.3,0-2.2,0-3h2v1.8h.2c.5-1.3,1.6-2,2.6-2s.4,0,.6,0v2.2c-.2,0-.4,0-.7,0-1.1,0-1.9.7-2.1,1.8,0,.2,0,.5,0,.7v4.9h-2.4v-6.3Z"/>
    <path class="st5" d="M190.3,54c0,3.4-2.4,5-4.8,5s-4.7-1.8-4.7-4.8,2-5,4.8-5,4.6,2,4.6,4.8ZM183.3,54.1c0,1.8.9,3.2,2.3,3.2s2.3-1.3,2.3-3.2-.7-3.1-2.3-3.1-2.3,1.6-2.3,3.2Z"/>
    <path class="st5" d="M192.3,52.2c0-1.1,0-2,0-2.8h2v1.4h.2c.5-.7,1.3-1.6,2.9-1.6s2.2.7,2.6,1.7h0c.3-.5.7-.9,1.1-1.2.5-.4,1.1-.5,1.9-.5,1.5,0,3.1,1.1,3.1,4.1v5.5h-2.3v-5.2c0-1.6-.5-2.5-1.7-2.5s-1.4.6-1.6,1.2c0,.2-.1.5-.1.8v5.6h-2.3v-5.4c0-1.3-.5-2.2-1.6-2.2s-1.5.7-1.7,1.3c0,.2-.1.5-.1.8v5.5h-2.3v-6.6Z"/>
    <path class="st5" d="M211,46.8c0,.7-.5,1.3-1.3,1.3s-1.3-.6-1.3-1.3c0-.7.5-1.3,1.3-1.3s1.3.6,1.3,1.3ZM208.5,58.8v-9.4h2.4v9.4h-2.4Z"/>
    <path class="st5" d="M213.3,56.6c.5.3,1.5.7,2.4.7s1.5-.4,1.5-1-.4-1-1.5-1.4c-1.8-.6-2.6-1.6-2.6-2.7,0-1.6,1.4-2.9,3.5-2.9s1.9.3,2.5.6l-.5,1.7c-.4-.2-1.2-.5-2-.5s-1.3.4-1.3,1,.5.9,1.6,1.3c1.7.6,2.5,1.5,2.5,2.8,0,1.7-1.3,2.9-3.8,2.9s-2.2-.3-2.8-.7l.5-1.7Z"/>
    <path class="st5" d="M223.1,54.8c0,1.7,1.4,2.4,2.9,2.4s1.9-.2,2.6-.4l.4,1.6c-.8.3-1.9.6-3.3.6-3,0-4.8-1.9-4.8-4.7s1.6-5,4.6-5,4,2.5,4,4.5,0,.8,0,1h-6.3ZM227.2,53.1c0-.9-.4-2.3-2-2.3s-2.1,1.3-2.2,2.3h4.1Z"/>
  </g>
  <g>
    <path d="M80.4,38.8h6.8v2.7h-9.9v-15.4h3.1v12.6Z"/>
    <path d="M89.9,41.5h9.9v-2.7h-6.9v-4.1h5v-2.7h-5v-3.1h7v-2.7h-10v15.4Z"/>
    <path d="M115.5,26h-1.7l-3,9.7-3.1-9.7h-1.7l-3.1,15.4h3l1.6-7.6,2.8,7.8h1.2l2.9-7.8,1.5,7.6h3l-3.1-15.3v-.2s0,0,0,0Z"/>
    <path d="M132,27.2v-1.1h-10.3v2.7h6.1l-6.2,11.5v1.1h10.6v-2.7h-6.4l6.2-11.5h0Z"/>
    <path d="M145.4,26.1l-3.5,6.2-3.5-6.2h-3.3l5.2,9.1v6.3h3v-6.3l5.2-9.1h-3.3Z"/>
    <path d="M73,28.9l-7,3.8,1.4,2.4,4.5-2.5c.3,1.4,0,2.7-.6,3.8-.7,1.1-1.7,1.9-3.1,2.2-2.2.5-4.3-.3-5.6-2-1.2-1.8-1.2-4,0-5.8,1.3-1.9,3.8-2.6,6.1-1.8h.1s2.7-1.5,2.7-1.5l-.4-.3c-1.7-1.1-3.7-1.6-5.8-1.2-2,.3-3.8,1.4-5,3.1-1.5,2-1.9,4.6-1.1,7,.7,2.4,2.4,4.2,4.8,5,.9.3,1.8.5,2.8.5,1.6,0,3.2-.5,4.5-1.4,2.2-1.5,3.4-4,3.4-6.7,0-1.7-.7-3.4-1.7-4.5l-.2-.2h0c0,0,0,0,0,0Z"/>
  </g>
  <g class="st13">
    <line class="st12" x1="310.5" y1="42.2" x2="317.6" y2="49.4"/>
    <line class="st12" x1="310.4" y1="56.7" x2="317.7" y2="49.5"/>
  </g>
  <g>
    <path class="st6" d="M56.7,69.8h3.6c1.8,0,3.1,1,3.1,2.7s-1.3,2.8-3.2,2.8h-2.1v3.8h-1.4v-9.3ZM58.1,74.2h2c1.2,0,1.9-.6,1.9-1.6s-.8-1.6-1.8-1.6h-2.1v3.3Z"/>
    <path class="st6" d="M69.7,77.6c0,.6,0,1.4,0,1.5h-1.3c0-.1,0-.5-.1-.8-.2.4-.8,1-2.1,1s-2.3-1.1-2.3-2.1c0-1.5,1.2-2.2,3.2-2.2h1.1v-.5c0-.6-.2-1.3-1.4-1.3s-1.3.5-1.4,1h-1.3c0-1,.7-2.1,2.7-2.1,1.7,0,2.6.7,2.6,2.3v3.2ZM68.5,75.9h-1c-1.3,0-2,.4-2,1.3s.5,1.2,1.3,1.2c1.6,0,1.8-1.1,1.8-2.2v-.2Z"/>
    <path class="st6" d="M72.2,72.3c1,3.1,1.6,5,1.8,5.6h0c.2-.8.7-2.3,1.7-5.6h1.3l-2.4,7.1c-.7,2-1.2,2.5-2.6,2.5s-.5,0-.8,0v-1.1c.2,0,.4,0,.5,0,.8,0,1.2-.4,1.5-1.4l-2.5-7.1h1.4Z"/>
    <path class="st6" d="M78.3,74.1c0-.6,0-1.2,0-1.8h1.3c0,.2,0,.7,0,1,.3-.6.9-1.2,2-1.2s1.6.5,1.9,1.2c.4-.6,1-1.2,2.2-1.2s2.2.7,2.2,2.5v4.5h-1.3v-4.3c0-.8-.3-1.5-1.3-1.5s-1.5.8-1.5,2v3.9h-1.3v-4.3c0-.8-.2-1.6-1.3-1.6s-1.5.8-1.5,2.1v3.8h-1.3v-5.1Z"/>
    <path class="st6" d="M90.5,76c0,1.3.7,2.2,1.8,2.2s1.3-.5,1.6-1h1.3c-.3.9-1,2.1-2.9,2.1s-3.1-1.7-3.1-3.5,1-3.6,3.1-3.6,3,1.8,3,3.3,0,.4,0,.6h-4.7ZM93.9,75.1c0-1.1-.5-1.9-1.6-1.9s-1.6.8-1.7,1.9h3.4Z"/>
    <path class="st6" d="M96.8,74c0-.6,0-1.2,0-1.7h1.3c0,.2,0,.9,0,1.1.3-.6.8-1.2,2.1-1.2s2.3.8,2.3,2.6v4.4h-1.3v-4.2c0-1-.4-1.6-1.4-1.6s-1.7.9-1.7,2.2v3.6h-1.3v-5.1Z"/>
    <path class="st6" d="M103.5,72.3h1.2v-2h1.3v2h1.5v1h-1.5v3.9c0,.6.2.9.8.9s.4,0,.6,0v1c-.3.1-.7.1-1.1.1-1.1,0-1.6-.6-1.6-1.7v-4.1h-1.2v-1Z"/>
    <path class="st6" d="M109.5,77.2c.2.7.7,1.1,1.6,1.1s1.3-.4,1.3-1-.3-.9-1.5-1.2c-2-.5-2.4-1.1-2.4-2s.7-1.9,2.5-1.9,2.5,1,2.6,2h-1.3c0-.4-.4-1-1.4-1s-1.2.4-1.2.8.3.7,1.5,1c2.1.5,2.5,1.2,2.5,2.2s-.9,2.1-2.7,2.1-2.7-.9-2.9-2.1h1.3Z"/>
    <path class="st6" d="M118.8,69.8h3.6c1.8,0,3.1,1,3.1,2.7s-1.3,2.8-3.2,2.8h-2.1v3.8h-1.4v-9.3ZM120.2,74.2h2c1.2,0,1.9-.6,1.9-1.6s-.8-1.6-1.8-1.6h-2.1v3.3Z"/>
    <path class="st6" d="M132.6,75.7c0,2-1.1,3.6-3.2,3.6s-3.2-1.5-3.2-3.6,1.2-3.6,3.3-3.6,3.2,1.4,3.2,3.6ZM127.6,75.7c0,1.5.7,2.5,1.9,2.5s1.9-1,1.9-2.5-.7-2.5-1.9-2.5-1.8,1-1.8,2.5Z"/>
    <path class="st6" d="M134.8,72.3c.8,3.1,1.3,4.9,1.4,5.6h0c.1-.7.6-2.2,1.5-5.6h1.3c1,3.8,1.3,4.9,1.4,5.5h0c.2-.7.4-1.7,1.4-5.5h1.3l-2.1,6.8h-1.4c-.6-2.5-1.2-4.6-1.4-5.4h0c-.1.8-.7,2.7-1.4,5.4h-1.5l-2-6.8h1.4Z"/>
    <path class="st6" d="M145.1,76c0,1.3.7,2.2,1.8,2.2s1.3-.5,1.6-1h1.3c-.3.9-1,2.1-2.9,2.1s-3.1-1.7-3.1-3.5,1-3.6,3.1-3.6,3,1.8,3,3.3,0,.4,0,.6h-4.7ZM148.6,75.1c0-1.1-.5-1.9-1.6-1.9s-1.6.8-1.7,1.9h3.4Z"/>
    <path class="st6" d="M151.4,74.2c0-.9,0-1.4,0-1.9h1.3c0,.2,0,.7,0,1.4.3-.9,1.1-1.5,2.3-1.5v1.3c-1.4,0-2.3.7-2.3,2.4v3.2h-1.3v-5Z"/>
    <path class="st6" d="M156.9,76c0,1.3.7,2.2,1.8,2.2s1.3-.5,1.6-1h1.3c-.3.9-1,2.1-2.9,2.1s-3.1-1.7-3.1-3.5,1-3.6,3.1-3.6,3,1.8,3,3.3,0,.4,0,.6h-4.7ZM160.4,75.1c0-1.1-.5-1.9-1.6-1.9s-1.6.8-1.7,1.9h3.4Z"/>
    <path class="st6" d="M169,69.3v7.9c0,.6,0,1.3,0,1.9h-1.3c0-.2,0-.7,0-.9-.3.7-1,1.1-2.1,1.1-1.7,0-2.8-1.4-2.8-3.5s1.2-3.6,3.1-3.6,1.7.5,1.9.8v-3.7h1.3ZM164.2,75.8c0,1.6.7,2.4,1.8,2.4,1.5,0,1.8-1.2,1.8-2.6s-.3-2.4-1.8-2.4-1.9.9-1.9,2.5Z"/>
    <path class="st6" d="M174.3,69.3h1.3v3.9c.3-.6.9-1.1,2.1-1.1,1.7,0,2.8,1.4,2.8,3.4s-1,3.7-3,3.7-1.6-.4-2-1c0,.3,0,.7,0,.9h-1.3c0-.8,0-1.5,0-2.3v-7.5ZM179.2,75.6c0-1.4-.6-2.4-1.8-2.4s-1.9.9-1.9,2.5.4,2.5,1.8,2.5,1.8-1,1.8-2.6Z"/>
    <path class="st6" d="M182.7,72.3c1,3.1,1.6,5,1.8,5.6h0c.2-.8.7-2.3,1.7-5.6h1.3l-2.4,7.1c-.7,2-1.2,2.5-2.6,2.5s-.5,0-.8,0v-1.1c.2,0,.4,0,.5,0,.8,0,1.2-.4,1.5-1.4l-2.5-7.1h1.4Z"/>
  </g>
  <g id="Page-1">
    <g id="Group">
      <path id="Fill-1" class="st3" d="M213.5,72c-.1.5-.4.9-.8,1.1-.4.2-.9.4-1.6.4h-2.2l.8-2.9h2.2c.7,0,1.2.1,1.4.4.3.2.3.6.2,1.1M215.8,71.9c.3-1.1.2-1.9-.4-2.4-.5-.6-1.4-.8-2.7-.8h-5l-3,11.2h2.4l1.2-4.5h1.6c.4,0,.6,0,.8.2.2.1.3.3.4.6l.4,3.7h2.6l-.4-3.5c0-.8-.4-1.2-1.1-1.4.8-.2,1.5-.6,2-1.1.5-.5.9-1.2,1.1-1.9"/>
      <path id="Fill-3" class="st3" d="M221.7,75.8c-.2.8-.5,1.3-.9,1.7-.4.4-.9.6-1.5.6s-1-.2-1.2-.6c-.2-.4-.2-1,0-1.7.2-.7.5-1.3,1-1.7.4-.4.9-.6,1.5-.6s1,.2,1.2.6c.2.4.2,1,0,1.7h0ZM222.8,71.9l-.3,1.1c-.1-.4-.4-.7-.8-1-.4-.2-.8-.4-1.4-.4s-1.3.2-2,.5c-.6.4-1.2.8-1.6,1.5-.5.6-.8,1.4-1,2.2-.2.8-.3,1.5-.1,2.2.1.6.4,1.1.9,1.4.4.3,1,.5,1.7.5s1.1-.1,1.6-.3c.5-.2.9-.6,1.3-1l-.3,1.2h2.3l2.1-8h-2.3Z"/>
      <polygon id="Fill-5" class="st3" points="233.6 71.9 226.8 71.9 226.3 73.6 230.2 73.6 225 78.2 224.6 79.8 231.6 79.8 232.1 78.1 227.8 78.1 233.1 73.5 233.6 71.9"/>
      <path id="Fill-7" class="st3" d="M239.6,75.8c-.2.8-.5,1.4-.9,1.8-.4.4-.9.6-1.5.6-1.2,0-1.6-.8-1.2-2.3.2-.8.5-1.4.9-1.8.4-.4.9-.6,1.5-.6s1,.2,1.2.6c.2.4.2,1,0,1.8M240.9,72.2c-.5-.3-1.2-.5-2.1-.5s-1.6.2-2.4.5c-.7.3-1.3.8-1.9,1.4-.5.6-.9,1.4-1.1,2.2s-.3,1.6,0,2.2c.2.6.5,1.1,1.1,1.4.5.3,1.2.5,2.1.5s1.6-.2,2.3-.5c.7-.3,1.3-.8,1.8-1.4.5-.6.9-1.4,1.1-2.2s.3-1.6,0-2.2c-.2-.6-.5-1.1-1.1-1.4"/>
      <path id="Fill-9" class="st3" d="M265.4,75.8c-.2.8-.5,1.3-.9,1.7-.4.4-.9.6-1.5.6s-1-.2-1.2-.6c-.2-.4-.2-1,0-1.7.2-.7.5-1.3,1-1.7.4-.4.9-.6,1.5-.6s1,.2,1.2.6c.2.4.2,1,0,1.7h0ZM266.5,71.9l-.3,1.1c-.1-.4-.4-.7-.8-1-.4-.2-.8-.4-1.4-.4s-1.3.2-2,.5c-.6.4-1.2.8-1.6,1.5-.5.6-.8,1.4-1,2.2-.2.8-.3,1.5-.1,2.2.1.6.4,1.1.9,1.4.4.3,1,.5,1.7.5s1.1-.1,1.6-.3c.5-.2.9-.6,1.3-1l-.3,1.2h2.3l2.1-8h-2.3Z"/>
      <path id="Fill-11" class="st3" d="M249.3,74l.6-2.2c-.2-.1-.5-.2-.8-.2-.5,0-1.1.1-1.5.4-.4.2-.8.6-1.1,1l.3-1.2h-.7s-1.7,0-1.7,0l-2.2,8h2.4l1.1-4.2c.2-.6.5-1.1.9-1.4.4-.3.9-.5,1.6-.5s.8,0,1.1.3"/>
      <path id="Fill-13" class="st3" d="M255.9,75.9c-.2.7-.5,1.3-.9,1.7-.4.4-.9.6-1.5.6s-1-.2-1.2-.6c-.2-.4-.2-1,0-1.7.2-.8.5-1.3.9-1.7.4-.4.9-.6,1.5-.6s1,.2,1.2.6c.2.4.2,1,0,1.7M257.6,72.2c-.4-.4-1-.5-1.7-.5s-1.2.1-1.7.4c-.5.3-1,.6-1.3,1.1h0c0,0,.4-1.3.4-1.3h-.5s-1.9,0-1.9,0l-.6,2.2s0,0,0,0l-2.4,9.1h2.4l1.2-4.6c.1.4.4.7.7,1,.4.2.8.3,1.4.3s1.4-.2,2-.5c.6-.3,1.2-.8,1.6-1.4.5-.6.8-1.3,1-2.2.2-.8.3-1.5.1-2.2-.1-.6-.4-1.1-.9-1.5"/>
      <path id="Fill-15" class="st3" d="M278.7,71.9h0s-1.4,0-1.4,0c0,0,0,0-.1,0h-.7l-.4.5s0,0,0,.1h0c0,0-3,4.3-3,4.3l-.6-4.9h-2.5l1.3,7.5-2.8,3.9h2.5l.7-1s0,0,0,0l.8-1.1h0s3.5-5,3.5-5l3-4.2h0s0,0,0,0Z"/>
      <polygon id="Fill-17" class="st4" points="198.7 69.9 198 72.5 202 69.9 199.4 79.8 202.1 79.8 206 65.2 198.7 69.9"/>
      <path id="Fill-19" class="st3" d="M194.3,75.7l-1.1,4.2h5.5s2.3-8.5,2.3-8.5c0,0-6.7,4.3-6.7,4.3"/>
    </g>
  </g>
  <g>
    <path class="st8" d="M41.7,101.7h5.3v.6c0,.7-.1,1.4-.4,2.1s-.6,1.2-1.1,1.7c-.5.5-1,.9-1.6,1.1-.6.3-1.3.4-2.1.4s-1.5-.1-2.1-.4c-.6-.3-1.2-.7-1.7-1.2-.5-.5-.8-1.1-1.1-1.7-.3-.7-.4-1.3-.4-2.1s.1-1.4.4-2.1c.3-.7.6-1.2,1.1-1.7s1-.9,1.7-1.1c.6-.3,1.4-.4,2.1-.4s1.1,0,1.6.2.9.3,1.2.5.7.5.9.7c.3.3.5.5.6.8l-1.8.9c-.3-.4-.6-.7-1-.9-.4-.3-.9-.4-1.6-.4s-.9,0-1.3.3c-.4.2-.7.4-1,.8-.3.3-.5.7-.7,1.1-.2.4-.2.9-.2,1.4s0,.9.2,1.4c.2.4.4.8.7,1.1.3.3.6.6,1,.8.4.2.8.3,1.3.3s.8,0,1.2-.2c.4-.1.7-.3.9-.5s.5-.5.6-.8c.2-.3.2-.6.3-1h-3.1v-1.5Z"/>
    <path class="st8" d="M49.8,104.7c0,.3,0,.6.2.8.1.2.3.4.6.5.3.1.6.2,1,.2s.6,0,.9-.1.5-.2.7-.3c.2-.1.3-.2.4-.4l.8,1.2c-.1.2-.3.4-.6.5-.2.2-.6.3-.9.4-.4,0-.8.1-1.4.1s-1.3-.1-1.9-.4c-.5-.3-.9-.7-1.2-1.2-.3-.5-.4-1.1-.4-1.9s.1-1.2.4-1.7c.3-.5.7-.9,1.2-1.2s1.1-.4,1.8-.4,1.3.1,1.8.4.9.6,1.1,1.1c.3.5.4,1.1.4,1.8s0,.1,0,.3c0,.1,0,.2,0,.3h-4.8ZM52.8,103.4c0-.2,0-.3-.2-.5s-.2-.4-.5-.5c-.2-.1-.5-.2-.8-.2s-.6,0-.8.2-.4.3-.5.5c-.1.2-.2.4-.2.6h2.9Z"/>
    <path class="st8" d="M55.3,101h1.2v-2.6h2v2.6h1.5v1.7h-1.5v2.3c0,.3,0,.5.1.7,0,.2.3.3.5.3s.3,0,.4,0c.1,0,.2-.1.2-.1l.7,1.4s-.1,0-.3.2-.4.2-.7.2c-.3,0-.6,0-.9,0-.6,0-1.1-.2-1.5-.5-.4-.3-.6-.9-.6-1.6v-2.9h-1.2v-1.7Z"/>
    <path class="st8" d="M66.5,99.5l-1.7.9v-1.9l2.7-1.5h1v10.4h-2v-7.9Z"/>
    <path class="st8" d="M69.9,102.3c0-.9.1-1.7.3-2.4.2-.7.5-1.2.9-1.7s.8-.8,1.3-1c.5-.2,1-.3,1.5-.3s1,.1,1.5.3c.5.2.9.6,1.3,1s.7,1,.9,1.7.3,1.5.3,2.4-.1,1.8-.3,2.4c-.2.7-.5,1.2-.9,1.7s-.8.7-1.3.9c-.5.2-1,.3-1.5.3s-1-.1-1.5-.3c-.5-.2-.9-.5-1.3-.9s-.7-1-.9-1.7c-.2-.7-.3-1.5-.3-2.4ZM71.9,102.3c0,.8,0,1.5.3,2,.2.5.4.9.7,1.2.3.3.7.4,1.1.4s.8-.1,1.1-.4c.3-.3.6-.7.7-1.2.2-.5.3-1.2.3-2s0-1.4-.3-2c-.2-.5-.4-.9-.7-1.2s-.7-.4-1.1-.4-.8.1-1.1.4-.6.7-.7,1.2c-.2.5-.3,1.2-.3,2Z"/>
    <path class="st8" d="M79.1,102.3c0-.9.1-1.7.3-2.4.2-.7.5-1.2.9-1.7s.8-.8,1.3-1c.5-.2,1-.3,1.5-.3s1,.1,1.5.3c.5.2.9.6,1.3,1s.7,1,.9,1.7.3,1.5.3,2.4-.1,1.8-.3,2.4c-.2.7-.5,1.2-.9,1.7s-.8.7-1.3.9c-.5.2-1,.3-1.5.3s-1-.1-1.5-.3c-.5-.2-.9-.5-1.3-.9s-.7-1-.9-1.7c-.2-.7-.3-1.5-.3-2.4ZM81,102.3c0,.8,0,1.5.3,2,.2.5.4.9.7,1.2.3.3.7.4,1.1.4s.8-.1,1.1-.4c.3-.3.6-.7.7-1.2.2-.5.3-1.2.3-2s0-1.4-.3-2c-.2-.5-.4-.9-.7-1.2s-.7-.4-1.1-.4-.8.1-1.1.4-.6.7-.7,1.2c-.2.5-.3,1.2-.3,2Z"/>
    <path class="st8" d="M88.3,99.4c0-.4.1-.8.3-1.2.2-.4.5-.6.9-.8.4-.2.8-.3,1.3-.3s.9.1,1.3.3c.4.2.7.5.9.8.2.4.3.7.3,1.2s-.1.8-.3,1.2c-.2.4-.5.6-.9.8-.4.2-.8.3-1.3.3s-1-.1-1.3-.3c-.4-.2-.7-.5-.9-.8-.2-.4-.3-.7-.3-1.2ZM89.7,99.4c0,.4.1.6.3.9s.5.3.8.3.6-.1.8-.3c.2-.2.3-.5.3-.9s-.1-.6-.3-.9c-.2-.2-.5-.3-.8-.3s-.6.1-.8.3c-.2.2-.3.5-.3.9ZM96.4,97.1h1.3l-6.4,10.4h-1.3l6.4-10.4ZM94.3,105.1c0-.4.1-.8.3-1.2.2-.4.5-.6.9-.8s.8-.3,1.3-.3.9.1,1.3.3c.4.2.7.5.9.8.2.4.3.7.3,1.2s-.1.8-.3,1.2-.5.6-.9.8c-.4.2-.8.3-1.3.3s-1-.1-1.3-.3-.7-.5-.9-.8c-.2-.4-.3-.7-.3-1.2ZM95.7,105.1c0,.4.1.6.3.9s.5.3.8.3.6-.1.8-.3c.2-.2.3-.5.3-.9s-.1-.6-.3-.9-.5-.3-.8-.3-.6.1-.8.3-.3.5-.3.9Z"/>
    <path class="st8" d="M106.5,107.4h-2v-6.4h2v1h0c0-.1.1-.3.3-.5.2-.2.4-.4.7-.5.3-.2.6-.2,1.1-.2s.6,0,.8.1c.2,0,.4.2.5.3l-.8,1.6c0,0-.2-.2-.4-.3-.2,0-.4-.1-.7-.1s-.6,0-.8.3c-.2.2-.4.4-.5.7s-.2.5-.2.7v3.3Z"/>
    <path class="st8" d="M111.8,104.7c0,.3,0,.6.2.8.1.2.3.4.6.5.3.1.6.2,1,.2s.6,0,.9-.1.5-.2.7-.3c.2-.1.3-.2.4-.4l.8,1.2c-.1.2-.3.4-.6.5-.2.2-.6.3-.9.4-.4,0-.8.1-1.4.1s-1.3-.1-1.9-.4c-.5-.3-.9-.7-1.2-1.2-.3-.5-.4-1.1-.4-1.9s.1-1.2.4-1.7c.3-.5.7-.9,1.2-1.2s1.1-.4,1.8-.4,1.3.1,1.8.4.9.6,1.1,1.1c.3.5.4,1.1.4,1.8s0,.1,0,.3c0,.1,0,.2,0,.3h-4.8ZM114.8,103.4c0-.2,0-.3-.2-.5s-.2-.4-.5-.5c-.2-.1-.5-.2-.8-.2s-.6,0-.8.2-.4.3-.5.5c-.1.2-.2.4-.2.6h2.9Z"/>
    <path class="st8" d="M117.3,101h1.2v-1.7c0-.6.1-1.2.4-1.6.3-.4.6-.7,1-.9.4-.2.8-.3,1.2-.3s.9,0,1.2.2c.3.1.4.2.5.3l-.8,1.5s0,0-.2-.2c-.1,0-.3-.1-.5-.1s-.3,0-.4.1c-.1,0-.2.2-.3.4,0,.2-.1.5-.1.8v1.6h1.7v1.7h-1.7v4.8h-2v-4.8h-1.2v-1.7Z"/>
    <path class="st8" d="M125,104.1c0,.6.1,1,.3,1.4.2.3.6.5,1.1.5s.9-.2,1.1-.5c.2-.3.3-.8.3-1.4v-3.1h2v3.3c0,.7-.1,1.2-.4,1.7-.3.5-.7.9-1.2,1.2s-1.1.4-1.9.4-1.3-.1-1.9-.4c-.5-.3-.9-.7-1.2-1.2-.3-.5-.4-1.1-.4-1.7v-3.3h2v3.1Z"/>
    <path class="st8" d="M135.5,100.8c.4,0,.9,0,1.3.3.4.2.8.5,1,.9.3.4.4.9.4,1.5v4h-2v-3.6c0-.5-.1-.9-.4-1.2-.2-.3-.6-.4-1-.4s-.5,0-.7.2c-.2.1-.4.3-.6.6-.1.3-.2.5-.2.9v3.5h-2v-6.4h2v1c0-.2.2-.4.4-.5.2-.2.5-.3.8-.5.3-.1.7-.2,1-.2Z"/>
    <path class="st8" d="M142.5,107.6c-.6,0-1.1-.1-1.6-.4s-.8-.7-1.1-1.2c-.3-.5-.4-1.1-.4-1.7s.1-1.2.4-1.7c.3-.5.6-.9,1.1-1.2s1-.4,1.6-.4.8,0,1.2.2.6.3.8.5c.2.2.3.4.4.5v-5.4h2v10.8h-2v-1.1c0,.2-.2.4-.5.6-.2.2-.5.4-.8.5s-.7.2-1.1.2ZM143.1,106c.3,0,.6,0,.9-.2.3-.2.5-.4.6-.6s.2-.6.2-.9,0-.7-.2-.9-.4-.5-.6-.6c-.3-.2-.6-.2-.9-.2s-.6,0-.8.2c-.3.2-.5.4-.6.6-.2.3-.2.6-.2,1s0,.7.2,1c.2.3.4.5.6.6.3.2.5.2.8.2Z"/>
    <path class="st14" d="M155.4,107.6c-.7,0-1.3-.1-1.8-.4-.5-.3-1-.7-1.3-1.2-.3-.5-.5-1.1-.5-1.7s.2-1.2.5-1.8.7-.9,1.3-1.2c.5-.3,1.1-.5,1.8-.5s1.3.2,1.8.5c.5.3.9.7,1.2,1.2s.4,1.1.4,1.8-.1,1.2-.4,1.7c-.3.5-.7.9-1.2,1.2-.5.3-1.1.4-1.8.4ZM155.4,106c.3,0,.6,0,.9-.2.2-.1.4-.4.6-.6s.2-.6.2-.9,0-.6-.2-.9c-.1-.3-.3-.5-.6-.6-.2-.2-.5-.2-.9-.2s-.6,0-.9.2c-.2.2-.4.4-.6.6-.1.3-.2.6-.2.9s0,.6.2.9c.1.3.3.5.6.6.2.1.5.2.9.2Z"/>
    <path class="st14" d="M164.2,100.8c.4,0,.9,0,1.3.3.4.2.8.5,1,.9.3.4.4.9.4,1.5v4h-2v-3.6c0-.5-.1-.9-.4-1.2-.2-.3-.6-.4-1-.4s-.5,0-.7.2c-.2.1-.4.3-.6.6-.1.3-.2.5-.2.9v3.5h-2v-6.4h2v1c0-.2.2-.4.4-.5.2-.2.5-.3.8-.5.3-.1.7-.2,1-.2Z"/>
    <path class="st14" d="M176.5,100.8c.4,0,.9,0,1.3.3.4.2.8.5,1,.9.3.4.4.9.4,1.5v4h-2v-3.6c0-.5-.1-.9-.4-1.2-.2-.3-.6-.4-1-.4s-.5,0-.7.2c-.2.1-.4.3-.6.6-.1.3-.2.5-.2.9v3.5h-2v-6.4h2v1c0-.2.2-.4.4-.5.2-.2.5-.3.8-.5.3-.1.7-.2,1-.2Z"/>
    <path class="st14" d="M183.9,107.6c-.7,0-1.3-.1-1.8-.4-.5-.3-1-.7-1.3-1.2-.3-.5-.5-1.1-.5-1.7s.2-1.2.5-1.8.7-.9,1.3-1.2c.5-.3,1.1-.5,1.8-.5s1.3.2,1.8.5c.5.3.9.7,1.2,1.2s.4,1.1.4,1.8-.1,1.2-.4,1.7c-.3.5-.7.9-1.2,1.2-.5.3-1.1.4-1.8.4ZM183.9,106c.3,0,.6,0,.9-.2.2-.1.4-.4.6-.6s.2-.6.2-.9,0-.6-.2-.9c-.1-.3-.3-.5-.6-.6-.2-.2-.5-.2-.9-.2s-.6,0-.9.2c-.2.2-.4.4-.6.6-.1.3-.2.6-.2.9s0,.6.2.9c.1.3.3.5.6.6.2.1.5.2.9.2Z"/>
    <path class="st14" d="M192.7,100.8c.4,0,.9,0,1.3.3.4.2.8.5,1,.9.3.4.4.9.4,1.5v4h-2v-3.6c0-.5-.1-.9-.4-1.2-.2-.3-.6-.4-1-.4s-.5,0-.7.2c-.2.1-.4.3-.6.6-.1.3-.2.5-.2.9v3.5h-2v-6.4h2v1c0-.2.2-.4.4-.5.2-.2.5-.3.8-.5.3-.1.7-.2,1-.2Z"/>
    <path class="st14" d="M197,104.7v-1.7h4v1.7h-4Z"/>
    <path class="st14" d="M205.6,107.6c-.6,0-1.1-.1-1.6-.4s-.8-.7-1.1-1.2c-.3-.5-.4-1.1-.4-1.7s.1-1.2.4-1.7c.3-.5.6-.9,1.1-1.2s1-.4,1.6-.4.8,0,1.2.2.6.3.8.5c.2.2.3.4.4.5v-5.4h2v10.8h-2v-1.1c0,.2-.2.4-.5.6-.2.2-.5.4-.8.5s-.7.2-1.1.2ZM206.2,106c.3,0,.6,0,.9-.2.3-.2.5-.4.6-.6s.2-.6.2-.9,0-.7-.2-.9-.4-.5-.6-.6c-.3-.2-.6-.2-.9-.2s-.6,0-.8.2c-.3.2-.5.4-.6.6-.2.3-.2.6-.2,1s0,.7.2,1c.2.3.4.5.6.6.3.2.5.2.8.2Z"/>
    <path class="st14" d="M212.8,104.7c0,.3,0,.6.2.8.1.2.3.4.6.5.3.1.6.2,1,.2s.6,0,.9-.1.5-.2.7-.3c.2-.1.3-.2.4-.4l.8,1.2c-.1.2-.3.4-.6.5-.2.2-.6.3-.9.4-.4,0-.8.1-1.4.1s-1.3-.1-1.9-.4c-.5-.3-.9-.7-1.2-1.2-.3-.5-.4-1.1-.4-1.9s.1-1.2.4-1.7c.3-.5.7-.9,1.2-1.2s1.1-.4,1.8-.4,1.3.1,1.8.4.9.6,1.1,1.1c.3.5.4,1.1.4,1.8s0,.1,0,.3c0,.1,0,.2,0,.3h-4.8ZM215.8,103.4c0-.2,0-.3-.2-.5s-.2-.4-.5-.5c-.2-.1-.5-.2-.8-.2s-.6,0-.8.2-.4.3-.5.5c-.1.2-.2.4-.2.6h2.9Z"/>
    <path class="st14" d="M220.9,107.4h-2v-10.8h2v10.8Z"/>
    <path class="st14" d="M223.6,99.3c-.3,0-.6-.1-.8-.3s-.3-.5-.3-.8.1-.6.3-.8.5-.4.8-.4.4,0,.6.2c.2.1.3.2.4.4s.2.4.2.6c0,.3-.1.6-.3.8-.2.2-.5.3-.8.3ZM222.6,107.4v-6.4h2v6.4h-2Z"/>
    <path class="st14" d="M225.7,101h2.1l1.8,4.6,1.8-4.6h2.1l-2.7,6.4h-2.3l-2.7-6.4Z"/>
    <path class="st14" d="M236,104.7c0,.3,0,.6.2.8.1.2.3.4.6.5.3.1.6.2,1,.2s.6,0,.9-.1.5-.2.7-.3c.2-.1.3-.2.4-.4l.8,1.2c-.1.2-.3.4-.6.5-.2.2-.6.3-.9.4-.4,0-.8.1-1.4.1s-1.3-.1-1.9-.4c-.5-.3-.9-.7-1.2-1.2-.3-.5-.4-1.1-.4-1.9s.1-1.2.4-1.7c.3-.5.7-.9,1.2-1.2s1.1-.4,1.8-.4,1.3.1,1.8.4.9.6,1.1,1.1c.3.5.4,1.1.4,1.8s0,.1,0,.3c0,.1,0,.2,0,.3h-4.8ZM239,103.4c0-.2,0-.3-.2-.5s-.2-.4-.5-.5c-.2-.1-.5-.2-.8-.2s-.6,0-.8.2-.4.3-.5.5c-.1.2-.2.4-.2.6h2.9Z"/>
    <path class="st14" d="M244,107.4h-2v-6.4h2v1h0c0-.1.1-.3.3-.5.2-.2.4-.4.7-.5.3-.2.6-.2,1.1-.2s.6,0,.8.1c.2,0,.4.2.5.3l-.8,1.6c0,0-.2-.2-.4-.3-.2,0-.4-.1-.7-.1s-.6,0-.8.3c-.2.2-.4.4-.5.7s-.2.5-.2.7v3.3Z"/>
    <path class="st14" d="M251,105.7l1.9-4.7h2l-4.4,9.7h-2l1.5-3.3-2.7-6.4h2l1.7,4.7Z"/>
    <path class="st14" d="M262.8,107.6c-.7,0-1.3-.1-1.8-.4-.5-.3-1-.7-1.3-1.2-.3-.5-.5-1.1-.5-1.7s.2-1.2.5-1.8.7-.9,1.3-1.2c.5-.3,1.1-.5,1.8-.5s1.3.2,1.8.5c.5.3.9.7,1.2,1.2s.4,1.1.4,1.8-.1,1.2-.4,1.7c-.3.5-.7.9-1.2,1.2-.5.3-1.1.4-1.8.4ZM262.8,106c.3,0,.6,0,.9-.2.2-.1.4-.4.6-.6s.2-.6.2-.9,0-.6-.2-.9c-.1-.3-.3-.5-.6-.6-.2-.2-.5-.2-.9-.2s-.6,0-.9.2c-.2.2-.4.4-.6.6-.1.3-.2.6-.2.9s0,.6.2.9c.1.3.3.5.6.6.2.1.5.2.9.2Z"/>
    <path class="st14" d="M269.4,107.4h-2v-6.4h2v1h0c0-.1.1-.3.3-.5.2-.2.4-.4.7-.5.3-.2.6-.2,1.1-.2s.6,0,.8.1c.2,0,.4.2.5.3l-.8,1.6c0,0-.2-.2-.4-.3-.2,0-.4-.1-.7-.1s-.6,0-.8.3c-.2.2-.4.4-.5.7-.1.3-.2.5-.2.7v3.3Z"/>
    <path class="st14" d="M280.2,107.6c-.6,0-1.1-.1-1.6-.4-.5-.3-.8-.7-1.1-1.2-.3-.5-.4-1.1-.4-1.7s.1-1.2.4-1.7.6-.9,1.1-1.2c.5-.3,1-.4,1.6-.4s.8,0,1.2.2c.3.1.6.3.8.5s.3.4.4.5v-5.4h2v10.8h-2v-1.1c0,.2-.2.4-.5.6-.2.2-.5.4-.8.5s-.7.2-1.1.2ZM280.8,106c.3,0,.6,0,.9-.2s.5-.4.6-.6.2-.6.2-.9,0-.7-.2-.9-.4-.5-.6-.6-.6-.2-.9-.2-.6,0-.8.2c-.3.2-.5.4-.6.6s-.2.6-.2,1,0,.7.2,1,.4.5.6.6c.3.2.5.2.8.2Z"/>
    <path class="st14" d="M287.4,104.7c0,.3,0,.6.2.8.1.2.3.4.6.5.3.1.6.2,1,.2s.6,0,.9-.1c.3,0,.5-.2.7-.3.2-.1.3-.2.4-.4l.8,1.2c-.1.2-.3.4-.6.5-.2.2-.6.3-.9.4-.4,0-.8.1-1.4.1s-1.3-.1-1.9-.4c-.5-.3-.9-.7-1.2-1.2s-.4-1.1-.4-1.9.1-1.2.4-1.7c.3-.5.7-.9,1.2-1.2s1.1-.4,1.8-.4,1.3.1,1.8.4.9.6,1.1,1.1c.3.5.4,1.1.4,1.8s0,.1,0,.3,0,.2,0,.3h-4.8ZM290.4,103.4c0-.2,0-.3-.2-.5s-.2-.4-.5-.5c-.2-.1-.5-.2-.8-.2s-.6,0-.8.2c-.2.1-.4.3-.5.5-.1.2-.2.4-.2.6h2.9Z"/>
    <path class="st14" d="M292.9,101h1.2v-1.7c0-.6.1-1.2.4-1.6.3-.4.6-.7,1-.9.4-.2.8-.3,1.2-.3s.9,0,1.2.2.4.2.5.3l-.8,1.5s0,0-.2-.2c-.1,0-.3-.1-.5-.1s-.3,0-.4.1c-.1,0-.2.2-.3.4,0,.2-.1.5-.1.8v1.6h1.7v1.7h-1.7v4.8h-2v-4.8h-1.2v-1.7Z"/>
    <path class="st14" d="M300.2,104.7c0,.3,0,.6.2.8.1.2.3.4.6.5.3.1.6.2,1,.2s.6,0,.9-.1c.3,0,.5-.2.7-.3.2-.1.3-.2.4-.4l.8,1.2c-.1.2-.3.4-.6.5-.2.2-.6.3-.9.4-.4,0-.8.1-1.4.1s-1.3-.1-1.9-.4c-.5-.3-.9-.7-1.2-1.2s-.4-1.1-.4-1.9.1-1.2.4-1.7c.3-.5.7-.9,1.2-1.2s1.1-.4,1.8-.4,1.3.1,1.8.4.9.6,1.1,1.1c.3.5.4,1.1.4,1.8s0,.1,0,.3,0,.2,0,.3h-4.8ZM303.2,103.4c0-.2,0-.3-.2-.5s-.2-.4-.5-.5c-.2-.1-.5-.2-.8-.2s-.6,0-.8.2c-.2.1-.4.3-.5.5-.1.2-.2.4-.2.6h2.9Z"/>
    <path class="st14" d="M309.7,106c.3,0,.6,0,.8-.2.2-.1.4-.2.4-.3l.9,1.4c0,0-.2.1-.4.2-.2.1-.5.2-.8.3-.3,0-.7.1-1,.1-.7,0-1.3-.1-1.8-.4-.5-.3-1-.7-1.3-1.2-.3-.5-.5-1.1-.5-1.8s.2-1.3.5-1.8c.3-.5.7-.9,1.3-1.2.5-.3,1.1-.4,1.8-.4s.7,0,1,.1c.3,0,.6.2.8.3.2.1.3.2.4.3l-.9,1.4s-.1,0-.2-.2c-.1,0-.2-.1-.4-.2-.2,0-.4,0-.6,0s-.6,0-.8.2-.5.4-.6.6-.2.6-.2,1,0,.7.2,1,.4.5.6.6c.3.2.5.2.8.2Z"/>
    <path class="st14" d="M312.3,101h1.2v-2.6h2v2.6h1.5v1.7h-1.5v2.3c0,.3,0,.5.1.7,0,.2.3.3.5.3s.3,0,.4,0c.1,0,.2-.1.2-.1l.7,1.4s-.1,0-.3.2-.4.2-.7.2c-.3,0-.6,0-.9,0-.6,0-1.1-.2-1.5-.5-.4-.3-.6-.9-.6-1.6v-2.9h-1.2v-1.7Z"/>
    <path class="st14" d="M320.9,100.8c.4,0,.7,0,1.1.1.3,0,.6.2.8.2s.4.2.5.2l-.7,1.2c-.1,0-.3-.2-.6-.3-.3-.1-.6-.2-.9-.2s-.5,0-.8.2c-.2.1-.3.3-.3.5s.1.4.3.5c.2.1.5.2.9.3.3,0,.7.2,1,.3.3.1.6.3.8.6s.3.6.3,1,0,.8-.3,1.1c-.2.3-.4.5-.7.7-.3.2-.6.3-1,.3-.4,0-.7.1-1.1.1s-.9,0-1.2-.1c-.3,0-.6-.2-.9-.3-.2-.1-.4-.2-.5-.3l.7-1.3c.1.1.4.3.7.4.3.1.6.2,1,.2s.7,0,.9-.2c.2-.1.3-.3.3-.5s0-.3-.2-.4-.2-.2-.4-.3c-.2,0-.4-.1-.6-.2-.2,0-.5-.1-.7-.2-.2,0-.5-.2-.7-.4-.2-.2-.4-.3-.5-.6-.1-.2-.2-.5-.2-.8s.1-.7.4-1,.6-.5,1-.6c.4-.1.9-.2,1.3-.2Z"/>
  </g>
  <g>
    <path class="st8" d="M17.3,104.4v-1.4h1.7c.7,0,1.3-.1,1.7-.3.4-.2.6-.5.7-1h-4.1v-1.4h4.1c-.3-.9-1-1.3-2.3-1.3h-1.8v-1.6h8.1l-.3,1.6h-2.4c.4.3.7.7.8,1.3h1.3l-.3,1.4h-1c-.1.8-.5,1.4-1.1,1.9-.6.5-1.4.7-2.3.8h-.2s4.1,4.2,4.1,4.2h-2.8l-3.8-4.2Z"/>
    <path class="st8" d="M21.3,93.3c-4.7,0-8.6,3.6-9.2,8.2h-1c-.2,0-.2.2-.2.3l1.7,2.5c0,.1.2.1.3,0l1.7-2.4c0-.1,0-.3-.2-.3h-1c.5-3.9,3.9-6.9,7.9-6.9s5.8,1.7,7.1,4.4c.2.3.5.4.8.3.3-.1.5-.6.3-.9-1.6-3.1-4.7-5.1-8.3-5.1Z"/>
    <path class="st8" d="M31.6,103.4l-1.7-2.5c0-.1-.2-.1-.3,0l-1.7,2.4c0,.1,0,.3.2.3h1c-.5,3.9-3.9,6.9-7.9,6.9s-5.8-1.7-7.1-4.4c-.2-.3-.5-.4-.8-.3-.3.1-.5.6-.3.9,1.6,3.1,4.7,5.1,8.3,5.1s8.6-3.6,9.2-8.2h1c.2,0,.2-.2.2-.3h0Z"/>
  </g>
</svg>