<?xml version="1.0" encoding="UTF-8"?>
<svg id="Layer_1" xmlns="http://www.w3.org/2000/svg" version="1.1" xmlns:xlink="http://www.w3.org/1999/xlink" viewBox="0 0 316.7 127.9">
  <defs>
    <style>
      .st0 {
        fill: none;
        stroke: #305eff;
        stroke-miterlimit: 10;
        stroke-width: 1.2px;
      }

      .st1 {
        fill: #305eff;
      }

      .st2 {
        fill: #fff;
      }

      .st3 {
        fill: #0220b4;
      }

      .st4 {
        fill: #072654;
      }

      .st4, .st5 {
        fill-rule: evenodd;
      }

      .st6 {
        fill: #3d4a59;
      }

      .st7 {
        fill: #686868;
      }

      .st8 {
        fill: #efefef;
      }

      .st9 {
        fill: #2c4be2;
      }

      .st10 {
        fill: url(#linear-gradient);
        opacity: .2;
      }

      .st11 {
        fill: #1e43c6;
      }

      .st5 {
        fill: #3395ff;
      }

      .st12 {
        fill: #788fa8;
        stroke: #788fa8;
        stroke-linecap: round;
        stroke-linejoin: round;
      }

      .st13 {
        opacity: .5;
      }

      .st14 {
        fill: #2e4de5;
      }
    </style>
    <linearGradient id="linear-gradient" x1="122.7" y1="-29.2" x2="194" y2="166.6" gradientUnits="userSpaceOnUse">
      <stop offset="0" stop-color="#0220b4"/>
      <stop offset="0" stop-color="#0523b5"/>
      <stop offset="0" stop-color="#344cc2"/>
      <stop offset="0" stop-color="#5e71cf"/>
      <stop offset=".1" stop-color="#8593da"/>
      <stop offset=".2" stop-color="#a6b0e4"/>
      <stop offset=".3" stop-color="#c2c9ec"/>
      <stop offset=".3" stop-color="#d8ddf3"/>
      <stop offset=".4" stop-color="#e9ecf8"/>
      <stop offset=".5" stop-color="#f6f7fc"/>
      <stop offset=".7" stop-color="#fdfdfe"/>
      <stop offset="1" stop-color="#fff"/>
    </linearGradient>
  </defs>
  <g>
    <rect class="st2" x="1.8" y="11.7" width="313.2" height="114" rx="10.4" ry="10.4"/>
    <rect class="st10" x="1.8" y="11.7" width="313.2" height="114" rx="10.4" ry="10.4"/>
    <rect class="st8" x="1.8" y="87.6" width="313.2" height="1"/>
    <rect class="st0" x="1.8" y="11.7" width="313.2" height="114" rx="10.4" ry="10.4"/>
    <path class="st1" d="M315,22.1v9.4h-106.9c-5.7,0-10.4-4.7-10.4-10.4v-9.4h106.9c5.7,0,10.4,4.6,10.4,10.4Z"/>
    <g>
      <path class="st2" d="M204.6,22.9c-.3-.6-.4-1.3-.4-2s.1-1.5.4-2,.7-1,1.2-1.3c.5-.3,1.2-.5,1.9-.5s1.4.2,1.9.5c.5.3.9.7,1.2,1.3.3.6.4,1.2.4,2s-.1,1.5-.4,2-.7,1-1.2,1.3c-.5.3-1.2.5-1.9.5s-1.4-.2-1.9-.5c-.5-.3-.9-.7-1.2-1.3ZM206.2,19c-.3.4-.5,1.1-.5,1.9s.2,1.5.5,1.9c.3.4.8.7,1.4.7s1.1-.2,1.4-.7c.3-.4.5-1.1.5-1.9s-.2-1.5-.5-1.9c-.3-.4-.8-.6-1.4-.6s-1.1.2-1.4.6Z"/>
      <path class="st2" d="M214.2,24.5h-1.5v-7.3h1.8l3,5.1v-5.1h1.5v7.3h-1.8l-3-5v5Z"/>
      <path class="st2" d="M224.7,21.8v2.7h-1.5v-7.3h2.8c.8,0,1.4.2,1.8.6.4.4.7,1,.7,1.7s-.2,1.3-.7,1.7c-.4.4-1,.6-1.8.6h-1.3ZM224.7,20.7h1.1c.3,0,.6,0,.8-.3.2-.2.3-.5.3-.8s0-.7-.3-.8c-.2-.2-.5-.3-.8-.3h-1.1v2.3Z"/>
      <path class="st2" d="M229.7,24.5v-7.3h2.8c.8,0,1.4.2,1.8.6s.7.9.7,1.6-.1.8-.3,1.1-.6.6-1,.8l1.8,3.1h-1.6l-1.6-2.9h-1v2.9h-1.5ZM231.2,20.6h1.1c.7,0,1.1-.4,1.1-1.1s-.4-1.1-1.1-1.1h-1.1v2.2Z"/>
      <path class="st2" d="M236.3,24.5v-7.3h4.8v1.2h-3.2v1.7h2.6v1.2h-2.6v1.9h3.2v1.2h-4.8Z"/>
      <path class="st2" d="M243.9,21.8v2.7h-1.5v-7.3h2.8c.8,0,1.4.2,1.8.6.4.4.7,1,.7,1.7s-.2,1.3-.7,1.7c-.4.4-1,.6-1.8.6h-1.3ZM243.9,20.7h1.1c.3,0,.6,0,.8-.3.2-.2.3-.5.3-.8s0-.7-.3-.8c-.2-.2-.5-.3-.8-.3h-1.1v2.3Z"/>
      <path class="st2" d="M252.6,24.5l-.5-1.7h-2.5l-.5,1.7h-1.7l2.6-7.3h1.7l2.6,7.3h-1.7ZM250,21.7h1.8l-.9-3-.9,3Z"/>
      <path class="st2" d="M255.3,24.5v-7.3h1.6v7.3h-1.6Z"/>
      <path class="st2" d="M258.6,24.5v-7.3h2.6c1.1,0,1.9.3,2.5.9.6.6.9,1.5.9,2.7s-.3,2.1-.9,2.7c-.6.6-1.4,1-2.5,1h-2.6ZM260.2,18.4v4.8h.9c1.3,0,1.9-.8,1.9-2.3v-.2c0-1.5-.6-2.3-1.9-2.3h-.9Z"/>
      <path class="st2" d="M269,22.9c-.3-.6-.4-1.3-.4-2s.1-1.5.4-2c.3-.6.7-1,1.2-1.3.5-.3,1.2-.5,1.9-.5s1.4.2,1.9.5c.5.3.9.7,1.2,1.3.3.6.4,1.2.4,2s-.1,1.5-.4,2-.7,1-1.2,1.3c-.5.3-1.2.5-1.9.5s-1.4-.2-1.9-.5c-.5-.3-.9-.7-1.2-1.3ZM270.7,19c-.3.4-.5,1.1-.5,1.9s.2,1.5.5,1.9c.3.4.8.7,1.4.7s1.1-.2,1.4-.7c.3-.4.5-1.1.5-1.9s-.2-1.5-.5-1.9c-.3-.4-.8-.6-1.4-.6s-1.1.2-1.4.6Z"/>
      <path class="st2" d="M277.2,24.5v-7.3h2.8c.8,0,1.4.2,1.8.6s.7.9.7,1.6-.1.8-.3,1.1-.6.6-1,.8l1.8,3.1h-1.6l-1.6-2.9h-1v2.9h-1.5ZM278.7,20.6h1.1c.7,0,1.1-.4,1.1-1.1s-.4-1.1-1.1-1.1h-1.1v2.2Z"/>
      <path class="st2" d="M283.8,24.5v-7.3h2.6c1.1,0,1.9.3,2.5.9.6.6.9,1.5.9,2.7s-.3,2.1-.9,2.7c-.6.6-1.4,1-2.5,1h-2.6ZM285.4,18.4v4.8h.9c1.3,0,1.9-.8,1.9-2.3v-.2c0-1.5-.6-2.3-1.9-2.3h-.9Z"/>
      <path class="st2" d="M291.3,24.5v-7.3h4.8v1.2h-3.2v1.7h2.6v1.2h-2.6v1.9h3.2v1.2h-4.8Z"/>
      <path class="st2" d="M297.4,24.5v-7.3h2.8c.8,0,1.4.2,1.8.6s.7.9.7,1.6-.1.8-.3,1.1-.6.6-1,.8l1.8,3.1h-1.6l-1.6-2.9h-1v2.9h-1.5ZM298.9,20.6h1.1c.7,0,1.1-.4,1.1-1.1s-.4-1.1-1.1-1.1h-1.1v2.2Z"/>
      <path class="st2" d="M306,23.4c.4,0,.7,0,1-.2.2-.2.3-.3.3-.6s0-.4-.2-.6c-.1-.1-.4-.3-.8-.4l-.8-.3c-.6-.2-1.1-.5-1.3-.8-.3-.3-.4-.8-.4-1.3s.2-1.2.7-1.6c.5-.4,1.1-.6,1.9-.6s1.5.1,2.1.4v1.2c-.7-.2-1.3-.3-1.9-.3-.8,0-1.2.3-1.2.8,0,.2,0,.4.2.5.1.1.4.3.8.4l.8.3c.6.2,1.1.5,1.4.8.3.3.4.7.4,1.2,0,.7-.3,1.3-.8,1.7-.5.4-1.2.6-2.1.6s-1.6-.1-2.2-.4v-1.2c.8.2,1.5.3,2.2.3Z"/>
    </g>
    <g>
      <circle class="st9" cx="32.9" cy="42.6" r="15.5"/>
      <circle class="st11" cx="32.9" cy="42.6" r="12.8"/>
      <path class="st2" d="M45.7,42.6c0,7.1-5.7,12.8-12.8,12.8s-.5,0-.8,0c6.7-.4,12-6,12-12.8s-5.3-12.4-12-12.8c.3,0,.5,0,.8,0,7.1,0,12.8,5.7,12.8,12.8Z"/>
      <path class="st14" d="M32.9,28.8v25.6c-7.1,0-12.8-5.7-12.8-12.8s5.7-12.8,12.8-12.8Z"/>
      <path class="st3" d="M33.7,55.4c-.3,0-.5,0-.8,0-7.1,0-12.8-5.7-12.8-12.8s5.7-12.8,12.8-12.8.5,0,.8,0c-6.7.4-12,6-12,12.8s5.3,12.4,12,12.8Z"/>
      <g>
        <path class="st2" d="M28.8,46.7v-1.6h2c.9,0,1.5-.1,1.9-.4.4-.2.7-.6.8-1.1h-4.8v-1.6h4.7c-.3-1-1.2-1.5-2.7-1.5h-2.1v-1.8h9.3l-.4,1.8h-2.8c.5.4.8.9,1,1.5h1.5l-.3,1.6h-1.2c-.1.9-.6,1.7-1.2,2.2-.7.5-1.6.8-2.7.9h-.2s4.7,4.9,4.7,4.9h-3.3l-4.4-4.9Z"/>
        <g>
          <path class="st2" d="M39.4,38.1s0,0,0,0c-.7-.7-1.6-1.4-2.5-1.9-1.2-.7-2.3-1.3-3.7-1.3s-.2,0-.3,0c-1.2,0-2.3.6-3.5,1.5-.2.2-.4.3-.5.4l.6.3.6.4s0,0,0,.1c0,0,0,0-.1,0,0,0-3.5,0-3.5,0,0,0,0,0-.1,0,0,0,0,0,0-.1l1.1-3.6s0,0,0,0c0,0,0,0,0,0,0,0,0,0,0,0,0,0,0,0,0,.1l.3,1.3s.1-.1.1-.1c.4-.3,2.5-1.5,4.3-1.6,0,0,.2,0,.3,0,2.5,0,5.2,1.7,6.8,4.2,0,0,0,0,0,0,0,0,0,.1,0,.2,0,0,0,0,0,0Z"/>
          <path class="st2" d="M32.6,33.7c2.3,0,5,1.5,6.7,4.2,0,0,0,0,0,0-.5-.5-1.4-1.3-2.5-1.9-1.2-.7-2.3-1.3-3.8-1.3-.1,0-.2,0-.3,0-1.2,0-2.4.6-3.5,1.5-.1.1-.5.4-.6.5,0,0,0,0,0,0l.7.4.6.4h-3.5s1.1-3.6,1.1-3.6h0s.3,1.5.3,1.5c0,0,0,0,0,0s0,0,0,0c0,0,.2-.2.3-.2.3-.2,2.4-1.5,4.3-1.5,0,0,.2,0,.3,0M32.6,33.5c0,0-.2,0-.3,0-1.9,0-4,1.3-4.4,1.6l-.2-1.1c0,0,0-.1,0-.1h0c0,0-.1,0-.2,0s0,0,0,0c0,0-.1,0-.2.2l-1.1,3.6c0,0,0,.2,0,.2,0,0,.1,0,.2,0s0,0,0,0h3.5c.1,0,.2-.1.2-.2,0-.1,0-.2-.1-.3l-.6-.4-.4-.2c0,0,.2-.2.3-.3,1.1-.9,2.2-1.4,3.4-1.4.1,0,.2,0,.3,0,1.4,0,2.5.6,3.6,1.3.9.5,1.7,1.1,2.5,1.9,0,0,.1,0,.2,0s.1,0,.1,0c0,0,.1-.2,0-.3h0c-1.7-2.7-4.4-4.4-6.9-4.4h0Z"/>
        </g>
      </g>
    </g>
    <g>
      <path class="st6" d="M65.3,52.7c0-1.6-.2-3.5-.1-5.1h0c-.4,1.5-.9,3.1-1.4,4.7l-1.8,5.3h-1.7l-1.6-5.2c-.5-1.6-.9-3.2-1.2-4.7h0c0,1.6-.1,3.5-.2,5.2l-.3,4.9h-2.1l.8-12.1h2.9l1.6,4.9c.4,1.4.8,2.9,1.1,4.2h0c.3-1.3.7-2.8,1.2-4.2l1.7-4.9h2.9l.7,12.1h-2.2l-.2-5Z"/>
      <path class="st6" d="M78.3,53.2c0,3.2-2.3,4.7-4.5,4.7s-4.4-1.7-4.4-4.5,1.9-4.6,4.5-4.6,4.4,1.8,4.4,4.5ZM71.7,53.3c0,1.7.8,3,2.2,3s2.2-1.2,2.2-3-.6-3-2.1-3-2.2,1.5-2.2,3Z"/>
      <path class="st6" d="M80.1,51.5c0-1,0-1.8,0-2.6h1.9v1.3h.2c.4-.7,1.3-1.5,2.8-1.5s3.1,1,3.1,3.8v5.2h-2.2v-4.9c0-1.3-.5-2.2-1.7-2.2s-1.5.6-1.7,1.3c0,.2-.1.5-.1.7v5.2h-2.2v-6.2Z"/>
      <path class="st6" d="M92,53.9c0,1.6,1.3,2.3,2.7,2.3s1.7-.2,2.4-.4l.3,1.5c-.8.3-1.8.6-3.1.6-2.8,0-4.5-1.8-4.5-4.4s1.5-4.7,4.3-4.7,3.8,2.3,3.8,4.3,0,.7,0,.9h-5.9ZM95.8,52.3c0-.8-.3-2.1-1.8-2.1s-1.9,1.2-2,2.1h3.9Z"/>
      <path class="st6" d="M101,48.9l1.6,4.7c.2.5.4,1.2.5,1.7h0c.1-.5.3-1.2.5-1.7l1.4-4.7h2.4l-2.2,6c-1.2,3.3-2,4.7-3,5.6-.9.8-1.8,1-2.3,1.1l-.5-1.9c.4,0,.8-.3,1.3-.6.4-.3.9-.8,1.2-1.4,0-.2.1-.3.1-.4s0-.2-.1-.4l-3.2-8h2.4Z"/>
      <path class="st6" d="M112.3,57.6c0-.6,0-1.6,0-2.5v-10.3h2.2v5.2h0c.5-.9,1.5-1.4,2.8-1.4,2.1,0,3.7,1.8,3.7,4.4,0,3.2-2,4.7-4,4.7s-2.1-.4-2.8-1.5h0v1.3h-2ZM114.6,54c0,.2,0,.4,0,.5.2.9,1,1.6,2,1.6,1.4,0,2.2-1.1,2.2-2.9s-.7-2.8-2.2-2.8-1.7.6-2,1.6c0,.2,0,.4,0,.6v1.4Z"/>
      <path class="st6" d="M127.8,57.6l-.2-1h0c-.5.7-1.4,1.2-2.6,1.2-1.8,0-2.8-1.3-2.8-2.6,0-2.2,2-3.3,5.2-3.3h0c0-.7-.2-1.7-1.8-1.7-.9,0-1.8.3-2.4.7l-.4-1.4c.7-.4,1.8-.8,3.2-.8,2.8,0,3.6,1.8,3.6,3.7v3.2c0,.8,0,1.6.1,2.1h-2ZM127.5,53.3c-1.6,0-3.1.3-3.1,1.6s.6,1.3,1.3,1.3,1.5-.6,1.7-1.2c0-.2,0-.3,0-.5v-1.2Z"/>
      <path class="st6" d="M138.5,57.4c-.5.2-1.4.5-2.5.5-2.7,0-4.5-1.8-4.5-4.5s1.8-4.7,4.9-4.7,1.6.2,2.1.4l-.4,1.7c-.4-.2-.9-.3-1.7-.3-1.7,0-2.7,1.2-2.7,2.8,0,1.8,1.2,2.8,2.7,2.8s1.3-.2,1.7-.3l.3,1.6Z"/>
      <path class="st6" d="M142.3,52.7h0c.2-.3.5-.7.7-1l2.1-2.8h2.7l-3.2,3.6,3.7,5.2h-2.7l-2.5-3.9-.7.9v3h-2.2v-12.8h2.2v7.9Z"/>
      <path class="st6" d="M153.1,45.6c.8-.1,1.9-.2,3.4-.2s2.8.3,3.6,1c.7.6,1.2,1.5,1.2,2.7s-.4,2.1-1,2.7c-.9.9-2.3,1.3-3.8,1.3s-.8,0-1.1,0v4.6h-2.2v-12ZM155.3,51.3c.3,0,.6.1,1.1.1,1.7,0,2.7-.8,2.7-2.2s-.9-2.1-2.5-2.1-1,0-1.3.1v4.1Z"/>
      <path class="st6" d="M162.9,51.7c0-1.2,0-2,0-2.8h1.9v1.7h.1c.4-1.2,1.5-1.9,2.4-1.9s.3,0,.5,0v2.1c-.2,0-.4,0-.6,0-1.1,0-1.8.7-2,1.7,0,.2,0,.4,0,.7v4.5h-2.2v-5.9Z"/>
      <path class="st6" d="M177.4,53.2c0,3.2-2.3,4.7-4.5,4.7s-4.4-1.7-4.4-4.5,1.9-4.6,4.5-4.6,4.4,1.8,4.4,4.5ZM170.8,53.3c0,1.7.8,3,2.2,3s2.2-1.2,2.2-3-.6-3-2.1-3-2.2,1.5-2.2,3Z"/>
      <path class="st6" d="M179.3,51.5c0-1,0-1.8,0-2.6h1.9v1.3h.2c.4-.7,1.2-1.5,2.7-1.5s2.1.6,2.4,1.6h0c.3-.5.7-.8,1.1-1.1.5-.3,1.1-.5,1.8-.5,1.4,0,2.9,1,2.9,3.8v5.2h-2.2v-4.8c0-1.5-.5-2.3-1.6-2.3s-1.3.5-1.5,1.2c0,.2-.1.5-.1.7v5.3h-2.2v-5.1c0-1.2-.5-2.1-1.5-2.1s-1.4.7-1.6,1.3c0,.2-.1.5-.1.7v5.2h-2.2v-6.2Z"/>
      <path class="st6" d="M196.9,46.4c0,.7-.5,1.2-1.3,1.2s-1.2-.5-1.2-1.2c0-.7.5-1.2,1.2-1.2s1.2.5,1.2,1.2ZM194.5,57.6v-8.8h2.2v8.8h-2.2Z"/>
      <path class="st6" d="M199,55.6c.5.3,1.4.6,2.2.6s1.4-.4,1.4-1-.4-.9-1.4-1.3c-1.7-.6-2.4-1.5-2.4-2.6,0-1.5,1.3-2.7,3.3-2.7s1.8.2,2.3.5l-.4,1.6c-.4-.2-1.1-.5-1.9-.5s-1.2.4-1.2.9.4.8,1.5,1.2c1.6.6,2.3,1.4,2.3,2.7,0,1.6-1.2,2.8-3.6,2.8s-2-.3-2.7-.6l.4-1.6Z"/>
      <path class="st6" d="M208.2,53.9c0,1.6,1.3,2.3,2.7,2.3s1.7-.2,2.4-.4l.3,1.5c-.8.3-1.8.6-3.1.6-2.8,0-4.5-1.8-4.5-4.4s1.5-4.7,4.3-4.7,3.8,2.3,3.8,4.3,0,.7,0,.9h-5.9ZM212.1,52.3c0-.8-.3-2.1-1.8-2.1s-1.9,1.2-2,2.1h3.9Z"/>
    </g>
    <g>
      <path d="M74.4,38.9h6.4v2.6h-9.3v-14.4h2.9v11.9Z"/>
      <path d="M83.3,41.4h9.3v-2.6h-6.4v-3.9h4.7v-2.5h-4.7v-2.9h6.5v-2.6h-9.4s0,14.4,0,14.4Z"/>
      <path d="M107.3,26.9h-1.6l-2.9,9.1-2.9-9.1h-1.6l-2.9,14.5h2.8l1.5-7.1,2.6,7.3h1.2l2.7-7.3,1.4,7.1h2.8l-2.9-14.3h0c0-.1,0-.1,0-.1Z"/>
      <path d="M122.8,28v-1h-9.6v2.6h5.7l-5.8,10.8v1h9.9v-2.6h-6l5.8-10.8h0Z"/>
      <path d="M135.3,27l-3.2,5.8-3.2-5.8h-3.1l4.9,8.5v5.9h2.9v-5.9l4.9-8.5h-3.1Z"/>
      <path d="M67.5,29.6l-6.5,3.6,1.3,2.3,4.3-2.3c.2,1.3,0,2.6-.6,3.6-.6,1.1-1.6,1.8-2.9,2.1-2.1.5-4-.2-5.2-1.9-1.2-1.7-1.1-3.8,0-5.5,1.2-1.7,3.5-2.4,5.7-1.7h.1s2.5-1.4,2.5-1.4l-.3-.2c-1.6-1.1-3.5-1.5-5.4-1.1-1.9.3-3.6,1.4-4.7,2.9-1.4,1.9-1.8,4.3-1.1,6.6.7,2.2,2.3,3.9,4.5,4.7.9.3,1.7.5,2.6.5,1.5,0,3-.5,4.3-1.4,2-1.4,3.2-3.8,3.2-6.2,0-1.6-.6-3.2-1.6-4.3h-.1v-.2h0Z"/>
    </g>
    <g class="st13">
      <line class="st12" x1="292.7" y1="43.6" x2="299.4" y2="50.4"/>
      <line class="st12" x1="292.7" y1="57.2" x2="299.5" y2="50.5"/>
    </g>
  </g>
  <g>
    <g>
      <path class="st7" d="M54.3,68.5h3.4c1.7,0,2.9,1,2.9,2.6s-1.3,2.6-3,2.6h-2v3.5h-1.3v-8.7ZM55.6,72.6h1.9c1.1,0,1.7-.5,1.7-1.5s-.7-1.5-1.7-1.5h-2v3Z"/>
      <path class="st7" d="M66.6,75.8c0,.6,0,1.3,0,1.4h-1.2c0-.1,0-.4-.1-.8-.2.4-.7.9-1.9.9s-2.2-1-2.2-2c0-1.4,1.1-2.1,3-2.1h1.1v-.5c0-.5-.2-1.2-1.3-1.2s-1.2.5-1.3,1h-1.2c0-.9.7-1.9,2.5-1.9,1.6,0,2.5.6,2.5,2.1v3ZM65.4,74.2h-1c-1.2,0-1.9.3-1.9,1.2s.4,1.1,1.2,1.1c1.5,0,1.7-1,1.7-2.1v-.2Z"/>
      <path class="st7" d="M68.9,70.9c1,2.9,1.5,4.6,1.7,5.3h0c.2-.7.6-2.2,1.6-5.3h1.2l-2.3,6.7c-.6,1.9-1.1,2.4-2.5,2.4s-.5,0-.7,0v-1c.2,0,.3,0,.5,0,.8,0,1.1-.3,1.4-1.3l-2.4-6.6h1.3Z"/>
      <path class="st7" d="M74.6,72.5c0-.6,0-1.1,0-1.6h1.2c0,.2,0,.6,0,.9.3-.6.8-1.1,1.8-1.1s1.5.5,1.7,1.1c.3-.6.9-1.1,2-1.1s2,.6,2,2.3v4.2h-1.2v-4c0-.7-.3-1.4-1.2-1.4s-1.4.7-1.4,1.8v3.7h-1.2v-4c0-.8-.2-1.5-1.2-1.5s-1.4.8-1.4,1.9v3.5h-1.2v-4.7Z"/>
      <path class="st7" d="M86,74.3c0,1.2.6,2.1,1.7,2.1s1.3-.5,1.5-.9h1.2c-.2.8-.9,1.9-2.7,1.9s-2.9-1.6-2.9-3.3,1-3.4,2.9-3.4,2.8,1.6,2.8,3,0,.4,0,.5h-4.4ZM89.3,73.4c0-1-.5-1.8-1.5-1.8s-1.5.7-1.6,1.8h3.2Z"/>
      <path class="st7" d="M91.9,72.5c0-.6,0-1.1,0-1.6h1.2c0,.2,0,.8,0,1,.2-.5.8-1.2,2-1.2s2.1.8,2.1,2.4v4.1h-1.2v-3.9c0-.9-.3-1.5-1.3-1.5s-1.6.8-1.6,2.1v3.4h-1.2v-4.8Z"/>
      <path class="st7" d="M98.2,70.9h1.1v-1.9h1.2v1.9h1.4v1h-1.4v3.6c0,.6.2.9.7.9s.4,0,.5,0v.9c-.3.1-.7.1-1,.1-1,0-1.5-.5-1.5-1.6v-3.9h-1.1v-1Z"/>
      <path class="st7" d="M103.8,75.4c.2.7.7,1,1.5,1s1.2-.4,1.2-.9-.3-.8-1.4-1.1c-1.9-.5-2.2-1-2.2-1.9s.7-1.8,2.4-1.8,2.4,1,2.5,1.9h-1.2c0-.4-.4-.9-1.3-.9s-1.1.4-1.1.8.2.7,1.4.9c2,.5,2.3,1.1,2.3,2.1s-.9,2-2.5,2-2.5-.9-2.7-2h1.2Z"/>
      <path class="st7" d="M112.5,68.5h3.4c1.7,0,2.9,1,2.9,2.6s-1.3,2.6-3,2.6h-2v3.5h-1.3v-8.7ZM113.8,72.6h1.9c1.1,0,1.7-.5,1.7-1.5s-.7-1.5-1.7-1.5h-2v3Z"/>
      <path class="st7" d="M125.5,74c0,1.9-1.1,3.4-3,3.4s-3-1.4-3-3.3,1.1-3.4,3-3.4,3,1.3,3,3.3ZM120.8,74c0,1.4.7,2.3,1.8,2.3s1.7-.9,1.7-2.3-.6-2.3-1.8-2.3-1.7.9-1.7,2.3Z"/>
      <path class="st7" d="M127.5,70.9c.8,2.9,1.2,4.6,1.3,5.3h0c.1-.6.5-2.1,1.4-5.3h1.2c.9,3.5,1.2,4.5,1.3,5.1h0c.2-.7.4-1.6,1.3-5.1h1.2l-2,6.4h-1.3c-.6-2.3-1.2-4.3-1.3-5.1h0c-.1.7-.6,2.6-1.3,5.1h-1.4l-1.8-6.4h1.3Z"/>
      <path class="st7" d="M137.2,74.3c0,1.2.6,2.1,1.7,2.1s1.3-.5,1.5-.9h1.2c-.2.8-.9,1.9-2.7,1.9s-2.9-1.6-2.9-3.3,1-3.4,2.9-3.4,2.8,1.6,2.8,3,0,.4,0,.5h-4.4ZM140.4,73.4c0-1-.5-1.8-1.5-1.8s-1.5.7-1.6,1.8h3.2Z"/>
      <path class="st7" d="M143.1,72.6c0-.8,0-1.4,0-1.7h1.2c0,.2,0,.7,0,1.3.3-.8,1.1-1.4,2.1-1.4v1.2c-1.3,0-2.1.6-2.1,2.3v3h-1.2v-4.7Z"/>
      <path class="st7" d="M148.3,74.3c0,1.2.6,2.1,1.7,2.1s1.3-.5,1.5-.9h1.2c-.2.8-.9,1.9-2.7,1.9s-2.9-1.6-2.9-3.3,1-3.4,2.9-3.4,2.8,1.6,2.8,3,0,.4,0,.5h-4.4ZM151.5,73.4c0-1-.5-1.8-1.5-1.8s-1.5.7-1.6,1.8h3.2Z"/>
      <path class="st7" d="M159.6,68v7.4c0,.6,0,1.2,0,1.8h-1.2c0-.2,0-.6,0-.9-.3.6-.9,1-2,1-1.6,0-2.6-1.3-2.6-3.3s1.1-3.4,2.9-3.4,1.6.4,1.8.8v-3.4h1.2ZM155.1,74.1c0,1.5.7,2.3,1.7,2.3,1.4,0,1.7-1.1,1.7-2.4s-.3-2.2-1.7-2.2-1.7.9-1.7,2.3Z"/>
      <path class="st7" d="M164.6,68h1.2v3.7c.3-.5.9-1,2-1,1.6,0,2.6,1.3,2.6,3.2s-1,3.5-2.8,3.5-1.5-.4-1.8-.9c0,.3,0,.6,0,.8h-1.2c0-.7,0-1.4,0-2.1v-7.1ZM169.2,73.9c0-1.3-.6-2.2-1.7-2.2s-1.7.9-1.7,2.3.4,2.3,1.7,2.3,1.7-.9,1.7-2.4Z"/>
      <path class="st7" d="M172.4,70.9c1,2.9,1.5,4.6,1.7,5.3h0c.2-.7.6-2.2,1.6-5.3h1.2l-2.3,6.7c-.6,1.9-1.1,2.4-2.5,2.4s-.5,0-.7,0v-1c.2,0,.3,0,.5,0,.8,0,1.1-.3,1.4-1.3l-2.4-6.6h1.3Z"/>
    </g>
    <g id="Page-1">
      <g id="Group">
        <path id="Fill-1" class="st4" d="M201.3,70.5c-.1.5-.4.8-.7,1-.4.2-.9.3-1.5.3h-2.1l.7-2.7h2.1c.7,0,1.1.1,1.4.3.2.2.3.6.2,1M203.5,70.5c.3-1,.2-1.8-.3-2.3-.5-.5-1.3-.8-2.6-.8h-4.7l-2.8,10.5h2.3l1.1-4.2h1.5c.3,0,.6,0,.8.2.2.1.3.3.3.6l.4,3.5h2.4l-.4-3.3c0-.7-.4-1.2-1-1.3.7-.2,1.4-.6,1.9-1.1.5-.5.8-1.1,1-1.8"/>
        <path id="Fill-3" class="st4" d="M209,74.1c-.2.7-.5,1.2-.9,1.6-.4.4-.9.6-1.4.6s-.9-.2-1.1-.6c-.2-.4-.2-.9,0-1.6.2-.7.5-1.2.9-1.6.4-.4.9-.6,1.4-.6s.9.2,1.1.6c.2.4.2.9,0,1.6h0ZM210,70.4l-.3,1.1c-.1-.4-.4-.7-.7-.9-.4-.2-.8-.3-1.3-.3s-1.3.2-1.8.5c-.6.3-1.1.8-1.5,1.4-.4.6-.8,1.3-1,2-.2.8-.2,1.4-.1,2,.1.6.4,1,.8,1.3.4.3.9.5,1.6.5s1-.1,1.5-.3c.5-.2.9-.5,1.2-.9l-.3,1.1h2.2l2-7.5h-2.2Z"/>
        <polygon id="Fill-5" class="st4" points="220.1 70.4 213.7 70.4 213.3 72.1 217 72.1 212.1 76.3 211.7 77.9 218.3 77.9 218.7 76.2 214.7 76.2 219.7 71.9 220.1 70.4"/>
        <path id="Fill-7" class="st4" d="M225.7,74.1c-.2.7-.5,1.3-.9,1.7-.4.4-.9.5-1.4.5-1.2,0-1.5-.7-1.1-2.2.2-.7.5-1.3.9-1.6.4-.4.9-.6,1.4-.6s.9.2,1.1.6c.2.4.2.9,0,1.6M227,70.7c-.5-.3-1.2-.5-1.9-.5s-1.5.2-2.2.5c-.7.3-1.3.8-1.7,1.4-.5.6-.8,1.3-1,2.1s-.2,1.5,0,2.1c.2.6.5,1,1,1.4.5.3,1.2.5,2,.5s1.5-.2,2.2-.5c.7-.3,1.2-.8,1.7-1.4.5-.6.8-1.3,1-2.1s.2-1.5,0-2.1c-.2-.6-.5-1-1-1.4"/>
        <path id="Fill-9" class="st4" d="M250,74.1c-.2.7-.5,1.2-.9,1.6-.4.4-.9.6-1.4.6s-.9-.2-1.1-.6c-.2-.4-.2-.9,0-1.6.2-.7.5-1.2.9-1.6.4-.4.9-.6,1.4-.6s.9.2,1.1.6c.2.4.2.9,0,1.6h0ZM251,70.4l-.3,1.1c-.1-.4-.4-.7-.7-.9-.4-.2-.8-.3-1.3-.3s-1.3.2-1.8.5c-.6.3-1.1.8-1.5,1.4-.4.6-.8,1.3-1,2-.2.8-.2,1.4-.1,2,.1.6.4,1,.8,1.3.4.3.9.5,1.6.5s1-.1,1.5-.3c.5-.2.9-.5,1.2-.9l-.3,1.1h2.2l2-7.5h-2.2Z"/>
        <path id="Fill-11" class="st4" d="M234.8,72.4l.6-2c-.2,0-.4-.1-.8-.1-.5,0-1,.1-1.4.4-.4.2-.7.5-1,.9l.3-1.1h-.6s-1.6,0-1.6,0l-2,7.5h2.2l1-3.9c.2-.6.4-1,.8-1.3.4-.3.9-.5,1.5-.5s.7,0,1,.3"/>
        <path id="Fill-13" class="st4" d="M241,74.2c-.2.7-.5,1.2-.9,1.6-.4.4-.9.6-1.4.6s-.9-.2-1.1-.6c-.2-.4-.2-.9,0-1.6.2-.7.5-1.3.9-1.6.4-.4.9-.6,1.4-.6s.9.2,1.1.6c.2.4.2.9,0,1.6M242.6,70.7c-.4-.3-.9-.5-1.6-.5s-1.1.1-1.6.4c-.5.3-.9.6-1.2,1h0s.4-1.2.4-1.2h-.4s-1.7,0-1.7,0l-.6,2.1s0,0,0,0l-2.3,8.5h2.2l1.1-4.3c.1.4.3.7.7.9.4.2.8.3,1.3.3s1.3-.2,1.9-.5c.6-.3,1.1-.8,1.5-1.3.4-.6.8-1.3,1-2,.2-.8.2-1.4.1-2-.1-.6-.4-1.1-.8-1.4"/>
        <path id="Fill-15" class="st4" d="M262.4,70.4h0s-1.3,0-1.3,0c0,0,0,0-.1,0h-.7l-.4.5s0,0,0,.1h0c0,0-2.8,4-2.8,4l-.6-4.6h-2.3l1.2,7-2.6,3.6h2.3l.6-.9s0,0,0,0l.7-1h0s3.3-4.7,3.3-4.7l2.8-3.9h0s0,0,0,0Z"/>
        <polygon id="Fill-17" class="st5" points="187.4 68.6 186.7 71 190.6 68.6 188.1 77.9 190.6 77.9 194.3 64.1 187.4 68.6"/>
        <path id="Fill-19" class="st4" d="M183.3,74l-1,3.9h5.2s2.1-8,2.1-8c0,0-6.3,4-6.3,4"/>
      </g>
    </g>
  </g>
  <g>
    <g>
      <path class="st1" d="M38.2,105.4h5v.6c0,.7-.1,1.4-.4,2-.2.6-.6,1.1-1,1.6-.4.5-1,.8-1.5,1.1-.6.3-1.3.4-2,.4s-1.4-.1-2-.4c-.6-.3-1.1-.6-1.6-1.1-.4-.5-.8-1-1-1.6-.2-.6-.4-1.3-.4-2s.1-1.4.4-2c.2-.6.6-1.2,1-1.6s1-.8,1.6-1.1c.6-.3,1.3-.4,2-.4s1,0,1.4.2c.4.1.8.3,1.1.5.3.2.6.4.9.7.2.3.5.5.6.8l-1.5.7c-.3-.4-.6-.7-1.1-1-.4-.3-1-.4-1.6-.4s-.9,0-1.3.3c-.4.2-.8.5-1.1.8-.3.3-.5.7-.7,1.2-.2.4-.2.9-.2,1.4s0,1,.2,1.4c.2.4.4.8.7,1.2.3.3.6.6,1.1.8.4.2.9.3,1.3.3s.9,0,1.2-.2c.4-.1.7-.4,1-.6.3-.3.5-.6.7-.9.2-.3.3-.7.3-1.1h-3.3v-1.2Z"/>
      <path class="st1" d="M45.6,108.1c0,.3,0,.6.2.9s.4.5.6.6c.3.1.6.2,1,.2s.7,0,.9-.1c.3,0,.5-.2.6-.4.2-.1.3-.3.4-.4l.7,1c-.2.2-.3.4-.6.6-.2.2-.5.3-.9.4-.3,0-.8.1-1.3.1s-1.3-.1-1.7-.4c-.5-.3-.9-.7-1.2-1.2s-.4-1.1-.4-1.8.1-1.1.4-1.6.6-.9,1.1-1.1c.5-.3,1.1-.4,1.7-.4s1.2.1,1.6.4.8.6,1.1,1.1c.3.5.4,1,.4,1.7s0,.1,0,.2,0,.2,0,.2h-4.7ZM48.9,107c0-.2,0-.3-.2-.5-.1-.2-.3-.4-.5-.5-.2-.2-.5-.2-.9-.2s-.7,0-.9.2-.4.3-.5.5c-.1.2-.2.4-.2.6h3.2Z"/>
      <path class="st1" d="M51.2,104.7h1.2v-2.5h1.6v2.5h1.5v1.3h-1.5v2.6c0,.3,0,.6.2.7.1.2.3.2.5.2s.3,0,.4,0c.1,0,.2-.1.2-.1l.6,1.2s-.1,0-.3.1c-.1,0-.3.1-.6.2-.2,0-.5,0-.8,0-.5,0-1-.2-1.3-.5-.3-.3-.5-.8-.5-1.5v-3.1h-1.2v-1.3Z"/>
      <path class="st1" d="M61.7,102.9l-1.7.9v-1.5l2.4-1.4h.8v9.9h-1.6v-7.9Z"/>
      <path class="st1" d="M64.8,105.9c0-.9.1-1.6.3-2.3.2-.6.5-1.2.9-1.6.4-.4.8-.7,1.2-.9.5-.2.9-.3,1.4-.3s1,.1,1.4.3c.5.2.9.5,1.2.9.4.4.6,1,.9,1.6.2.6.3,1.4.3,2.3s-.1,1.7-.3,2.3c-.2.6-.5,1.2-.9,1.6s-.8.7-1.2.9-.9.3-1.4.3-1,0-1.4-.3-.9-.5-1.2-.9-.7-.9-.9-1.6c-.2-.6-.3-1.4-.3-2.3ZM66.4,105.9c0,.8,0,1.5.3,2.1.2.6.5,1,.8,1.2s.7.4,1.1.4.8-.1,1.1-.4c.3-.3.6-.7.8-1.2.2-.6.3-1.2.3-2.1s0-1.5-.3-2c-.2-.5-.5-1-.8-1.2-.3-.3-.7-.4-1.1-.4s-.8.1-1.1.4c-.3.3-.6.7-.8,1.3-.2.6-.3,1.2-.3,2Z"/>
      <path class="st1" d="M73.5,105.9c0-.9.1-1.6.3-2.3.2-.6.5-1.2.9-1.6.4-.4.8-.7,1.2-.9.5-.2.9-.3,1.4-.3s1,.1,1.4.3c.5.2.9.5,1.2.9.4.4.6,1,.9,1.6.2.6.3,1.4.3,2.3s-.1,1.7-.3,2.3c-.2.6-.5,1.2-.9,1.6s-.8.7-1.2.9-.9.3-1.4.3-1,0-1.4-.3-.9-.5-1.2-.9-.7-.9-.9-1.6c-.2-.6-.3-1.4-.3-2.3ZM75.1,105.9c0,.8,0,1.5.3,2.1.2.6.5,1,.8,1.2s.7.4,1.1.4.8-.1,1.1-.4c.3-.3.6-.7.8-1.2.2-.6.3-1.2.3-2.1s0-1.5-.3-2c-.2-.5-.5-1-.8-1.2-.3-.3-.7-.4-1.1-.4s-.8.1-1.1.4c-.3.3-.6.7-.8,1.3-.2.6-.3,1.2-.3,2Z"/>
      <path class="st1" d="M82.3,103.1c0-.4,0-.8.3-1.1.2-.3.5-.6.8-.8.3-.2.7-.3,1.2-.3s.8,0,1.2.3.6.4.8.8c.2.3.3.7.3,1.1s0,.7-.3,1.1c-.2.3-.5.6-.8.8-.3.2-.7.3-1.2.3s-.9,0-1.2-.3c-.3-.2-.6-.4-.8-.8-.2-.3-.3-.7-.3-1.1ZM83.4,103.1c0,.4.1.6.3.8.2.2.5.3.8.3s.6-.1.8-.3c.2-.2.3-.5.3-.8s-.1-.6-.3-.8c-.2-.2-.5-.3-.8-.3s-.6.1-.8.3c-.2.2-.3.5-.3.8ZM89.8,100.9h1.1l-6,9.9h-1.1l6-9.9ZM87.8,108.7c0-.4,0-.8.3-1.1.2-.3.5-.6.8-.8.3-.2.7-.3,1.2-.3s.8,0,1.2.3c.3.2.6.4.8.8.2.3.3.7.3,1.1s0,.7-.3,1c-.2.3-.5.6-.8.8-.3.2-.7.3-1.2.3s-.9,0-1.2-.3c-.3-.2-.6-.4-.8-.8s-.3-.7-.3-1ZM89,108.7c0,.3.1.6.3.8.2.2.5.3.8.3s.6-.1.8-.3.3-.5.3-.8-.1-.6-.3-.8c-.2-.2-.5-.3-.8-.3s-.6.1-.8.3-.3.5-.3.8Z"/>
      <path class="st1" d="M99,110.8h-1.6v-6.2h1.6v1h0c0-.1.1-.3.3-.5.2-.2.4-.4.7-.5.3-.2.6-.2,1-.2s.5,0,.8.1c.2,0,.4.2.5.2l-.6,1.3c0,0-.2-.2-.4-.2-.2,0-.4-.1-.7-.1s-.6,0-.8.3c-.2.2-.4.4-.5.7-.1.3-.2.5-.2.7v3.3Z"/>
      <path class="st1" d="M103.8,108.1c0,.3,0,.6.2.9s.4.5.6.6c.3.1.6.2,1,.2s.7,0,.9-.1c.3,0,.5-.2.6-.4.2-.1.3-.3.4-.4l.7,1c-.2.2-.3.4-.6.6-.2.2-.5.3-.9.4-.3,0-.8.1-1.3.1s-1.3-.1-1.7-.4c-.5-.3-.9-.7-1.2-1.2s-.4-1.1-.4-1.8.1-1.1.4-1.6.6-.9,1.1-1.1c.5-.3,1.1-.4,1.7-.4s1.2.1,1.6.4.8.6,1.1,1.1c.3.5.4,1,.4,1.7s0,.1,0,.2,0,.2,0,.2h-4.7ZM107.1,107c0-.2,0-.3-.2-.5-.1-.2-.3-.4-.5-.5-.2-.2-.5-.2-.9-.2s-.7,0-.9.2-.4.3-.5.5c-.1.2-.2.4-.2.6h3.2Z"/>
      <path class="st1" d="M109.3,104.7h1.2v-1.7c0-.6.1-1.1.3-1.5s.5-.7.9-.9c.4-.2.7-.3,1.1-.3s.8,0,1.1.2c.2.1.4.2.5.3l-.6,1.2s-.1,0-.2-.2c-.1,0-.3-.1-.5-.1s-.3,0-.4.1c-.1,0-.3.2-.3.4,0,.2-.1.5-.1.9v1.5h1.7v1.3h-1.7v4.8h-1.6v-4.8h-1.2v-1.3Z"/>
      <path class="st1" d="M116.3,107.7c0,.6.1,1.1.4,1.4.2.4.6.5,1.2.5s.9-.2,1.2-.5c.2-.4.4-.8.4-1.4v-3h1.6v3.2c0,.6-.1,1.2-.4,1.6-.2.5-.6.8-1.1,1.1s-1,.4-1.7.4-1.2-.1-1.7-.4c-.5-.3-.8-.6-1.1-1.1-.2-.5-.4-1-.4-1.6v-3.2h1.6v3Z"/>
      <path class="st1" d="M126.2,104.5c.4,0,.8,0,1.2.3.4.2.7.4,1,.8.3.4.4.9.4,1.5v3.8h-1.6v-3.5c0-.6-.1-1-.4-1.2s-.6-.4-1-.4-.5,0-.8.2c-.2.2-.5.4-.6.6-.2.3-.2.6-.2.9v3.4h-1.6v-6.2h1.6v1c0-.2.2-.3.4-.5.2-.2.4-.3.8-.5.3-.1.6-.2,1-.2Z"/>
      <path class="st1" d="M133,111c-.6,0-1.1-.1-1.5-.4-.4-.3-.8-.7-1-1.1s-.4-1.1-.4-1.7.1-1.2.4-1.7c.3-.5.6-.9,1-1.2.4-.3,1-.4,1.5-.4s.8,0,1.1.2.6.3.8.5c.2.2.3.4.4.5v-5.2h1.6v10.3h-1.6v-1.1c0,.2-.2.4-.4.6s-.5.4-.8.5c-.3.1-.7.2-1.1.2ZM133.4,109.7c.3,0,.7,0,1-.2.3-.2.5-.4.7-.7.2-.3.3-.6.3-1s0-.7-.3-1c-.2-.3-.4-.5-.7-.7-.3-.2-.6-.3-1-.3s-.6,0-.9.2c-.3.2-.5.4-.7.7-.2.3-.2.6-.2,1s0,.7.2,1c.2.3.4.5.7.7.3.2.6.2.9.2Z"/>
      <path class="st6" d="M144.9,111c-.6,0-1.2-.1-1.7-.4-.5-.3-.9-.7-1.2-1.2-.3-.5-.4-1-.4-1.7s.1-1.2.4-1.7.7-.9,1.2-1.2,1.1-.4,1.7-.4,1.2.1,1.7.4c.5.3.9.7,1.2,1.2.3.5.4,1.1.4,1.7s-.1,1.2-.4,1.7c-.3.5-.7.9-1.2,1.2-.5.3-1.1.4-1.7.4ZM144.9,109.7c.4,0,.7,0,.9-.2.3-.2.5-.4.6-.7.1-.3.2-.6.2-1s0-.7-.2-1c-.1-.3-.3-.5-.6-.7s-.6-.3-.9-.3-.7,0-.9.3-.5.4-.6.7c-.1.3-.2.6-.2,1s0,.7.2,1c.1.3.4.5.6.7.3.2.6.2.9.2Z"/>
      <path class="st6" d="M153.2,104.5c.4,0,.8,0,1.2.3.4.2.7.4,1,.8.3.4.4.9.4,1.5v3.8h-1.6v-3.5c0-.6-.1-1-.4-1.2s-.6-.4-1-.4-.5,0-.8.2c-.2.2-.5.4-.6.6-.2.3-.2.6-.2.9v3.4h-1.6v-6.2h1.6v1c0-.2.2-.3.4-.5.2-.2.4-.3.8-.5.3-.1.6-.2,1-.2Z"/>
      <path class="st6" d="M164.7,104.5c.4,0,.8,0,1.2.3.4.2.7.4,1,.8.3.4.4.9.4,1.5v3.8h-1.6v-3.5c0-.6-.1-1-.4-1.2s-.6-.4-1-.4-.5,0-.8.2c-.2.2-.5.4-.6.6-.2.3-.2.6-.2.9v3.4h-1.6v-6.2h1.6v1c0-.2.2-.3.4-.5.2-.2.4-.3.8-.5.3-.1.6-.2,1-.2Z"/>
      <path class="st6" d="M171.7,111c-.6,0-1.2-.1-1.7-.4-.5-.3-.9-.7-1.2-1.2-.3-.5-.4-1-.4-1.7s.1-1.2.4-1.7.7-.9,1.2-1.2c.5-.3,1.1-.4,1.7-.4s1.2.1,1.7.4.9.7,1.2,1.2c.3.5.4,1.1.4,1.7s-.1,1.2-.4,1.7c-.3.5-.7.9-1.2,1.2-.5.3-1.1.4-1.7.4ZM171.7,109.7c.4,0,.7,0,.9-.2.3-.2.5-.4.6-.7.1-.3.2-.6.2-1s0-.7-.2-1c-.1-.3-.3-.5-.6-.7-.3-.2-.6-.3-.9-.3s-.7,0-.9.3-.5.4-.6.7c-.1.3-.2.6-.2,1s0,.7.2,1,.4.5.6.7c.3.2.6.2.9.2Z"/>
      <path class="st6" d="M179.9,104.5c.4,0,.8,0,1.2.3.4.2.7.4,1,.8.3.4.4.9.4,1.5v3.8h-1.6v-3.5c0-.6-.1-1-.4-1.2s-.6-.4-1-.4-.5,0-.8.2c-.2.2-.5.4-.6.6-.2.3-.2.6-.2.9v3.4h-1.6v-6.2h1.6v1c0-.2.2-.3.4-.5.2-.2.4-.3.8-.5.3-.1.6-.2,1-.2Z"/>
      <path class="st6" d="M184.1,108.1v-1.4h3.9v1.4h-3.9Z"/>
      <path class="st6" d="M192.4,111c-.6,0-1.1-.1-1.5-.4-.4-.3-.8-.7-1-1.1-.3-.5-.4-1.1-.4-1.7s.1-1.2.4-1.7c.3-.5.6-.9,1-1.2.4-.3,1-.4,1.5-.4s.8,0,1.1.2.6.3.8.5.3.4.4.5v-5.2h1.6v10.3h-1.6v-1.1c0,.2-.2.4-.4.6-.2.2-.5.4-.8.5s-.7.2-1.1.2ZM192.8,109.7c.3,0,.7,0,1-.2s.5-.4.7-.7c.2-.3.3-.6.3-1s0-.7-.3-1c-.2-.3-.4-.5-.7-.7-.3-.2-.6-.3-1-.3s-.6,0-.9.2c-.3.2-.5.4-.7.7-.2.3-.2.6-.2,1s0,.7.2,1,.4.5.7.7.6.2.9.2Z"/>
      <path class="st6" d="M198.7,108.1c0,.3,0,.6.2.9.1.3.4.5.6.6s.6.2,1,.2.7,0,.9-.1c.3,0,.5-.2.6-.4.2-.1.3-.3.4-.4l.7,1c-.2.2-.4.4-.6.6-.2.2-.5.3-.9.4-.3,0-.8.1-1.3.1s-1.3-.1-1.7-.4c-.5-.3-.9-.7-1.2-1.2-.3-.5-.4-1.1-.4-1.8s.1-1.1.4-1.6.6-.9,1.1-1.1c.5-.3,1.1-.4,1.7-.4s1.2.1,1.6.4c.5.2.8.6,1.1,1.1.3.5.4,1,.4,1.7s0,.1,0,.2c0,.1,0,.2,0,.2h-4.7ZM202,107c0-.2,0-.3-.2-.5-.1-.2-.3-.4-.5-.5-.2-.2-.5-.2-.9-.2s-.7,0-.9.2-.4.3-.5.5c-.1.2-.2.4-.2.6h3.2Z"/>
      <path class="st6" d="M206.4,110.8h-1.6v-10.3h1.6v10.3Z"/>
      <path class="st6" d="M209,102.8c-.3,0-.5,0-.7-.3s-.3-.4-.3-.7,0-.5.3-.7c.2-.2.4-.3.7-.3s.3,0,.5.1c.2,0,.3.2.4.4,0,.1.1.3.1.5,0,.3,0,.5-.3.7s-.4.3-.7.3ZM208.2,110.8v-6.2h1.6v6.2h-1.6Z"/>
      <path class="st6" d="M211,104.7h1.7l1.9,4.7,1.9-4.7h1.7l-2.6,6.2h-1.9l-2.6-6.2Z"/>
      <path class="st6" d="M220.3,108.1c0,.3,0,.6.2.9.1.3.4.5.6.6s.6.2,1,.2.7,0,.9-.1c.3,0,.5-.2.6-.4.2-.1.3-.3.4-.4l.7,1c-.2.2-.4.4-.6.6-.2.2-.5.3-.9.4-.3,0-.8.1-1.3.1s-1.3-.1-1.7-.4c-.5-.3-.9-.7-1.2-1.2-.3-.5-.4-1.1-.4-1.8s.1-1.1.4-1.6.6-.9,1.1-1.1c.5-.3,1.1-.4,1.7-.4s1.2.1,1.6.4c.5.2.8.6,1.1,1.1.3.5.4,1,.4,1.7s0,.1,0,.2c0,.1,0,.2,0,.2h-4.7ZM223.6,107c0-.2,0-.3-.2-.5-.1-.2-.3-.4-.5-.5-.2-.2-.5-.2-.9-.2s-.7,0-.9.2-.4.3-.5.5c-.1.2-.2.4-.2.6h3.2Z"/>
      <path class="st6" d="M227.9,110.8h-1.6v-6.2h1.6v1h0c0-.1.1-.3.3-.5.2-.2.4-.4.7-.5.3-.2.6-.2,1-.2s.5,0,.8.1c.2,0,.4.2.5.2l-.6,1.3c0,0-.2-.2-.4-.2-.2,0-.4-.1-.7-.1s-.6,0-.8.3c-.2.2-.4.4-.5.7-.1.3-.2.5-.2.7v3.3Z"/>
      <path class="st6" d="M234.5,109.4l2-4.7h1.6l-4.2,9.3h-1.6l1.4-3.1-2.5-6.2h1.6l1.8,4.7Z"/>
      <path class="st6" d="M245.5,111c-.6,0-1.2-.1-1.7-.4-.5-.3-.9-.7-1.2-1.2-.3-.5-.4-1-.4-1.7s.1-1.2.4-1.7.7-.9,1.2-1.2c.5-.3,1.1-.4,1.7-.4s1.2.1,1.7.4.9.7,1.2,1.2c.3.5.4,1.1.4,1.7s-.1,1.2-.4,1.7c-.3.5-.7.9-1.2,1.2-.5.3-1.1.4-1.7.4ZM245.5,109.7c.4,0,.7,0,.9-.2.3-.2.5-.4.6-.7.1-.3.2-.6.2-1s0-.7-.2-1c-.1-.3-.3-.5-.6-.7-.3-.2-.6-.3-.9-.3s-.7,0-.9.3-.5.4-.6.7c-.1.3-.2.6-.2,1s0,.7.2,1,.4.5.6.7c.3.2.6.2.9.2Z"/>
      <path class="st6" d="M251.6,110.8h-1.6v-6.2h1.6v1h0c0-.1.1-.3.3-.5.2-.2.4-.4.7-.5.3-.2.6-.2,1-.2s.5,0,.8.1c.2,0,.4.2.5.2l-.6,1.3c0,0-.2-.2-.4-.2-.2,0-.4-.1-.7-.1s-.6,0-.8.3c-.2.2-.4.4-.5.7-.1.3-.2.5-.2.7v3.3Z"/>
      <path class="st6" d="M261.9,111c-.6,0-1.1-.1-1.5-.4-.4-.3-.8-.7-1-1.1-.3-.5-.4-1.1-.4-1.7s.1-1.2.4-1.7c.3-.5.6-.9,1-1.2.4-.3,1-.4,1.5-.4s.8,0,1.1.2.6.3.8.5.3.4.4.5v-5.2h1.6v10.3h-1.6v-1.1c0,.2-.2.4-.4.6-.2.2-.5.4-.8.5s-.7.2-1.1.2ZM262.3,109.7c.3,0,.7,0,1-.2s.5-.4.7-.7c.2-.3.3-.6.3-1s0-.7-.3-1c-.2-.3-.4-.5-.7-.7-.3-.2-.6-.3-1-.3s-.6,0-.9.2c-.3.2-.5.4-.7.7-.2.3-.2.6-.2,1s0,.7.2,1,.4.5.7.7.6.2.9.2Z"/>
      <path class="st6" d="M268.3,108.1c0,.3,0,.6.2.9.1.3.4.5.6.6s.6.2,1,.2.7,0,.9-.1c.3,0,.5-.2.6-.4.2-.1.3-.3.4-.4l.7,1c-.2.2-.4.4-.6.6-.2.2-.5.3-.9.4-.3,0-.8.1-1.3.1s-1.3-.1-1.7-.4c-.5-.3-.9-.7-1.2-1.2-.3-.5-.4-1.1-.4-1.8s.1-1.1.4-1.6.6-.9,1.1-1.1c.5-.3,1.1-.4,1.7-.4s1.2.1,1.6.4c.5.2.8.6,1.1,1.1.3.5.4,1,.4,1.7s0,.1,0,.2c0,.1,0,.2,0,.2h-4.7ZM271.6,107c0-.2,0-.3-.2-.5-.1-.2-.3-.4-.5-.5-.2-.2-.5-.2-.9-.2s-.7,0-.9.2-.4.3-.5.5c-.1.2-.2.4-.2.6h3.2Z"/>
      <path class="st6" d="M273.7,104.7h1.2v-1.7c0-.6.1-1.1.3-1.5.2-.4.5-.7.9-.9s.7-.3,1.1-.3.8,0,1.1.2c.2.1.4.2.5.3l-.6,1.2s-.1,0-.2-.2c-.1,0-.3-.1-.5-.1s-.3,0-.4.1c-.1,0-.3.2-.3.4s-.1.5-.1.9v1.5h1.7v1.3h-1.7v4.8h-1.6v-4.8h-1.2v-1.3Z"/>
      <path class="st6" d="M280.3,108.1c0,.3,0,.6.2.9.1.3.4.5.6.6s.6.2,1,.2.7,0,.9-.1c.3,0,.5-.2.6-.4.2-.1.3-.3.4-.4l.7,1c-.2.2-.4.4-.6.6-.2.2-.5.3-.9.4-.3,0-.8.1-1.3.1s-1.3-.1-1.7-.4c-.5-.3-.9-.7-1.2-1.2-.3-.5-.4-1.1-.4-1.8s.1-1.1.4-1.6.6-.9,1.1-1.1c.5-.3,1.1-.4,1.7-.4s1.2.1,1.6.4c.5.2.8.6,1.1,1.1.3.5.4,1,.4,1.7s0,.1,0,.2c0,.1,0,.2,0,.2h-4.7ZM283.6,107c0-.2,0-.3-.2-.5-.1-.2-.3-.4-.5-.5-.2-.2-.5-.2-.9-.2s-.7,0-.9.2-.4.3-.5.5c-.1.2-.2.4-.2.6h3.2Z"/>
      <path class="st6" d="M289.4,109.7c.4,0,.6,0,.9-.2.2-.1.4-.2.4-.3l.8,1.1c0,0-.2.1-.4.2s-.4.2-.7.3c-.3,0-.6.1-1,.1-.6,0-1.2-.1-1.7-.4-.5-.3-.9-.6-1.2-1.1-.3-.5-.4-1.1-.4-1.8s.1-1.3.4-1.8c.3-.5.7-.9,1.2-1.1.5-.3,1.1-.4,1.7-.4s.7,0,1,.1c.3,0,.5.2.7.3.2.1.3.2.4.2l-.8,1.1s-.1,0-.2-.2c-.1,0-.2-.1-.4-.2-.2,0-.4,0-.6,0s-.6,0-.9.2c-.3.2-.5.4-.7.7-.2.3-.3.6-.3,1s0,.7.3,1,.4.5.7.7c.3.2.6.2.9.2Z"/>
      <path class="st6" d="M292,104.7h1.2v-2.5h1.6v2.5h1.5v1.3h-1.5v2.6c0,.3,0,.6.2.7.1.2.3.2.5.2s.3,0,.4,0c.1,0,.2-.1.2-.1l.6,1.2s-.1,0-.3.1c-.1,0-.3.1-.6.2-.2,0-.5,0-.8,0-.5,0-1-.2-1.3-.5-.3-.3-.5-.8-.5-1.5v-3.1h-1.2v-1.3Z"/>
      <path class="st6" d="M300,104.5c.3,0,.7,0,1,0,.3,0,.5.1.8.2s.4.2.4.2l-.6,1c0,0-.3-.2-.5-.3s-.5-.2-.9-.2-.6,0-.8.2c-.2.1-.3.3-.3.5s.1.4.3.5c.2.1.5.2.9.3.3,0,.6.2.9.3s.5.3.7.6.3.6.3,1,0,.7-.2,1c-.2.3-.4.5-.6.6-.3.2-.6.3-.9.3-.3,0-.7.1-1,.1s-.8,0-1.1-.1c-.3,0-.6-.2-.8-.3-.2-.1-.4-.2-.4-.3l.6-1.1c.1.1.3.3.6.4.3.1.6.2,1,.2s.7,0,.9-.2c.2-.1.4-.3.4-.6s0-.3-.2-.5c-.1-.1-.3-.2-.5-.3s-.4-.1-.7-.2c-.2,0-.5-.1-.7-.2-.2,0-.4-.2-.6-.3-.2-.1-.3-.3-.5-.5s-.2-.5-.2-.8.1-.7.4-.9c.2-.3.5-.5.9-.6.4-.1.8-.2,1.2-.2Z"/>
    </g>
    <g>
      <path class="st14" d="M15.3,108v-1.3h1.6c.7,0,1.2,0,1.6-.3.4-.2.6-.5.7-.9h-3.9v-1.3h3.8c-.2-.8-1-1.2-2.2-1.2h-1.7v-1.5h7.6l-.3,1.5h-2.3c.4.3.7.7.8,1.2h1.2l-.3,1.3h-1c-.1.8-.5,1.4-1,1.8-.6.4-1.3.7-2.2.8h-.2s3.8,4,3.8,4h-2.7l-3.6-4Z"/>
      <path class="st14" d="M19,97.6c-4.4,0-8.1,3.3-8.6,7.6h-.9c-.1,0-.2.2-.1.3l1.5,2.3c0,.1.2.1.3,0l1.6-2.3c0-.1,0-.3-.1-.3h-.9c.5-3.6,3.6-6.4,7.4-6.4s5.4,1.6,6.7,4.1c.1.3.5.4.8.3.3-.1.5-.5.3-.8-1.5-2.9-4.4-4.8-7.8-4.8Z"/>
      <path class="st14" d="M28.7,107.1l-1.5-2.3c0-.1-.2-.1-.3,0l-1.6,2.3c0,.1,0,.3.1.3h.9c-.5,3.6-3.6,6.4-7.4,6.4s-5.4-1.6-6.7-4.1c-.1-.3-.5-.4-.8-.3-.3.1-.5.5-.3.8,1.5,2.9,4.4,4.8,7.8,4.8s8.1-3.3,8.6-7.6h.9c.1,0,.2-.2.1-.3h0Z"/>
    </g>
  </g>
</svg>